<svg id="dal__onion" xmlns="http://www.w3.org/2000/svg" data-name="dal__onion" viewBox="0.018 -0.02 112.441 131.815"><g data-name="Layer1 20 FILL"><path d="M112.33 85.37c0-1.9-.1-3.1-.4-3.5-.8-1.1-2.5-.7-5.3 1.2a5.28 5.28 0 0 1-.1 1.2c-1.3-.8-3.9.4-7.8 3.5-.1.2-.3.4-.4.6a13.58 13.58 0 0 1-1.2 1.2 49.55 49.55 0 0 1-10.2 9.5c-1.7 2-2.8 3.4-3.2 4a41.17 41.17 0 0 1-6.9 3.9c-5.6 1.8-9 3.4-10.4 4.7-.9.8-.9 1.5-.1 2-.2.1-3.4.1-9.5.1-1.7.6-3.4 1.1-5.1 1.6a9.36 9.36 0 0 1-1.6.4c0 .3-.1.6-.1.9a8 8 0 0 0 .4 1.5c.9.9 3.2 1.3 6.9 1.3a53.46 53.46 0 0 0 26.5-7.1l.1-.1a2.59 2.59 0 0 0 2.4 1.4c3.6 0 6.9-1.6 10-4.8 6-2.3 11.3-10.1 16-23.5z" class="cls-1" fill="#842540"/><path d="M6.43 45.97a30.7 30.7 0 0 0-4.6 15.6v.1a25.57 25.57 0 0 0-1.4 8.9c0 1.1.6 3.8 1.7 8.3a104.21 104.21 0 0 0 5.5 16.6c6.7 15.9 15.2 23.8 25.5 23.8a10.69 10.69 0 0 0 5.5-1.4 62.29 62.29 0 0 0 11.7-2.3c.5-.1 1-.3 1.6-.4 1.7-.5 3.5-1 5.1-1.6a119.63 119.63 0 0 0 17.1-6.9 87.6 87.6 0 0 0 13-7.8 55.29 55.29 0 0 0 10.2-9.5 6.79 6.79 0 0 0 1.2-1.2 2.09 2.09 0 0 0 .4-.6 6.25 6.25 0 0 0 1-2.2 28.62 28.62 0 0 0 4.1-14.7 10.44 10.44 0 0 0-3-7.4c.5-5.4.7-9.2.7-11.5a91.41 91.41 0 0 0-.9-9.9 87.43 87.43 0 0 0-1.5-9.4c-1.7-5.6-5.3-8.7-10.6-9.3a7 7 0 0 0-5.5 1.2c-.2.1-.4.3-.6.4-1.4-3.2-3.8-4.1-7.1-2.9q-6.3 2.4-6.6 7.8a42.44 42.44 0 0 0 .9 8.9 131.71 131.71 0 0 1-1 17.4c-.3 2.4-.6 4-.6 4.6a8.47 8.47 0 0 1-.4 1.7 9.61 9.61 0 0 0-1.3-2 32.2 32.2 0 0 1-2-2.7 8 8 0 0 1 .5-2 9.67 9.67 0 0 0 .5-2.1 10.59 10.59 0 0 0-.9-4.2 6.33 6.33 0 0 0-6.1-3.7 12.14 12.14 0 0 0-6 1.8 11.64 11.64 0 0 0 1.5-2.6c0-5.5-1.7-8.1-5-7.9a11.72 11.72 0 0 0-3.3.9c2.2-2.8 3.2-4.6 3.2-5.5 0-8.4-3.7-10.1-11.2-5a52.33 52.33 0 0 0-6.6 5.2.38.38 0 0 0-.2-.2 1.38 1.38 0 0 0-.4-.3 4.28 4.28 0 0 0-3.7-2.6c-2.8-.3-6.1 1.2-10.1 4.3a43.6 43.6 0 0 0-10.3 12.3z" class="cls-2" fill="#ead8ea"/></g><path d="M29.53 99.07c-.2-.6-1-1.3-2.4-2.2-.7-.3-1.2-.3-1.4.2s0 .7.6.8.7.5.4.9a.48.48 0 0 0-.1.6 5.92 5.92 0 0 0 .6.4 2.39 2.39 0 0 0 .7.3.55.55 0 0 1 .3.5 2.68 2.68 0 0 0 .6 2.2c.3.4.8 1 1.4 1.8a74.94 74.94 0 0 1 3.5 7.3 2.31 2.31 0 0 0 .6-2.3 60.34 60.34 0 0 0-2.2-6.5 12 12 0 0 0-1.4-2.1 5 5 0 0 1-1.2-1.9m36.9 1.9a1.46 1.46 0 0 0 .5-.8.64.64 0 0 0-.6-.6 2.6 2.6 0 0 0-1.4.9q-1 .9-.9 1.2a1.13 1.13 0 0 1-.6 1.6.35.35 0 0 0-.4.3.37.37 0 0 0 .2.5 1.73 1.73 0 0 0 1.5-.2q1-.45.9-.9a1.23 1.23 0 0 1 .1-1.2c.3-.4.6-.6.7-.8m-12.6 2.6a5.46 5.46 0 0 0-2.4.4 8.31 8.31 0 0 1-2.7.8 1.92 1.92 0 0 0-1.2.4c-.4.3-1.2 1-2.3 1.9s-1.8 1.4-2.4 1.8a4.09 4.09 0 0 0-1.4 1.5 1.73 1.73 0 0 0 .5 2.3c.6.5 1.3.3 2.1-.4a25.48 25.48 0 0 0 4-3.7 5.34 5.34 0 0 1 1.1-.4 15.26 15.26 0 0 0 2.9-1.1c1.2-.6 2-1.1 2.6-1.4a4.45 4.45 0 0 1 2.7-.9 1 1 0 0 0 1.3-.5c-1.2-.3-1.9-.5-2.1-.5a15.57 15.57 0 0 1-2.7-.2m15.8-4.6c1.2-.8 2-1.3 2.6-1.7.3-.2.5-.4.4-.6a1.63 1.63 0 0 0-.3-.6.37.37 0 0 0-.4-.4.55.55 0 0 0-.5.3 5.13 5.13 0 0 1-2.4 1.2 1 1 0 0 0-.6.4 1.45 1.45 0 0 0-.1 1.2v.4a.85.85 0 0 0 .2.6.34.34 0 0 0 .6-.1c.3-.5.5-.6.5-.7m7.1-13.9a1.07 1.07 0 0 0 .6-.9 2.59 2.59 0 0 1 1.9-2.7 2.4 2.4 0 0 0-2.3.2 4.46 4.46 0 0 0-1.3 1.4 17.1 17.1 0 0 1-1.1 1.4 18 18 0 0 0-2.7 3.1q-2 2.7-2.4 3.3l-.9.9a2.35 2.35 0 0 0-.8 1l-.4.6a.4.4 0 0 0 .2.6c.6.5 1.2.3 1.6-.5a5.27 5.27 0 0 1 2.2-1.8 2.08 2.08 0 0 0 1.2-.9 5.84 5.84 0 0 1 1.4-2.7 10.85 10.85 0 0 0 1.8-2.3 2.27 2.27 0 0 1 1-.7m12.4-2.1l-.9.1c-1.5-.2-2.3-.1-2.3.4a2.06 2.06 0 0 1-.7 1.7 6.67 6.67 0 0 0-1.4 1.1c-.1.1-.7.9-1.6 2.2a4.86 4.86 0 0 1-1.9 1.7 10.26 10.26 0 0 0-2.6 1.9 6.1 6.1 0 0 1-2.6 1.8 1.07 1.07 0 0 0-.6.6 2.3 2.3 0 0 1-.8.7c-.8.4-.7.8.1 1.2a1.49 1.49 0 0 0 1.6-.4c.9-.8 1.5-1.3 1.9-1.7a4.16 4.16 0 0 1 2.4-1 .31.31 0 0 0 .2-.1.1.1 0 0 0 .1-.1q-.15-.9.3-.9a4.4 4.4 0 0 1 .9.1c1.9-.2 2.9-.8 3.2-1.9a2.72 2.72 0 0 1 1.5-2.4 6.85 6.85 0 0 0 2.1-1.5 16.92 16.92 0 0 1 1.8-1.7 5.92 5.92 0 0 1 .6-.4.47.47 0 0 0 .1-.6 1.2 1.2 0 0 0-1.4-.8m-4-34.6l.1-1.3c0-1.1-.3-1.6-1-1.5a4 4 0 0 0-1.2.4 1 1 0 0 0-.5 1.2 8.84 8.84 0 0 1 0 2.3 4.92 4.92 0 0 0 .4 1.7 2.54 2.54 0 0 1 .1 1.7 3.89 3.89 0 0 0 .6 3.2.78.78 0 0 0 .3.4.3.3 0 0 1 0 .4 2.37 2.37 0 0 0-.4 1.9 5.22 5.22 0 0 1 .2 1.9l-.3 1.1a2 2 0 0 0 0 1.1 2.53 2.53 0 0 1 .1 2.4 7.59 7.59 0 0 0-.7 2.4 9.79 9.79 0 0 1-.4 2.3 8.46 8.46 0 0 0-.4 2.4 1.22 1.22 0 0 1-.4.9 1.42 1.42 0 0 0-.7.8 3.36 3.36 0 0 1-.4 1 6.69 6.69 0 0 1-1.7 3.5 1.54 1.54 0 0 0-.6.4.68.68 0 0 0-.4.6c0 .2.2.3.6.4a2 2 0 0 0 1.5-.6c.2-.3.6-.8 1.2-1.7a12.21 12.21 0 0 1 1.4-1.6 3.52 3.52 0 0 0 1.4-2.2c1.2-5 2-8.5 2.3-10.4.3-1.2.5-2.2.6-2.8a6.42 6.42 0 0 0-.1-2.8 41.78 41.78 0 0 1-1.6-9.5m9.2 5.3a.3.3 0 0 0-.1.4l.1.4a33.17 33.17 0 0 0 .3 3.4 13.41 13.41 0 0 1 .1 3.4l-.5 4.2a28.7 28.7 0 0 1-.8 4.2 1.08 1.08 0 0 0 .4 1.4.6.6 0 0 0 .8 0c.2-.3.6-.7 1.1-1.3a3.65 3.65 0 0 0 .7-1.4 55.2 55.2 0 0 0 .9-10.4 4.4 4.4 0 0 0-1.8-4.2.83.83 0 0 0-1.2-.1m-.9-2.9a1.74 1.74 0 0 1 .1.9 1.22 1.22 0 0 0 .3.9 1.46 1.46 0 0 0 1.6.4.52.52 0 0 0 .2-.6 2.09 2.09 0 0 1-.4-.6 7 7 0 0 1-.5-1.3 1 1 0 0 0-.7-.8c-.5 0-.7.4-.6 1.1m-7.6-32.8a1.62 1.62 0 0 0-1.1-.9 1.23 1.23 0 0 0-1.3.1.69.69 0 0 0-.3 1c.1.2.3.6.6 1.1.1.4.9 2.1 2.2 5a17.45 17.45 0 0 1 1.8 5.3c0 .2.1.6.1 1.1a1.22 1.22 0 0 0 .3.9 6.47 6.47 0 0 1 1.1 2.5 14.7 14.7 0 0 0 .8 2.5 18.83 18.83 0 0 1 1.6 4.5 5.93 5.93 0 0 0 .5 1.4 2.4 2.4 0 0 1 .2 1.4 5.88 5.88 0 0 0 .2 1.7 5.25 5.25 0 0 1 .1 1.7 1.63 1.63 0 0 0 1 1.7 1.18 1.18 0 0 0 .8.1.53.53 0 0 0 .2-.7l-.9-4.8a25.77 25.77 0 0 1-.6-4.9 15.55 15.55 0 0 0-1.4-5.2 17.65 17.65 0 0 1-1.4-5.2l-.2-.5c-.5-1.2-.9-2.2-1.2-2.8a10.44 10.44 0 0 1-.9-2.9 6.05 6.05 0 0 0-1-2.2 9 9 0 0 0-1.2-1.9m-17.9 53.5a81.37 81.37 0 0 1-3.9 8.9c-.2.5-.8 1.5-1.7 3.1a7.75 7.75 0 0 0-1.3 3.3 2.08 2.08 0 0 1-1.4 1.9 3 3 0 0 0-1.3.9 1.46 1.46 0 0 0-.5 1.3 2 2 0 0 1-.5 1.9c-.6.8-.6 1.3 0 1.7a1 1 0 0 0 .9.2.91.91 0 0 0 .6-.9 5.87 5.87 0 0 1 .7-1 1.06 1.06 0 0 0 .1-1.3 3.63 3.63 0 0 0 1.2-.5.91.91 0 0 0 .2-1.3c1.8-.5 2.4-1.6 1.8-3.2a2.05 2.05 0 0 0 1.5-1.7c.3-1.1.7-1.8 1.2-1.9a1.08 1.08 0 0 0 .6-.8 44.83 44.83 0 0 0 2.9-5.8c.8-1.5 1.4-2.7 1.9-3.5a7.37 7.37 0 0 0 .9-3.9 1.13 1.13 0 0 1 .4-.6 8.68 8.68 0 0 0 2.2-3.8c.5-1.9 1-3.3 1.3-4.2a89.78 89.78 0 0 0 2.6-8.9c.4-1.6.6-2.8.8-3.5a12.28 12.28 0 0 0 .3-3.7 25.64 25.64 0 0 1 .2-5.3c.3-1.1-.3-1.8-1.7-2.2-.5-.1-.8 0-.9.4 0 .2-.1.6-.1 1.2s-.2.7-.2.8a6.72 6.72 0 0 0-1.2 3.1c-.1.7-.3 1.8-.5 3.2 0 .2-.1 1.3-.1 3.1a7.14 7.14 0 0 1-.6 3.1 9.49 9.49 0 0 0-.9 2.1 3.58 3.58 0 0 0 0 2.5 2.28 2.28 0 0 0-.8 1.2c-.1.3-.2.8-.4 1.5 0 .2-.3 1.3-.6 3.2a6.3 6.3 0 0 1-1.2 3.1 14 14 0 0 0-1.4 3c-.3.8-.6 1.9-1.1 3.3m-54.3 3.9c-.4.4-1 .9-1.7 1.6a4.79 4.79 0 0 0-.9 2.1 18.3 18.3 0 0 0 .5 4.3c.2 1 .5 2.4 1 4.3a9.07 9.07 0 0 0 1.4 3.1c.4.7 1.1 1.7 1.9 3a1 1 0 0 0 1.2.6.54.54 0 0 0 .4-.4 3.54 3.54 0 0 1 .1-.6 3 3 0 0 0-.4-2.4c-.6-1.4-.9-2.1-.9-2.2a23.77 23.77 0 0 0-1.4-5.6 11.58 11.58 0 0 1-.7-3.7 21 21 0 0 0-.5-4.1m25.8-16a4 4 0 0 0-.9 2.2 10.8 10.8 0 0 1-1.3 4.3 24.43 24.43 0 0 0-1.6 4.1l-.1.1a2.15 2.15 0 0 1-.9 1.3 1.24 1.24 0 0 0 .2 1.6c.1.1 0 .4-.5.8a11.14 11.14 0 0 0-.9 2.2c0 .2-.2 1.2-.5 3a11.05 11.05 0 0 1-.7 3 1.61 1.61 0 0 0 .8 2c.5-.2.8-.4.7-.7a4.91 4.91 0 0 1 .9-3.2 7.23 7.23 0 0 0 1.2-3.1 6.82 6.82 0 0 1 .9-2.2 2.32 2.32 0 0 0 .1-2.4c.2-.3.3-.6.4-.7a51.76 51.76 0 0 0 2.4-6.2 22.09 22.09 0 0 1 .9-3.7 12.69 12.69 0 0 1 1.5-3.5c.4-.4.5-.7.1-.9-.6-.3-1.1-.3-1.3.1a10.15 10.15 0 0 0-1.4 1.9m23.2-17a4.5 4.5 0 0 1-.8 1.9 11.34 11.34 0 0 0-.8 1.9 27 27 0 0 1-1.9 5.3c-2.1 5.4-3.2 8.5-3.4 9.1q-.3 1.2-1.8 5.4a38.05 38.05 0 0 0-1.6 5.5 6.25 6.25 0 0 1-.4 1.4 1.93 1.93 0 0 1-.9 1.2 1.82 1.82 0 0 0-.9 1.9 7.39 7.39 0 0 1-.2 1.2 3.46 3.46 0 0 0-.3 1.2 9 9 0 0 1-1.4 3.2 4.3 4.3 0 0 0-.5 3.4l-.1.1a8.19 8.19 0 0 0-1.4 3.7 30.94 30.94 0 0 0-.7 3.4 8.13 8.13 0 0 0 .4 3.8c2.1-5.4 3.1-8.2 3.2-8.4l.9-3a8.11 8.11 0 0 1 1.3-2.8 19.1 19.1 0 0 0 1.7-3.9l.4-1.6a3.75 3.75 0 0 1 .5-1.4 22 22 0 0 0 1.4-3 17.76 17.76 0 0 1 1.2-3 13.11 13.11 0 0 0 .9-2.8 11.87 11.87 0 0 1 .9-2.7 81.86 81.86 0 0 0 5.8-14.7 80.55 80.55 0 0 1 4.2-10.9c.5-1.1 1-2.6 1.7-4.4.8-2.3 1.3-3.7 1.6-4.5a50.21 50.21 0 0 1 4.5-8.1 2.3 2.3 0 0 0 .3-.9l-.6-.6a1.37 1.37 0 0 0-1.9.4 12.07 12.07 0 0 0-2 2.9 28.74 28.74 0 0 1-1.7 3 65 65 0 0 0-4.2 9c-.3.9-.9 2.1-1.7 3.8a8.89 8.89 0 0 0-1.7 4m-8.4 0a3.83 3.83 0 0 0 .5-1.1 1.18 1.18 0 0 1 .9-.9l.2-.4a.6.6 0 0 0-.7-.4 3.48 3.48 0 0 0-2.2 1c-.5.6-2.1 2.3-4.8 4.9a17.57 17.57 0 0 0-4 5.5 2.88 2.88 0 0 1-.4.6q-.15.3.3.6a1 1 0 0 0 .9.1.55.55 0 0 0 .4-.6 3.15 3.15 0 0 1 1.4-2.2 18.64 18.64 0 0 0 2.1-1.4 27.82 27.82 0 0 0 2.7-2.9 30.52 30.52 0 0 0 2.7-2.8m6.4-16.3a2.69 2.69 0 0 0-1.8 1.3 3.37 3.37 0 0 1-2.3 1.7 5 5 0 0 0-2.8 1.7 8.6 8.6 0 0 1-2.1 1.3 4.4 4.4 0 0 0-1.9 1.2 13 13 0 0 1-3.8 3.2c-3.3 1.7-7.1 4.8-11.3 9.2a5.65 5.65 0 0 0-.8 1.6 2.1 2.1 0 0 1-1.1 1.3 8.09 8.09 0 0 0-2.7 3 6.45 6.45 0 0 0-.6 1.4 6.45 6.45 0 0 1-.6 1.4 31.66 31.66 0 0 0-3.7 5.6 8.77 8.77 0 0 1-1 1.7 1.5 1.5 0 0 0 .1 1.9 4.56 4.56 0 0 1-.4.8l-1.2 2.7q-.75 1.8 1.2 1.5c.6 0 .9.2.8.5s-.1.6-.2 1.4a2.14 2.14 0 0 1-.4 1.2 4.9 4.9 0 0 0-.4 4.7l.2 1.3c0 .1.1 1 .3 2.4a11.05 11.05 0 0 0 .5 2.4c.2.7.6.9 1.1.6a24.08 24.08 0 0 0 1.1-4.4.72.72 0 0 0-.6-.4c-.6-.1-.7-.4-.2-.9a2 2 0 0 0 .1-1.9 2.67 2.67 0 0 1-.2-1.4 20 20 0 0 0 .7-3.8 13.54 13.54 0 0 1 .6-3.8c.1-.5.2-1.2.3-2.2a6.08 6.08 0 0 1 .3-2.2 15.94 15.94 0 0 1 3.7-6.2 1.82 1.82 0 0 0 .7-1 1.71 1.71 0 0 0-.8-1.2 2.22 2.22 0 0 0 2.2-1.8 1.62 1.62 0 0 1 .9-1.1 12.26 12.26 0 0 0 4.4-5c1.2-2.4 3.6-4.5 7.1-6.4a49.46 49.46 0 0 1 5.4-2.5 9.89 9.89 0 0 0 2.8-1.9c1.4-1.2 2.3-2 2.6-2.2a6.42 6.42 0 0 0 1.1-.5 3.51 3.51 0 0 0 .9-.7 15.52 15.52 0 0 0 2-2.7 15.42 15.42 0 0 1 2.1-2.8 7.52 7.52 0 0 0-2.3 0m2.1-7.6c-1.9.7-3.3 1.2-4.2 1.6a29.25 29.25 0 0 0-4.2 1.8q-.9.45-3.3 1.5a25.76 25.76 0 0 0-3.3 1.6c-.1.1-.5.4-1.1 1a2.54 2.54 0 0 1-1.4.8 3.8 3.8 0 0 0-1.8.6c-.7.4-1.2.7-1.6.9-4 2.4-7 4.2-9.1 5.3-1.2.5-2 .8-2.7 1.1a7 7 0 0 0-2.4 1.5 3.26 3.26 0 0 0-.6 1.2 1.13 1.13 0 0 1-.7.9 4.76 4.76 0 0 0-2.5 2.2c-.4.6-.9 1.6-1.6 2.8a6.49 6.49 0 0 1-.9 1.1 2 2 0 0 1-1.4.5 1.82 1.82 0 0 1 .7 1 2.11 2.11 0 0 1-.4 1.1c-1.1 1.5-2.4 3.9-4.2 7.1a1.21 1.21 0 0 0-.1 1.4 3 3 0 0 0 1 .9.94.94 0 0 0 1.1.2 3.63 3.63 0 0 0 .9-.7 9.13 9.13 0 0 0 2.2-2.8c.7-1.4 1.2-2.5 1.6-3.2a47 47 0 0 0 2.2-4.7q1.2-4.2 3-5.7c2.7-2.2 6.3-4.7 10.7-7.6a17.16 17.16 0 0 1 5.3-2.7 32.42 32.42 0 0 0 4-1.4q1.35-.6 3.9-1.8a46.28 46.28 0 0 0 4.2-2.2 29.35 29.35 0 0 1 4.2-2.2 21.24 21.24 0 0 0 3.2-1.7 1 1 0 0 0 .7-1.3 1.11 1.11 0 0 0-1.4-.1m-56.4 38.1c.3-.7 1.1-2.5 2.4-5.5a45.88 45.88 0 0 1 2.5-5.3 2.22 2.22 0 0 0 .1-.9 7.22 7.22 0 0 1 1.7-3.7c1.3-1.9 2.1-3 2.2-3.2a.55.55 0 0 1 .5-.4 18.3 18.3 0 0 0 5.8-4c1-.9 2.6-2.5 5-5a55.45 55.45 0 0 1 5.2-5 49.52 49.52 0 0 1 7.9-5.1 4.88 4.88 0 0 0 1.2-.8 2.65 2.65 0 0 1 1.4-.5 9.89 9.89 0 0 0 2.6-.9 5.11 5.11 0 0 1 2.7-.6.42.42 0 0 0 .4-.4 2 2 0 0 1 1.8-.9 19.3 19.3 0 0 0 3.1-.9 9.88 9.88 0 0 1 4.7-1 15.7 15.7 0 0 0 6.8-1.6 4.19 4.19 0 0 1 2.3-.5 9.47 9.47 0 0 0 9.9-5.3c.4-.6.2-.9-.5-.9-.9-.1-1.4.1-1.6.6a1.42 1.42 0 0 1-.8.9c-.1 0-.4.2-1 .4a13.89 13.89 0 0 0-1.9.6c-1.6.8-2.5 1.2-2.7 1.3a5.48 5.48 0 0 1-3.1.1 1.67 1.67 0 0 0-1.2.1 8.25 8.25 0 0 1-2.8 1c-1.5.3-2.5.6-3 .7a61.44 61.44 0 0 1-6.4 1.9c-2.9.8-5 1.4-6.4 1.9a2.25 2.25 0 0 1-1.4.5 7.92 7.92 0 0 0-4 .9 20.81 20.81 0 0 1-3.7 1.8 8.69 8.69 0 0 0-2.2 1.1c-1 .6-1.8 1-2.2 1.2a5.86 5.86 0 0 0-2.2 1.4 17.81 17.81 0 0 1-6.3 3.7 1.25 1.25 0 0 0-.9.5.33.33 0 0 0 .3.4.55.55 0 0 1 .5.4 32.11 32.11 0 0 1-4.6 3.4 13.81 13.81 0 0 0-4.2 3.2 42 42 0 0 0-3.1 4.1 38.29 38.29 0 0 0-2.8 5.2 22.83 22.83 0 0 1-3.2 5l-.2.6a13.76 13.76 0 0 1-1.5 4.5 20.11 20.11 0 0 0-1.8 4.4c-.2.8-.6 2-1.1 3.7a10.76 10.76 0 0 0-.5 3.8c.1 1.2.1 2.6.1 4.4l-.1 4.4a25.2 25.2 0 0 0 2.7 11.7 14 14 0 0 1 1.3 3.5 18.2 18.2 0 0 1 .4 3.2 3 3 0 0 0 2.4 2.2c.1 0 .2.2.2.6a5 5 0 0 0 .4 1.9 9.39 9.39 0 0 1 .7 1.9 2.38 2.38 0 0 0 1.2 1.3 6.28 6.28 0 0 1 1.4 1.2c.1.1.2 0 .4-.1q.3-.45.6-.3a3.44 3.44 0 0 0 .8 1.8 15.59 15.59 0 0 0 1.5 1.6 6.14 6.14 0 0 1 1.4 1.7 10.38 10.38 0 0 0 1.7 2 10.3 10.3 0 0 1 1.5 2 9.13 9.13 0 0 0 2.5 3 4 4 0 0 1 1.8 2.8 1.2 1.2 0 0 1-.8 1.4 3.63 3.63 0 0 0-1.2.5l.5.2a2.25 2.25 0 0 1 1.4.4 2.43 2.43 0 0 1-.5 1.4l-.3.5a.66.66 0 0 0-.1.6 2.48 2.48 0 0 1-.4 2.7 1.4 1.4 0 0 0 .2 1.8 1.14 1.14 0 0 0 .8.3.91.91 0 0 0 .8-.4 3.77 3.77 0 0 1 1.4-.6 3.22 3.22 0 0 0 1.3-.8.62.62 0 0 1 .9-.1l.8.8a.25.25 0 0 1-.1.4 1.55 1.55 0 0 0-.6.3 3.15 3.15 0 0 0-1.4 2 5.06 5.06 0 0 0-.2 2.7.94.94 0 0 0 .6.9.78.78 0 0 0 .9-.4 5.68 5.68 0 0 1 1.4-1.1 12.71 12.71 0 0 0 1.5-.9 1 1 0 0 1 .9-.3 1.54 1.54 0 0 1 .4.6 2.87 2.87 0 0 1 .2 1.2c.4 1.5 1 2.3 1.7 2.4a.56.56 0 0 0 .7-.6v-1.2a1.3 1.3 0 0 1 .9-1 1.39 1.39 0 0 1 1.4.1 2.56 2.56 0 0 1 1.3 1.4 10.72 10.72 0 0 1 .6 1.7q.15.75.6.6a.51.51 0 0 0 .5-.4c0-.1.2-.5.5-1.3a1.39 1.39 0 0 0-.1-1.4 1.67 1.67 0 0 1 0-1 9.11 9.11 0 0 0 .3-1.6 4.18 4.18 0 0 0-.1-1.4.66.66 0 0 1-.3-.7c.1-.2.2-.3.4-.2a1.09 1.09 0 0 1 .5.1c1.3.1 2.1.2 2.2.2a6.05 6.05 0 0 0 2.4-.4l-.9-.3c-.4 0-.8.1-1 .1a.61.61 0 0 1-.7-.6 1.28 1.28 0 0 1 .4-1 7.37 7.37 0 0 1 1.1-.6 10.61 10.61 0 0 1 2.2-.6 5.25 5.25 0 0 0 2.1-.6 1.25 1.25 0 0 1 1.6.4c.9 1.2 2.2 1.5 3.9.8a19.14 19.14 0 0 1 5.7-.6 28.66 28.66 0 0 0 8.5-1 30.23 30.23 0 0 1 6.6-1.2 28.36 28.36 0 0 0 7.1-1.9 35 35 0 0 0 3.5-2.1c.3-.1 1.4-.6 3.1-1.2a11.09 11.09 0 0 0 2.9-1.6 6 6 0 0 0 .8-1.3 1.76 1.76 0 0 1 1.3-.9c-.9-.6-1.5-.6-1.8-.2a2.55 2.55 0 0 1-1.2.8c-.1 0-.6.2-1.4.4a17.46 17.46 0 0 0-3.7 1.2q-2.4 1.05-3.6 1.5c-3 1.1-5.1 1.8-6.2 2.1a14.43 14.43 0 0 1-6.5.2 1 1 0 0 0-1 .1 1.8 1.8 0 0 1-1.5.7c-.8-.1-1.3-.2-1.7-.2a1.57 1.57 0 0 1-1.4-.7c-.2-.3-.2-.5.1-.6a1.65 1.65 0 0 0 .9-.5 1 1 0 0 1 .9.1c.6.4 1.1.4 1.4-.2a2.57 2.57 0 0 1 1.4-.8 28.67 28.67 0 0 1 6.1-1.2q-1.65-1.05 0-1.5l2.7-.3h.6c.2 0 .3-.2.2-.5a.93.93 0 0 1 .9-1.1 17.14 17.14 0 0 0 5.3-1.8c.3-.1.7-.2 1.3-.4a1 1 0 0 0 .3-1.3c0-.2.2-.4.7-.4a1.51 1.51 0 0 0 1.3-.9 63.24 63.24 0 0 1 5-6.4 10.28 10.28 0 0 0 1.4-1.7 2.24 2.24 0 0 1 2.2-.7c.4.1.6 0 .5-.4a5.38 5.38 0 0 0-.1-.8.5.5 0 0 1 .6-.4 1.57 1.57 0 0 1 1.4 1.1 2.76 2.76 0 0 0 1.7 1.5c.2.1.5.2.9.4a.73.73 0 0 0 .9-.2.45.45 0 0 0-.2-.7.67.67 0 0 1-.4-.7 1.73 1.73 0 0 0 1.2-.6 4.88 4.88 0 0 0 1.2-.8l.4-.2a.36.36 0 0 0-.1-.5.68.68 0 0 1-.4-.3c-.2-.1-.1-.3.1-.5a.64.64 0 0 1 .9.3 1.94 1.94 0 0 0 1.3.6 1.31 1.31 0 0 0 1.2-.7 8.08 8.08 0 0 0 .9-2.2 2.62 2.62 0 0 1 1.7-1.7l.4-.7a12.07 12.07 0 0 0 1.2-5.8 14.63 14.63 0 0 1 .9-3.8 10.14 10.14 0 0 0 .5-4 19.32 19.32 0 0 1 0-3.5 11.91 11.91 0 0 0-.4-3.6 11.2 11.2 0 0 1-.2-3.6v-2.7a3.49 3.49 0 0 0-1.2-2.4l-.2-.4a.77.77 0 0 1-.1-.3 1.41 1.41 0 0 0 .4-1.7 1.6 1.6 0 0 1 .1-1.7c.2-.2 0-.4-.4-.6s-.7-.5-.4-.7a.94.94 0 0 0 .4-.9 4.35 4.35 0 0 0-.6-.7 4.42 4.42 0 0 1-.7-1.9 30.94 30.94 0 0 0-2.9-7.8 7.31 7.31 0 0 1-1.3-3 4.8 4.8 0 0 0-1.5-2.9 11.17 11.17 0 0 1-2.7-3.6 20.16 20.16 0 0 0-2.5-3.7l-.1-.3a3.29 3.29 0 0 0-.4-1.7c-.1-.1-.5-.6-1.1-1.4a33.37 33.37 0 0 1-2.6-5 15.91 15.91 0 0 0-3.1-4.8 3.34 3.34 0 0 1-.6-2.3 3.4 3.4 0 0 0-.7-2.5c-.1-.1 0-.3.2-.6a2.92 2.92 0 0 0 0-1.9 2.19 2.19 0 0 1 .4-1.9 3.17 3.17 0 0 1-.7-2.3 11.69 11.69 0 0 0-.1-2.4 2.6 2.6 0 0 0-.8-1.2 1.11 1.11 0 0 0-1.5.7 6.64 6.64 0 0 0-.7 3v3a23.1 23.1 0 0 0 2.7 11.2c.3.7.9 1.9 1.6 3.7a23 23 0 0 0 1.7 3.5c.2.3.6.8 1.1 1.4a3.43 3.43 0 0 1 .7 1.7 11.7 11.7 0 0 0 1.2 3.6q.6 1.2 1.8 3.3a31 31 0 0 1 3.5 9.7c.1 1 .6 3.6 1.4 7.9a46.2 46.2 0 0 1 .9 8 13.58 13.58 0 0 0 .5 2.2 4.07 4.07 0 0 1 0 2.2 17.89 17.89 0 0 0-.5 4.1 23.51 23.51 0 0 1-.8 4c-.2.9-.6 2.2-1.2 4a13.42 13.42 0 0 1-.9 2.6 22.3 22.3 0 0 0-.6 2.6 7.83 7.83 0 0 1-2 5.1 7.82 7.82 0 0 0-.8 1 1.07 1.07 0 0 0 .6 1.1 1.27 1.27 0 0 1-.9.4 1.55 1.55 0 0 0-.8.2s.2.4.5.9.2.6-.1.7a2.36 2.36 0 0 0-1.4 1.2 7.63 7.63 0 0 1-1 1.5 4 4 0 0 1-1.4.9 2.33 2.33 0 0 0-1.2 1.2 4.48 4.48 0 0 1-1.4 1.3 21.12 21.12 0 0 1-2.7 1.7 8.93 8.93 0 0 1-3 1.4 23.79 23.79 0 0 0-3.8 2c-.8.5-2 1.3-3.7 2.4-.5.3-1.4.7-2.9 1.4a26.69 26.69 0 0 0-2.7 1.5 12.26 12.26 0 0 1-5.8 2.1 41.44 41.44 0 0 0-4.4.6 28.1 28.1 0 0 1-4.9 1.3c-2.7.6-4.3.9-4.9 1.1a39 39 0 0 0-4.2 1.1 9.92 9.92 0 0 0-3.7 2 19.78 19.78 0 0 1-3.5 2.4 8.37 8.37 0 0 1-1.2.1 1.25 1.25 0 0 0-1.1.6 5.13 5.13 0 0 0 3 .8q-.3 1.5-1.5 1.2a13.39 13.39 0 0 1-5.5-1.3 1.75 1.75 0 0 0-1.2.1c-1.1.6-1.7.3-1.7-.9a.67.67 0 0 0-.7-.8c-1.5.2-2.3-.5-2.4-2.2a.89.89 0 0 0-.6-.8 3.06 3.06 0 0 1-1.9-3.2 4.78 4.78 0 0 0-1.9-3.5 1.43 1.43 0 0 1-.6-1.2c.1-.7-.1-1-.6-1a2.3 2.3 0 0 1-1.3-1.2 1.42 1.42 0 0 0-1.7-.8l-.1-.4a11.32 11.32 0 0 0-2.4-4.2l-3.5-3.2-.6-.6a1.25 1.25 0 0 1-.1-.9 6.93 6.93 0 0 0-.2-4.1l-.6-1.2a1.08 1.08 0 0 0-1.5 0c-.3.1-.5.1-.6-.1a.62.62 0 0 1 .1-.7 1.86 1.86 0 0 0-.1-1.9 1.74 1.74 0 0 0-1.1-1 2.07 2.07 0 0 1-1.3-1.1c-.2-.7-.4-1.2-.5-1.5a8.78 8.78 0 0 1-.4-2c0-1.2-.1-1.8-.1-2.1-.5-3.1-.8-5.5-1-7.1a34.92 34.92 0 0 1-.2-7.1 20.73 20.73 0 0 1 2-9.1m48.7 59.4l2-.3c.9.1 1.3.4 1.2.7a.4.4 0 0 1-.5.4 7.35 7.35 0 0 0-.8-.2 4.65 4.65 0 0 0-1.8.2c-.4.1-.6 0-.6-.4-.1-.1.1-.3.5-.4m5.1 0c0-.5.3-.7 1-.6.2 0 .5.1.8.1a.63.63 0 0 1 .5.5.4.4 0 0 1-.4.5h-.7a3.2 3.2 0 0 1-.7-.1.46.46 0 0 1-.5-.4z" class="cls-3" data-name="Layer0 12 FILL" fill="#231f20"/></svg>
