<svg id="dal__ginger" xmlns="http://www.w3.org/2000/svg" data-name="dal__ginger" viewBox="0.007 0 121.813 92.404"><g data-name="Layer1 6 FILL"><path d="M63.35 30.9a17.24 17.24 0 0 0-4.9 3.1c-3.4-1.3-5.1-2-5.1-2-2.7 1.2-3.1 2.9-1.3 5.1 1.5 1.8 4.3 3.9 8.6 6.2a86.74 86.74 0 0 0 11.2 5c.6.2 1.2.4 1.7.6l2.2.7a.35.35 0 0 1 .2.1c.3.4.6.8 1 1.3a54.88 54.88 0 0 0 10.8 9.1 96.17 96.17 0 0 0 13.5 7.9c4.5 2.2 7.4 3.1 8.5 2.6a3.6 3.6 0 0 0 1.4-1.1c0-.1.1-.1.1-.2a3.24 3.24 0 0 0 .2-3.3c-.4-.8-3.7-3.1-9.9-6.8a3.17 3.17 0 0 0 .1-3c-1.8-4-7.3-8-16.6-12-2.4-1-4.7-1.9-6.9-2.6-1.1-.3-2.1-.7-3.1-.9-.7-.2-1.3-.3-1.9-.5-1.6-.8-3.5-1.6-5.6-2.6a10.91 10.91 0 0 0 1.1-.6c1.7-1.2 2.1-2.7 1.2-4.7a3.25 3.25 0 0 0-3.8-2.2 15.43 15.43 0 0 0-1.7.5 2.61 2.61 0 0 0-1 .3m-50.8-18.1h-.3l-2.5.2a3.13 3.13 0 0 0-1.9 2c-.1.3-.1.6-.2.8a3.29 3.29 0 0 0 .4 1.7q1.65 3.15 6.3 2.7a62.41 62.41 0 0 0 10.3-.9c1.8-.3 5.7-.6 11.8-1.1 5.6-.4 8.5-.6 8.6-.7a6.18 6.18 0 0 0 2-1.5 3.35 3.35 0 0 0 .6-2.4c1-.4 2-.7 3.1-1.1 2.9-1.1 4.7-1.7 5.3-2a19.48 19.48 0 0 0 2-.9 19.91 19.91 0 0 0 5.2 1.8q1.5.6 7.5 3.6a25.72 25.72 0 0 0 2.7 1.1 10.47 10.47 0 0 0-.5 3c-.1 1.7.3 2.8 1 3.3s2.1.5 3.9-.3a4.93 4.93 0 0 0 2.5-2.2 4.56 4.56 0 0 0 .1-4.4c-.1-.3-.3-.6-.4-.9a2.88 2.88 0 0 0-.1-2.7c-.8-1.9-4.1-3.7-9.7-5.4-.6-.2-1.3-.4-2-.6-2.5-.7-4.9-1.3-7.2-1.7-.1 0-.3-.1-.4-.1a1.7 1.7 0 0 0-.6-.6c-1.7-1.3-5.5-1.2-11.4.4-1.9.5-4 1.1-6.2 1.9-.4.1-.7.3-1.1.4-1.6.6-2.8 1-3.5 1.3a8.84 8.84 0 0 0-3 2.1 3.8 3.8 0 0 0-1 1.7c-1.8.1-3.7.1-5.9.3l-10.9.8-4.3.3c0 .1-.1.1-.2.1" class="cls-1" fill="#d2a877"/><path d="M67.75 4.6c-2-2.1-3.7-2.9-5.2-2.3a12.85 12.85 0 0 1-2.5 1.4l.6.6a2.27 2.27 0 0 1 .4.1 62.53 62.53 0 0 1 7.2 1.7c.7.2 1.4.4 2 .6a15 15 0 0 1-2.5-2.1m-39.7 7.1l5.9-.3a3.43 3.43 0 0 1 1-1.7 8.84 8.84 0 0 1 3-2.1c.7-.3 1.8-.7 3.5-1.3.4-.1.7-.3 1.1-.4a.37.37 0 0 0-.3.1 15.34 15.34 0 0 0-4.2 1.5c-1.7.9-2.9 1.6-3.6 1.9a16.77 16.77 0 0 1-9.2 2 27 27 0 0 0-3.4-.2 15.14 15.14 0 0 0-4.3 1.1c-.1 0-.1.1-.2.1l10.7-.7m64.5 74.5c.2-.1.5-.2.7-.3l2.4 1.2a29 29 0 0 0 5.4 1.9c.1 0 .1.1.2.1a32.48 32.48 0 0 0 8 2.4c2.9.5 5 .5 6.2-.1.1 0 .4-.2 1-.4a13.13 13.13 0 0 0 1.7-.9 3.12 3.12 0 0 0 1.4-2.8l.3-.3c1.6-1.8 1.8-4.1.6-6.8-1.6-3.7-4.8-7.4-9.4-10.9a3 3 0 0 1-1.4 1.1c-1.1.5-3.9-.4-8.5-2.6a107 107 0 0 1-13.5-7.9c-5-3.5-8.6-6.5-10.8-9.1a11.32 11.32 0 0 1-1-1.3.2.2 0 0 1-.2-.1l-2.2-.7c-.5-.2-1.1-.4-1.7-.6a86.74 86.74 0 0 1-11.2-5c-4.2-2.3-7.1-4.3-8.6-6.2-1.8-2.2-1.4-3.9 1.3-5.1 0 0 1.7.7 5.1 2a14.26 14.26 0 0 1 4.9-3.1 2.77 2.77 0 0 0 .7-.4 6.4 6.4 0 0 1 1.7-.5 3.24 3.24 0 0 1 3.8 2.2c.9 2 .5 3.5-1.2 4.7a10.91 10.91 0 0 1-1.1.6c2.1.9 4 1.8 5.6 2.6a18 18 0 0 1 1.9.5l3.1.9a31.61 31.61 0 0 1-1.8-2.7c-2.1-3.1-3.6-5.2-4.4-6.3-2.8-3.5-5.7-5.1-8.5-4.7.2-.1.4-.3.6-.4a25.42 25.42 0 0 1 4.8-3.2 33.47 33.47 0 0 1 3.9-1.2 8.33 8.33 0 0 1 1.5-.4c-.7-.5-1.1-1.6-1-3.3a10.47 10.47 0 0 1 .5-3c-.8-.3-1.7-.7-2.7-1.1q-6-2.85-7.5-3.6a19.91 19.91 0 0 1-5.2-1.8 12.93 12.93 0 0 1-2 .9c-.6.3-2.3.9-5.3 2-1.1.4-2.1.8-3.1 1.1a2.7 2.7 0 0 1-.6 2.4 4.26 4.26 0 0 1-2 1.5c-.1 0-3 .3-8.6.7-6.1.4-10 .8-11.8 1.1a75.54 75.54 0 0 1-10.3.9c-3.1.3-5.2-.5-6.3-2.7a3.81 3.81 0 0 1-.4-1.7 22.26 22.26 0 0 0-3.7 2.7c-1.5 1.6-1.3 3.3.9 5.1a17.18 17.18 0 0 0 3 2c.6.3 1.3.7 2.2 1.2a10.19 10.19 0 0 0 1 4.7 42.68 42.68 0 0 0 5.5 9c-1.4.8-2.1 1.5-2.2 2.2s.6 1.5 1.9 2.3c.8.5 2.1 1.3 4 2.3a7 7 0 0 1 3 2.9 4.28 4.28 0 0 1-.2 1.7 4.48 4.48 0 0 0 .1 2.6q.75 1.65 6.9 5.7c2.1 1.4 4.2 2.7 6.4 4a21.73 21.73 0 0 1 3.3 3.1 22.57 22.57 0 0 0 3.2 5.8c2.2 2.6 8.4 8.3 17.9 12.5 9.7 4.4 31.8.6 31.8.6z" class="cls-2" fill="#ebc294"/></g><path d="M112.15 76.2l1.2-.2a4.33 4.33 0 0 1 .5-.1c.2 0 .2-.1.2-.4a.7.7 0 0 0-.9-.4 4.12 4.12 0 0 1-.8.3 1.1 1.1 0 0 1-.8 0c-.1-.1-.2.1-.3.4a.67.67 0 0 0 .9.4m-2.5-3.4a1.1 1.1 0 0 1-.5.5 10.9 10.9 0 0 0 3.9-.2c.5-.1.6-.3.4-.6-.5-.5-.9-.6-1.1-.3a1.51 1.51 0 0 1-1.9.4.72.72 0 0 0-.8.2m-3.1 1.3a.63.63 0 0 0 .8-.4.42.42 0 0 1 .4-.3l.6.1c.2 0 .3-.1.3-.4s-.2-.3-.5-.3a2.81 2.81 0 0 1-.8.1l-.3.1a.7.7 0 0 1-.4.2.42.42 0 0 0-.3.4 1.06 1.06 0 0 0 .2.5m-41.7-59.6a4.87 4.87 0 0 0 .7-.3c.2-.1.2-.3.1-.6 0 0-.2-.3-.5-.8a2.71 2.71 0 0 0-.3.8.91.91 0 0 1-.7.3.31.31 0 0 0-.2.1.37.37 0 0 0-.1.3c-.1.3 0 .4.4.3a2.8 2.8 0 0 0 .6-.1m4.1 29.9a.37.37 0 0 0 .2-.5c0-.2-.2-.2-.6-.2a.54.54 0 0 0-.4.5 2.57 2.57 0 0 1-.2.5c.2.4.3.4.5.2a.79.79 0 0 1 .5-.5m-24-20.4a.75.75 0 0 1-.6-.7q0-.15-.3 0a.52.52 0 0 0-.2.4 2.94 2.94 0 0 0 1.3 2 3 3 0 0 0 2.2.9c.2-.1.4 0 .5.3a3.8 3.8 0 0 0 .9 1l.9.9c.3.6.9.6 1.9.1l-.6-.6a.6.6 0 0 0-.8 0 .19.19 0 0 1-.3 0 .1.1 0 0 1-.1-.1.76.76 0 0 0-.1-1 3.22 3.22 0 0 1-.7-.4 24.81 24.81 0 0 0-3.1-2.6 8.14 8.14 0 0 0-.9-.2m30.7 57.4a.68.68 0 0 0-.4-.6.66.66 0 0 0-.7-.2c-.3.1-.3.2-.2.4l.2.5a4 4 0 0 0 1.5 3.5.43.43 0 0 1 .3.3c.1.1.2.1.3-.1a.37.37 0 0 0 .1-.3c0-.1 0-.2-.1-.2a5 5 0 0 0-.5-1.8 4.11 4.11 0 0 1-.5-1.5m-12-3.4a6.16 6.16 0 0 0 1.8 2.3 4.33 4.33 0 0 0 2.4.9.82.82 0 0 0-.7-.7c-.5-.2-.7-.4-.6-.8a.28.28 0 0 0-.2-.3.37.37 0 0 1-.1-.3 3 3 0 0 0-.1-1.3 4.91 4.91 0 0 1-.3-1.2 12.26 12.26 0 0 0-.4-2.1 13.63 13.63 0 0 1-.4-2 9.59 9.59 0 0 0-.3-1.5 2.86 2.86 0 0 1 .1-1.6 1.32 1.32 0 0 0-.3-1.1 2.36 2.36 0 0 0-1.6-.9 1.75 1.75 0 0 1 .6 2.1 5.16 5.16 0 0 0 .3 2.3 11.18 11.18 0 0 1 .8 5.8.52.52 0 0 1-.2.4.89.89 0 0 0-.8 0m-28.5-60.5a1.13 1.13 0 0 1 .5-.4c.2-.2.2-.3 0-.6v-.4c0-.2 0-.3-.2-.3l-.4.8a1.42 1.42 0 0 0-.2.4.9.9 0 0 0-.1.5c0 .1.1.1.2.1a.2.2 0 0 0 .2-.1m-19.7 10.6a.75.75 0 0 1-.2-.7 2 2 0 0 0 1.5-.6 7.91 7.91 0 0 0 .8-1.3c.6-1.3 1.3-3.2 2.3-5.8a1.35 1.35 0 0 0 0-.9.91.91 0 0 1 .1-.8l-.3-.3a2.09 2.09 0 0 0-.6-.4c-.1-.1-.3.1-.4.4-1 1.8-1.8 3.2-2.3 4.2a11.44 11.44 0 0 0-1.1 4.6.46.46 0 0 1-.3.5l-.2.2a3.93 3.93 0 0 0-.2.6.62.62 0 0 0 .2.7q.45.45.6.3a.82.82 0 0 0 .1-.7m-6.4.3a1.38 1.38 0 0 0 .3-.4 17.58 17.58 0 0 1 1-2 8 8 0 0 0 .8-2.1 8.85 8.85 0 0 1 1.6-3 1.71 1.71 0 0 0 .5-1.1 1.91 1.91 0 0 0-.9-.9.81.81 0 0 0-1.2.1 6.39 6.39 0 0 1-.4 1 41 41 0 0 0-1.9 5.2 5.68 5.68 0 0 0-.6 2.1c-.3.7.1 1 .8 1.1m-1.2.3a.37.37 0 0 0-.3-.1.35.35 0 0 0-.2.1c0 .1 0 .8-.1 2 0 .2.1.2.5.2l.3-1.4a.86.86 0 0 0-.2-.8m44.4 47.6a5 5 0 0 1 1.9 1.6 7.13 7.13 0 0 0 1.8 1.5c1.2.7 1.9 1.1 2 1.2.8.6 1.8 1.2 2.9 1.9.7.4 1.7.9 3 1.7.4.3 1 .6 1.8 1.2a5.56 5.56 0 0 1 1.6 1.4 1 1 0 0 0 .9.4 3.53 3.53 0 0 1 2 .2c.4.1 1 .4 1.9.7a2.51 2.51 0 0 0 1 .1 1.49 1.49 0 0 1 1 .3l2.8.1a1.51 1.51 0 0 1 1.4-.1l3.7.6a12.1 12.1 0 0 0 5.2-.4c.4-.1 1.2-.3 2.3-.6a12.72 12.72 0 0 0 2.1-.7 2.55 2.55 0 0 1 2.4 0 7 7 0 0 1 1.8 1.2 37.34 37.34 0 0 0 6 2.6 3.77 3.77 0 0 0 2.4.4.59.59 0 0 1 .8.1 1.42 1.42 0 0 0 1.2.7 8.15 8.15 0 0 0 1.4-.4 3.1 3.1 0 0 1 3.1.2 1.69 1.69 0 0 0 .5.2.47.47 0 0 0 .5-.3 1.91 1.91 0 0 1 2-.7 2 2 0 0 0 .8-.3 4.71 4.71 0 0 1 2.6-1 3.37 3.37 0 0 0 2.6-1.2 22.19 22.19 0 0 0 1.6-1.9 3 3 0 0 0 .5-2.4 2.15 2.15 0 0 0-.2-1 9 9 0 0 1-1.1-2.4 14.4 14.4 0 0 0-.9-2.5l-.1-.4a2 2 0 0 0-.9-2.6 5.82 5.82 0 0 1-1.3-2.1 10.76 10.76 0 0 0-1.5-2.2c-1-1.2-1.6-1.9-1.7-2a2.49 2.49 0 0 0-.7-.5 8.11 8.11 0 0 1-.8-.6l-.5-.5a1.08 1.08 0 0 1-.3-.7.53.53 0 0 0-.2-.3l-.2-.2a1.27 1.27 0 0 1-1.4-.3 2.82 2.82 0 0 0-1.2-.9 3.65 3.65 0 0 1-1.4-.7c-.5-.4-.9-.8-1.2-1-1.2-.9-2-1.6-2.6-2.1a16.1 16.1 0 0 0-2.8-1.8l-.3-.3-2.3-3.2a9 9 0 0 1-1.7-3.4 7.53 7.53 0 0 0-2.3-3.7 11.62 11.62 0 0 0-3.7-2.1 2.17 2.17 0 0 1-.6-.7 1.46 1.46 0 0 0-.9-.6 1.38 1.38 0 0 0-1.1.1 2.75 2.75 0 0 1-1.2-.1c-.2-.1-.3-.1-.2-.3a.53.53 0 0 1 .2-.3c.2-.2.1-.4-.2-.4a3.65 3.65 0 0 1-1-.7 1.46 1.46 0 0 0-1.3-.5 1.42 1.42 0 0 1-.4-.2l-.4-.4c.1-.3.2-.4.5-.3a1.29 1.29 0 0 0 .7-.1 7.08 7.08 0 0 1-1.9-.8 14.29 14.29 0 0 1-1.8-.9 4.73 4.73 0 0 1-1.8-1 5.57 5.57 0 0 0-1.9-.9 4.75 4.75 0 0 1-1.9-1 16.77 16.77 0 0 1-2.6-3.8 12.33 12.33 0 0 1-.9-2.1 10.38 10.38 0 0 0-1-2.1 12.25 12.25 0 0 0-1.7-1.9.94.94 0 0 1 0-1.6 12.6 12.6 0 0 1 5-2.8q2-.6 2.1-.6a4.8 4.8 0 0 0 1.9-.9 10.68 10.68 0 0 0 3.9-5.6c.2-.7-.2-1.7-1-2.9a5.5 5.5 0 0 0-2.5-2.2l-3.7-1.4c-1.4-.6-2.6-1.2-3.6-1.7a4.89 4.89 0 0 1-1.3-1.2c-.4-.6-.7-1.1-.9-1.4a16.74 16.74 0 0 0-5.5-5.2 4.92 4.92 0 0 0-2-.3 4.39 4.39 0 0 1-1.9-.3 8.12 8.12 0 0 1-2.8 1.2l-3 .9c-1.3.6-2.2 1-2.8 1.3a11.23 11.23 0 0 1-3 .8 40.61 40.61 0 0 0-5.7.9c-.9.1-1.5.2-1.9.2a3 3 0 0 0-1.8.7h-.2a5.75 5.75 0 0 0-4.4 1.6 7.91 7.91 0 0 1-7.5 1.3 11.41 11.41 0 0 0-3.9-.3l-3.8.2c-.4.1-.7.2-1 .3a.7.7 0 0 1-.8-.6q0-.15-.3 0a1.42 1.42 0 0 1-.4.2c-.6.2-1.5.5-2.7 1a25.25 25.25 0 0 1-2.8 1 7.47 7.47 0 0 0-3.3 1.7c-.6.5-1.5 1.4-2.8 2.7a4.1 4.1 0 0 0-.9 2.3 5.33 5.33 0 0 1-.8 2.2 11.71 11.71 0 0 0-1.2 2.5l-.9 2.6a3.21 3.21 0 0 0-.2 1.7 16.83 16.83 0 0 1-.2 2c-.2.9-.3 1.6-.4 2a6.57 6.57 0 0 0 1.2 4.6 13 13 0 0 1 1.8 3.5 21.33 21.33 0 0 0 1.8 3.8c.5.8 1.3 1.9 2.4 3.4l1.6 2.2a15.77 15.77 0 0 1 1.4 2.3 1.76 1.76 0 0 0 1.3 1.2c.9.3 2.3.7 4.1 1.3a33.89 33.89 0 0 1 8.1 2.7 43.75 43.75 0 0 1 6.3 4.1c.8.6 1.4 3.3 1.7 3.7 2.1 2 20.5 13.1 20.5 13.1zm-13-10.6c-5.2-2.2-6.5-6.1-6.6-6.8s0-2 .1-3.5.1-2.8.1-3.5c0-2.2-.1-3.9-.1-5l-.3-5.2a.43.43 0 0 0-.5-.5h-.8a.33.33 0 0 0-.5.1 3.54 3.54 0 0 0-.1.6 8.41 8.41 0 0 0-.1 3.5 9.78 9.78 0 0 1 .2 2.6v2.6a2.18 2.18 0 0 0 .1.6.51.51 0 0 1-.4.5.53.53 0 0 0-.2.3c-.1.1 0 .2.1.3a2 2 0 0 1 .6 1.9 6.11 6.11 0 0 0 0 2c.1.3 0 .5-.2.5s-.3-.1-.5-.4a11.15 11.15 0 0 0-.9-1 2.13 2.13 0 0 0-1.2-.7 2.1 2.1 0 0 1-1.1-.8 2.46 2.46 0 0 1-.5-1.5 14.1 14.1 0 0 0-.7-3.6 1.24 1.24 0 0 0-1.7-.9 1.27 1.27 0 0 0-1.2 1.4c0 .3.1 1 .2 2.2a1 1 0 0 1-.2 1 .9.9 0 0 1-.9.1c-.6-.1-1.1-.3-1.4-.3a1.59 1.59 0 0 1-1.1-1c0-.1-.1-.1-.3-.1a1.34 1.34 0 0 0-.5-.1 10.3 10.3 0 0 0-2.7-.9 9 9 0 0 1-2.7-1 .65.65 0 0 1-.6-.5c-.3-.6-1-1.8-2.1-3.7a14.76 14.76 0 0 1-1.9-3.8 4.88 4.88 0 0 0-.8-1.2 3.78 3.78 0 0 1-.9-1.3 4.64 4.64 0 0 0-1.6-2.6.72.72 0 0 1-.2-.8 1.35 1.35 0 0 0 0-.9 4.14 4.14 0 0 0-.6-1.1 5.13 5.13 0 0 1-.5-1.2l-.3-2.6a7.44 7.44 0 0 1 .9-4.4c1.2-2.5 1.8-3.8 1.9-4a5.05 5.05 0 0 1 .8-1.3 5.29 5.29 0 0 0 .8-1.4 3.4 3.4 0 0 1 1.5-1.4c.5-.3.7-.6.4-1a.82.82 0 0 1-.2-1c.1-.1.4-.3.8-.6.2.2.2.4 0 .5a.45.45 0 0 0 0 .5.66.66 0 0 0 .6-.1 1.63 1.63 0 0 1 .6-.3q.75-.3 2.1-.9a9.83 9.83 0 0 1 2.2-.5c1.1-.1 1.7-.3 2-.8a.36.36 0 0 1 .6-.1 2.14 2.14 0 0 0 1.6 0 38.41 38.41 0 0 1 8-1 .78.78 0 0 1 1 .5.45.45 0 0 1 0 .5l-.3.4a4.68 4.68 0 0 1-1.2 1.6 4.68 4.68 0 0 0-1.2 1.6l-.2.2a3.93 3.93 0 0 1-.6.2c-.2.1-.2.3 0 .5s.6.1 1.1-.4a3.49 3.49 0 0 1 .9-.6c.4-.2.7-.5.9-.6a3.19 3.19 0 0 0 .7-.6 1.77 1.77 0 0 0 .5-.8 1.13 1.13 0 0 1 1.2-.7 1.92 1.92 0 0 0 1.8-1.2 2.19 2.19 0 0 0 .3-.5.28.28 0 0 1 .3-.2c1 .2 1.6 0 1.9-.9q.15-.3.6 0a.31.31 0 0 1 .2.5 2.69 2.69 0 0 0-.3 2.2 5.43 5.43 0 0 1 .3 2.2.55.55 0 0 0 .4.6c.3.1.4-.1.5-.5a7.22 7.22 0 0 0 .4-3c0-.3 0-.4.2-.5.6-.1.6-.4.1-.7-.2-.1-.1-.3.2-.6a3.81 3.81 0 0 0 .5-.6 1 1 0 0 0-.1-.9q-.15-.45.6-.6l2.8-.8q3.6-.75 4.2-.9a2.83 2.83 0 0 1 1.5-.2 4 4 0 0 1-1.1 2 1.36 1.36 0 0 0-.3 1.5 12.69 12.69 0 0 1 .6 1.6.66.66 0 0 0 .4.5 1.48 1.48 0 0 0 .7.1 8.52 8.52 0 0 0 3.7-2.1c.4-.4 1-.9 1.8-1.7a20.77 20.77 0 0 1 2-1.5l.7-.7a4.4 4.4 0 0 1 .1.9 1.4 1.4 0 0 1-.7.4 2.73 2.73 0 0 0-1 1.1 1.85 1.85 0 0 0-.4 1.4c.3.6.6.7 1.1.2a42.55 42.55 0 0 1 8.8-6.1 4.42 4.42 0 0 1 .8-.3c.6 0 .8.1.9.4a.86.86 0 0 1-.6 1 1.59 1.59 0 0 0-1.4 1.4.27.27 0 0 1-.3.3.67.67 0 0 0-.8.3 2.49 2.49 0 0 1-.5.7 2.22 2.22 0 0 1-.8 1c-.4.2-.4.6 0 1.1a10.4 10.4 0 0 0 1.5-1.5 3.23 3.23 0 0 1 1.9-1 1 1 0 0 0 .5-.7 1.34 1.34 0 0 1 .9-.9 2.09 2.09 0 0 0 1.1-.6c.1-.2.2-.1.4.3a21.61 21.61 0 0 1 1.7 2.6 1 1 0 0 1 .2 1.1 1.68 1.68 0 0 1-1 .6 2 2 0 0 0-.9.2q-.45.15 0 .9a.31.31 0 0 1-.2.5l-.6.3c-.2.2-.4.3-.5.4a.85.85 0 0 0 0 .7.6.6 0 0 0 .5.4 1.1 1.1 0 0 0 .6-.3 13.7 13.7 0 0 1 2.4-.7c.5-.1 1.4-.3 2.5-.5a7.78 7.78 0 0 1 3 .1 8.45 8.45 0 0 0 2.9.3.6.6 0 0 1 .6.3 5.92 5.92 0 0 1 .4.6 6 6 0 0 1 .7 1.4 5.71 5.71 0 0 0 .6 1.5.64.64 0 0 1 0 .6.54.54 0 0 1-.4.4 2.76 2.76 0 0 0-.9.7 8.91 8.91 0 0 1-.5 1 3.31 3.31 0 0 1-2 1.5 6.38 6.38 0 0 0-2.8 1.3 1.43 1.43 0 0 1-2 .2 1.58 1.58 0 0 0-1.5-.1 5 5 0 0 0-1.3.9 7.39 7.39 0 0 0-1.5 2.3 3.87 3.87 0 0 1-1.9 1.9 5.79 5.79 0 0 1-1.3.4 1.66 1.66 0 0 1-1.3-.5.66.66 0 0 0-1 0 .38.38 0 0 1-.2.2c-.1 0-.2 0-.2-.1q-.3-.9-.6-.6a6 6 0 0 1-.6.7 1 1 0 0 0-.7-1.2 7.17 7.17 0 0 1-1.3.1 10.76 10.76 0 0 0 5.3 2.2 1.46 1.46 0 0 1-.9.8 1.45 1.45 0 0 0-.7.2 13.33 13.33 0 0 1-3.2 1.2c-.7.1-1.9.2-3.5.3-1.2.1-2.5 0-3.7 0-.9 0-1.4-.1-1.7-.1a2.64 2.64 0 0 1-1.6-.7h-.2a2.66 2.66 0 0 1-2.4-.3 9.79 9.79 0 0 0-2.2-1.1 2.32 2.32 0 0 1-1.3-.8 4.07 4.07 0 0 0-1.1-1 4 4 0 0 0-1.3-.4 7.07 7.07 0 0 1-1.2-.2v.2c.1.3.4.4 1.1.3a.8.8 0 0 1 .9.9 1.06 1.06 0 0 0 .9.8c.7.3 1.1.5 1.3.6a24.55 24.55 0 0 0 3.7 2.6 8 8 0 0 0 4.3 1.8 2.18 2.18 0 0 0 1-.4 1.3 1.3 0 0 1 1-.2 10.07 10.07 0 0 0 3.1.1q.9-.15 3-.3a12 12 0 0 0 4.7-1.4 13.36 13.36 0 0 0 2.4-1.5.69.69 0 0 1 1.1.5c.1.1.1.4.3.8s-.1.5-.5.6l-5.3 1.3a6.47 6.47 0 0 1-1 .3 1.11 1.11 0 0 0-.7.9 1.56 1.56 0 0 0 1.5.1 13.68 13.68 0 0 1 2.9-.7c1.5-.2 2.5-.4 2.9-.5a.45.45 0 0 1 .5 0 .92.92 0 0 0 .6.1.37.37 0 0 1 .4.4c0 .2-.3.4-1 .5a5.23 5.23 0 0 0-3.1 1.3 2.26 2.26 0 0 1-1.1.5 11.06 11.06 0 0 0-1.3.4l-.4.2a.3.3 0 0 0-.1.4.52.52 0 0 0 .7.3 19.29 19.29 0 0 1 2.6-.5 7.35 7.35 0 0 0 2.5-.8 2.61 2.61 0 0 1 1.1-.3h.9a.67.67 0 0 1 .7.4.78.78 0 0 1-.2.8l-.6.7a4.69 4.69 0 0 0-.6-1c-.2-.2-.5 0-.9.7l-.2.2a2.5 2.5 0 0 0-1.8.5 15.26 15.26 0 0 1-1.7 1 3.37 3.37 0 0 0-1.2.4 1.84 1.84 0 0 0-1.2.8c-.2.3-.4.4-.5.6a.66.66 0 0 0-.2.7.7.7 0 0 0 .5.4h.6a24.49 24.49 0 0 0 6.4-.8 21.53 21.53 0 0 1 4-.4.6.6 0 0 1 .6.3 2.19 2.19 0 0 1 .3.5q.15.3 0 .3a7.71 7.71 0 0 1-1.9.8c-.3-.1-.5-.1-.5.1a5.92 5.92 0 0 1-.4.6c-.2.1-.3-.1-.5-.4s-.3-.2-.5 0a.48.48 0 0 0 0 .7 1.74 1.74 0 0 0 2.2.4 4.81 4.81 0 0 1 2.5-.4.46.46 0 0 1 .5.3.42.42 0 0 1-.3.5 8.65 8.65 0 0 0-1.7 1.1 3.91 3.91 0 0 1-1.9 1 2.23 2.23 0 0 0-.7.6 2.23 2.23 0 0 1-1.3.6l.5.4 4.2-1.9c.5-.2 1.2-.5 2.2-1a5.55 5.55 0 0 1 2.5-.3 8.33 8.33 0 0 1 1.2.1 2.13 2.13 0 0 1 1.2.3 4.33 4.33 0 0 0 .5.1.34.34 0 0 1 .2.5c-.1.6-.5.9-.9.7s-.7 0-.7.2.2.4.7.3a1.09 1.09 0 0 0 1.3-.8 1 1 0 0 0 .1-.3c0-.2.1-.2.2-.1a5.18 5.18 0 0 0 1.8.7 3.11 3.11 0 0 1 1.8.6 2.19 2.19 0 0 0 .5.3c.2.1.2.3 0 .5s-.4.3-.5.2a2.09 2.09 0 0 0-.6-.4.8.8 0 0 0-.8-.3c-.2.2-.1.5.4.8a1.25 1.25 0 0 0 1.7.2 2.41 2.41 0 0 1 1.8-.4c.2 0 .8.2 1.8.4a.68.68 0 0 1 .5.9.27.27 0 0 1-.3.3.76.76 0 0 0-.4-.1 1 1 0 0 0-.7.2.43.43 0 0 0-.3.3c0 .6-.1.9-.5 1a5.75 5.75 0 0 1-1 .2 10.51 10.51 0 0 0-3.9 2.5 5 5 0 0 1-.8.6.88.88 0 0 0-.9.8 2.54 2.54 0 0 1-.4 1.2c-.1.1 0 .2.2.3a.45.45 0 0 0 .5 0 .7.7 0 0 0 .4-.5 2 2 0 0 1 1.2-1.5c.4-.2.9-.4 1.7-.8a34.06 34.06 0 0 1 3.8-1.7 10.63 10.63 0 0 1 1.4-.3 1.27 1.27 0 0 0 1-1.1 1.8 1.8 0 0 0 1-.1 5.07 5.07 0 0 1 .9-.2 1.44 1.44 0 0 1 1 1.3 6.35 6.35 0 0 0 1.1 2.6q.6.9 1.5 2.4a6.21 6.21 0 0 0 1.4 1.9.59.59 0 0 1 .3.7.79.79 0 0 1-.7.5c-.9.3-1.5.5-2 .7a8.81 8.81 0 0 1-2.1.3c-.7-.1-1.4.5-2 1.6a37 37 0 0 0-3.1 6.6 1.24 1.24 0 0 1-.2.3c-.1.1 0 .3.3.4s.4 0 .6-.3q.9-1.35 2.1-3.3c.4-.7 1-1.9 1.8-3.4a1.65 1.65 0 0 1 1.6-.7c.5 0 1.3.1 2.4.2a3.44 3.44 0 0 0 2.3-.5 1.59 1.59 0 0 1 1.8.3 22.48 22.48 0 0 0 2.5 1.4 6.41 6.41 0 0 1 2.1 1.7 4.49 4.49 0 0 0 1.3 1.1 11.44 11.44 0 0 1 1.4.6.27.27 0 0 1 .3.3c-.1.1-.2.2-.5 0s-.3 0-.4.2a.7.7 0 0 0 .4 1 .45.45 0 0 1 .4.6.27.27 0 0 1-.3.3 4.33 4.33 0 0 1-.5-.1 3.35 3.35 0 0 0-1.4.4 3 3 0 0 1-1.4.4c.5.1.7.2.8.2a.66.66 0 0 0 .7-.2.65.65 0 0 1 .5-.2 8.56 8.56 0 0 0 2.6.5l2.6.2a2.83 2.83 0 0 1 1.3.4 1.38 1.38 0 0 1 .6 1.3.52.52 0 0 0 .2.4 7.17 7.17 0 0 1 2.6 2.6c.4.7 1 1.7 1.7 3.2.1.2.2.5.4 1a2.81 2.81 0 0 0 .5 1.1c.6 1 .6 1.8-.2 2.4a.33.33 0 0 0-.1.5.62.62 0 0 0 .3.4c.2.1.3 0 .3-.1V83a.48.48 0 0 1 .6-.1.69.69 0 0 1 .3.5 2.39 2.39 0 0 1 .3 1.7 3.37 3.37 0 0 1-.8 1.7 9.84 9.84 0 0 1-2.2 1.7c-.5.3-1.4.6-2.6 1.1a14.87 14.87 0 0 1-5.9 1c-2.7-.1-4.7-.2-6.1-.1a2.43 2.43 0 0 1-1.2-.5l-6.6-3a3.77 3.77 0 0 1-.8-.5.9.9 0 0 1-.2-.9c0-.1 0-.2-.1-.2a2.44 2.44 0 0 0-1.3-.2 3.83 3.83 0 0 0-1.4.1 1.82 1.82 0 0 1-.8.6 11.86 11.86 0 0 0-2.8.5c-1.5.4-2.4.7-2.7.8a10.89 10.89 0 0 1-1.9.1 5.83 5.83 0 0 1-1.8-.1h-.5c-.1-.1-.1-.2 0-.5a.31.31 0 0 0-.1-.2 1.67 1.67 0 0 1-1.3-.3 3.62 3.62 0 0 0-1.3-.5 1.29 1.29 0 0 0-1.2.1 1.11 1.11 0 0 1-1.4.5 8.37 8.37 0 0 1-1-1c-.2-.2-.3-.3-.4-.2a3.57 3.57 0 0 1-3.4-.4 4.3 4.3 0 0 0-1.7-.5 2.73 2.73 0 0 1-1.4-.5 15.66 15.66 0 0 0-2.5-1.6c-1.1-.6-1.9-1.1-2.5-1.4a7.64 7.64 0 0 1-1.8-1.8 12.19 12.19 0 0 0-1.7-1.9 1.74 1.74 0 0 1-.5-.9 10 10 0 0 0-.4-1.1 1.07 1.07 0 0 0-.8-.6.43.43 0 0 0-.3.3 1.75 1.75 0 0 0 .1.5c.1.7-.1.9-.8.7a5.89 5.89 0 0 1-1.3-.5 1.79 1.79 0 0 1-1-.9.75.75 0 0 0-.6-.3c-.4.3-10.2-6.3-15.4-8.5zm70.1 3c-.3-.4-.2-.7.2-.7a.83.83 0 0 1 .8.2l.6.6a.2.2 0 0 1 .1.2.53.53 0 0 1-.3.2 1.25 1.25 0 0 1-1.4-.5z" class="cls-3" data-name="Layer0 21 FILL" fill="#231f20"/></svg>