<svg id="dal__knife" xmlns="http://www.w3.org/2000/svg" viewBox="102.55 95.9 321.8 195.825"><g overflow="visible"><path d="M126.7 287.85h12.9l1.9-.4 11-.1q20.75-.9 37.7-6.8 1.95-.85 14.7-5.6 4.4-3.7 15.1-9.4 10.3-5.55 27.1-13.2 4.5-1.95 26.1-15.3.6-1.2.6-2.7 0-2.9-.7-4.7 6.25-2.75 10.2-4.6 8.95-5.2 16.8-10.3 12.2-8.05 12.2-11.4 0-10-9.1-7.6.6-1.5.6-2.6 0-2.9-1.7-5.2-1.25-1.6-3.6-2.15 0-.95-.2-2.25-.3-4-3.2-5.6-.6-.4-.9-.5-.4-.2-1.4-.4.1-.4.1-1.2 0-1.1-.1-1.6-.3-2.9-2-4.3-4.65-3.75-19.3 4.1-10.85 5.9-23.3 15.25-5.75 3.75-24.5 14.3-17.85 9.9-26.4 15.6-3.7 2.35-10.7 8-5.7 4.4-9.4 7.3-.25.15-11.7 7.7-7.9 5.05-11.2 7.75-4.15 3.4-26.8 16.2-17.4 9.9-17.4 14.5 0 2.1 1.3 4 1.9 3.2 6.4 3.2.85 0 4.2-1.9 1.75 1.3 4.7 1.9z" fill="#DEE1E3"/><path d="M298.35 183.7q2.05 1.25 4.8 1.25 2.55 0 7.2-1.4 3.2-2.95 6.5-5.5 6.8-5.35 10.4-6.5-1.55-3.95-2.4-4.9-1.4-1.8-5-8.4l-2-3.7-1.8.9q-2.65-1.4-4.5-.7-11.65 3.8-16.3 7-4.5 2.95-4.5 7.25 0 .65.1.9 1.7 1.3 2 4.3 1.1 1.2 2.3 1.6l-.1 2.15q2.7 1.65 3.3 5.75m106.4-56.65q13.75-7.8 16.2-15.4 3.4-2.5 3.4-5.15 0-12.25-15.7-4.85-4.45 2.1-12.1 6.85-7.1 4.7-8.1 5-14 6.4-22.9 12-5.85 3.65-9.2 6.7-2.8 1.7-3.6 2.3-5.45 4-12.7 8.15-9.6 5.4-10.4 5.8.6.95.7 1.7l4.9 8.3q2.35 3.95 5.4 8.1 2.9-1.5 12.7-6.3l18.4-8.9 8.6-5.2 13-9.1q7.65-5.8 11.4-10z" fill="#775C4D"/><path d="M286 199.8l-.65-.1q-1.7 4.05-2.6 7.9 0 .1-.5.6-.15.35.4.5.5 0 .5-.4l.1-.6q.75-.3.9-2 .15-1.6 1.5-1.6l.3-.8.05-3.5m7.35.3q.6-.6-.25-1.2-.5 1.9-2.5 8.6-1.25 4.5-1.25 8.65-.75-.15-1.1.45 0 .2-.1 1.2-.5.8.2.8 1.05.15.9-.5 0-.5.1-1 .2-.45.2-.75.65.05.55-.55v-1.4q.6-.95.6-2.6.15-1.65 1-2.5l-.1-1.2q-.15-.9.7-1.2l-.3-.6q-.45-.75.2-1.7 1.1-1.4.8-2.8-.2-1.1.35-1.7m5.65 4q0-.45-.4-.7-.55-.15-1.1.4-.75.75-.9 2.4 0 .8.1 1.5 0 .6-.4 1.4-.55 1.15-.7 3-.45 2.65-.75 3.2.95-.1 1.8-.85.65-.65.5-1.5-.15-1.45.5-2.9 1.2-2.6 1.2-2.75.35-1.25.15-3.2m26.75-44.65q.9 3.65 3.6 5.7-2.5-4.2-3.6-5.7m-.05 2.85l.3-.15-3.75-7.85q-.35-1.1-1.6-.5-.6.4-.6.5-.15.15.15.85.7 1.5 2.6 3.65l2.9 3.5m8.05-12.85q-.005.355-.75 1.1-.8.65-.25 1.2.45.1.85-.25.8-.7.9-.7.35 0-.15-.5-.596-.595-.6-.85m-5.5 1l-.4-.65q-.5-.3-.85.15-.5.35-.25.7 0 .1.4.6l4.5 5.9q.4.5 1.7 2.1.9 1.2.65 2.9.55-.85.6-1.15v-.85q0-.7-.6-1.4-1-1.1-1-1.2-3.5-5.55-4.75-7.1m10.95-1.25l2.2-4q1.4-2.5 1.7-4.2l-2.6 3.8q-1.45 2.4-1.3 4.4m-3.6-2.05q.7-1.6 1.2-2.2-1.6.45-2 1.7-.4.95-.5 2.15.75-.5 1.3-1.65m-35.5 21.8q-1.35 3.3-.75 4 3.15-5.2 3.5-8.8-1.45 1.45-2.75 4.8m.9 5.3q-.6 1.5-.1 2 1.2-1.2 2-3.2 1.35-2.85 1.7-3.3.35-.5 1.7-3l1.6-3.1q.35-.35.6-.85.15-.45-.4-.65-.45-.3-.8.1l-.5.8-5.8 11.2m80.8-44q.3-.45-.3-.9-.6-.3-.9.4l-2.2 5q-.2.55.1.7l.6.5.6-.8.9-2.5q.35-1.55 1.2-2.4m-6.55 2.05l-1.2 3.4q-.6 2.1-1.5 3.3-.35.35.2.7.4.25.75-.3.45-1.15 1.35-2.7.75-1.35 1.25-2.8.35-1.75 1.25-2.3l.4.2q.25.15.4-.3 0-.3-.2-.4l-.5-.2q-.15-.05-.7-1.1l-.9.4q.5.65.15 1.2-.6.6-.75.9m4.1-7.1q-.5-.6-.75-.4-.1-.1-.15 0-.1.05-.1.2 0 .15.15.4 0 .9-.3 1.3l-.7 1.1q-.3.5-.75 2l.75.2q.6 0 .6-.6.15-1.1.4-1.8.3-1.05 1-1.6.45-.5-.15-.8m-18.5 6.8q.8-.15.65-.6-.25-.65-1-.4-1.6.45-1.8 3-.15 1.5.5 3.15.55 1.4 1.9 2.8 1.4 1.4 2.4 1.3l3.1-.7q1.55-.7 2-2.5-.65 0-2.75 1.4-1.4.8-3.35-.2-2.1-1.15-2.25-2.2-.15-2 .4-3.7l-.2-.4q-.35-.95.4-.95m-10.65 5.3q-.5 1.4-1.9 3.5-1.5 3.55-1.9 4.2l-.8 1.2q-.5.9-.4 1.5 0 .3-.8 1.4-.75.9-.3 1.7 0 .3-.4.3-.65 0-.8.5-.15.9-.3.9-.1.1-.1.4l.4.3q.6.2.6-.3 1.95-3.3 2.7-5.1 2.2-4.8 5.5-12.1l-1 .6q-.1.4-.5 1m36.55-20.8q.35.7-.2.9-1.1.55-1.1 1.8l.4 1.9q.25.95 1.1 2.1.85 1 1.7 1.3 1.9.95 5.8-1.1 1.45-.8 1.7-1.2l1.5-2.9q-.65.2-2.2 1.5-1.05 1.05-2 .65l-2.3-.5q-1.35-.3-2-1.2-1.25-1.75-1.4-2.5-.4-1.55.6-2.8-2 .75-1.6 2.05m20.05-4.25q.25-.25-.1-.4l-.4-.1q0 .5-.7 1.2-.75.75-.6 1.35.7-.15 1.2-.85.5-1.15.6-1.2M233.1 256.2q.15.85-.6.6-.9-.25-1.25.3l-.6 1.2q.65.5 1.7-.1 1.25-.4 1.5-.2.3-.4.15-.4-.5-.8-.15-.8h.9q1.45-.45 1.75-.75.15-.4-.25-.5l-.75-.5q-.85-1-1.3.4v.5q0 .1-.5-.15-.75-.35-.6.4m6-3.35l-1.4-.1q-.85.15-.4 1 .45.75-.6.6l-.4-.4q-.2-.2-.6.1.75 1.45 1.5 1 .15-.15 1.6-.6.9-.45.9-.9 0-.85.6-1.3.3-.3 1.2-.6.25.25.1.6 0 .4.3.4.4 0 .6-.3.2-.4.1-.5-.4-.5.1-1.3.45-.75.1-.9-.55-.35-1 .4-.7.7-1.1.7-.1 0-.6.5-.35.4-.8.1l-.3.1q.55 1.3.1 1.4m6.45-3.05q-.15-.3-.05-.75v-1.25q-1.2.2-1.65 1.3l-.6 1.7q-.3.4-.1.75.1.25.4.1.2 0 .4-.1.8.05.75-.5-.15-.75.1-.8.35-.15.9.4.65.45 1 .1.65-.5.5-.8 0-.2-.6-.5-.35-.25-.5-.1l.1.4q.15.3-.2.3-.3 0-.45-.25M213 234.7q-1.15 2.85-1.65 4.5l-2.2 5.4q-1.15 3-1.6 5.6-.15.7-.5.9-1 .7-.4 2.3l2.6-5.6q.4-1.4 1.7-4.2 1.3-2.6 1.9-4.2l.9-2.9q.6-1.75 1.4-2.7.25-.7-.3-1-.3-.15-.5.15-1.15 1-1.35 1.75m1.3-13.15q.15-.15 0-.5-.25-.5-.4-.5-.25-.25-.4.1l-.3.4-4.4 11.05q-2.25 5.65-2.5 6.2-.8 2.05-1.7 4.8-.8 2.7-1.9 4.7-.5.75-1.4 3.8-.85 2.95-1.4 3.7l-.5.9q-.15.45.3.9-1.15.3-1 1.3 0 .35.5 1.7.35-1.35 1.5-4.1l10.5-26.6q.6-2.95 1.4-4.1.25-.2.45-.75.3-.65.45-1.1.3-.9.8-1.9m-11.15 12.05l-1.35 3.5q-.3.8-1.7 3.6-.9 1.85-1.3 3.75-.3 1.5-1.4 3.7-1 2-1.6 3.5-2.45 6.2-1.8 7.3 2.2-5.75 5.8-14.15 3.75-8.75 5.7-14.5-1.4 1.4-2.35 3.3m57.85 5.2q-1.1.8-2.2 1.25l-1.7.9q-1.05.7-1.6.85-2.35 1.65-4 2.25-1.05.25-2 1.2-.9.95-.9 2.1 0 .6-.4.6-.75-.15-.4-.8.25-.55-.2-.7-.65 0-1.4.6-.3.4.2.9.2 0 1.4.9.8.5.9.4l2.7-1.7.3-1.4q.15-.95 1.4.3l.2-.4q.3-1.2 1.9-.9 1 .15 1-.3 0-.6 1.4-1.2 1.2-.5.9-1.7l.25-.15q4.75-1.05 6.5-3.25.4-.4 1.3-.1 2.1-1 2.7-1.3 1.95-1.05 2.75-1.7l2.35-1.75q5.3-3.55 6.65-4 .1 0 2.75-1.6 1.9-.9 3.25-.9l.2-.25q1.55-1.55 4-3l4.5-2.3q4.35-2.65 6-3.5 3.85-1.95 6-4.2.95-.95 2.4-1.8 1.8-1.2 2.4-1.8.55-.65.35-.9-.1.25-.5.5l-.35.25q-4.4 2.7-9.9 5.5-1.85.8-5.3 2.75-1.8 1-5.3 2.75l-3.7 2.25q-2.6 1.6-3.8 1.85-.15 0-.4.4-.75 1.7-2.4 1.1-.65-.15-.9.15-.3.3-.1.85 0 .5-.1.65-.1.25-.4.1-.7-.55-1-.4l-.4.9q-.5 1.25-1.5.7-.4-.25-.9.4L261 238.8m2.95-16.35q.15.95-.8 3.9-.8 2.5.1 4 3.3-9.7 5.3-20.6-2.15 4.15-2.3 6.3-.15 2.1-1.2 3.7 0 .1-.1 1.5 0 1.05-1 1.2m-9.75-7.4q-.4-.2-.5 0l-.5.4q-.5.35-.5 1.1-.1.75-.3 1.1-1.45 2.25-3.4 7.1l-1.4 3.6q-.85 2.45-1.1 3.7l-.6 2.8q-.35 1.8-.2 3 .8-.65.8-.8l1.7-5.2q.05-.35 1.2-2.8.75-1.65.9-2.8 0-.4.6-1.8.9-1.5.9-1.7 1.8-3.75 2.7-6.6.15-.65-.3-1.1m5.5 1.6q0 .4-.1.5-1.1 1.15-1.7 4-.55 2.7-1.7 4 .3 1.2-.3 2.7-.5 1.4-.8 2.6l-.6 3-.5.3q-.2.05-.25.25 0 .2.15.35 0 .3.6.3t.6-.4l.1-.7q2.3-5.7 3.1-9.3.75-3 2.9-9.45 2.1-7.65 3.9-11.25.3-.7-.3-1.3-.55.7-.8 1.5l-.4 1.6q-2.2 5.3-2.4 5.5-1.2 3.1-1.5 5.8M151.35 270.7q-1 .4-1.35 1.75-.6 1.3-1.4 3.6l-3.2 6.5q-.6 1.35.2 1.6 1.3.45 1.7-.8.85-1.85 1.35-3.4l2.7-9.25m6.75 5.1q-.6.8-.6 1.8-.15 1-.4 1.9-.3.6.4.6h.3q.2 0 .2-.2.15-.85.65-1.8l.85-1.7q.1-.5-.65-1.1-.3-.15-.5.1-.2.2-.25.4m.5-10.1q-.9-.15-1.2.6-.55.9-.8 1.9-.2 1-.6 2l-.85 1.75q-.6 1.05-.6 1.7-.15 1.65-.9 3.9-.15.75-1.15 3.75-.25.7.35.8.4.2.65-.4v-.6q0-.3.35-.6 1.85-.95 1.2-3-.1-.3-.1-.6t.3-.6q.7-.7 1.1-1.9.25-1.5.8-2.2.55-.6.9-2.5.5-1.8 1.25-2.6l.1-.4q-.15 0-.3-.6-.2-.4-.5-.4m-17.2 10.8q1.1.4 1.1 1.2 0 .3-.5 1.3 0 .1-.4.5-.1.25.2.4.55.35 1-.4.5-1.5 1.1-2.5.2-.3.9-2.4.25-1.45 1.3-2.3.85-.85 1.05-2.7-1.45-.45-1.6.3 0 .85-.9 1.9-.85 1.15-.85 1.9-.3 1.8-.4 1.9-.45 1.05-2 .9m-1.75 1.25q1.05-2.6 1.2-3.4.3-1.15-.4-1.3-1.05-.4-1.15.75 0 .15-.65 1.25-.4.55-.1 1.2l-.1 1.1q0 .75.4.9.5.1.8-.5m-33.45 8.8l3.5 1.2q2.05.75 3.7.4.45-.15.6.1.75.85 2.2 1.2l2.4.3q6.75 1.35 11.2 1.2l2.2-.2q1.35 0 2 .9h.2q9.2 0 10.4-.1.2 0 2.2-.5 1.3-.15 2.2.6.15.15.6 0 2.05-.75 4.2-1l4.4-.6q1.25-.25 2.4-.25 1.45-.15 2.3-.85.2-.3 1.2.1.8.15 1.4-.6.25-.4 1.3-.65 1.15-.3 2 .3.2 0 .4-.1l.4-.2q.35-.85 1.2-1l1.4-.3q.45-.05 2.9-.6 1.25-.25 2.6-.9 1.95-1.25 5.7-2.5l13.5-5.4q4.5-1.65 9.1-4.2l1.1-.3q.65-.15.5-.9.2 0 .4-.1l2.2-.4q.15-.65 1-1.2.9-.45 1.1-1-.15-.8.05-.8.15 0 .3.3.25.8.85.5.6-.5.8-.2.3-.95 1.6-1.4 1.5-.4 1.9-.8.45-.3 1-.3h1l-.4-.75q-.3-.45 0-.6.4-.35 1.2.2.75.6 1.2.6-1.4-1.7.6-1.7.4 0 1.2-.6.95-1 2.7-1.75 2.1-.9 2.8-1.5.6-.4 1.4-.4 1.05 0 1.6-.35-1.95 0-2.3-1.9-.35 0-.8 1.25-.3.95-1.4.15-.4 0-.4.35 0 .65-.6 1.15l-1.2.6q-.8.5-.9.5-.45 0-.9-1 0 2-1.5 1.75-.9 0-1.3.9l-.6.8q-1.1-.95-1.4-.1-.1.25-.3 1.3-.3 0-.7-.4-.45-.45-.6-.1-.3.3.1.6.45.3.3.6-1 .55-2.1-.7-.35.35-.2 1 0 .6-.1.7-.45.15-.6-.2-.2-.4-.2-.2-.3.35-1.7.6-1.15.15-1.3 1.2 0 .25-.4.5-1-.65-1.3.1l-.5 1.1q-.4 0-.7-.6-.25-.4-.7-.4-.05.1.1.6.15.45-.3.6l-1.5.9q-.85.4-1.7-.1-.4-.2-.6 0-.4.2-.4.7-.15.85-1.4 1.5-.65-.65-1.5-.4-1 .5-1.4.5-.8 0-.9.15-.45 0-.6.75 0 .45-.8-.1-.75-.45-1.2.3-.15.4-.9.1-.7-.15-.7.2 0 1.2-.4 1.4-.5.15-1.4-.1-.3 0-.5.2l-.9 1q-.6.45-1.4-.4l-.2.15q-.4 1-1.8 1.6l-2.2.6q-5.8 2.1-8 2.4-.95.15-2.3.9l-2.2 1q-2.6.65-4.2.85-2.25.4-4.2 1.15l-2.2.85q-1.55.5-2.4.4-1.35-.15-3.6.3l-3.6.6-4.6.1q-.45 0-.9.75-.5.4-.9.2-.85-.5-1.9-.5-1.8.2-2 .2-1.7 0-5.7.4-3.45.3-5.7 0l-21.6-2.6q-1.9-.15-3 .4m146.35-94.25q.6-.4 1.2-1 .95-1.55 1.5-1.4.65.15 1.2-.1.6-.3.9-.6 10.4-6.4 12.8-8 7.6-5 8.6-5.6 4.65-2.5 6.1-3.7.95-.7 2.4-1l2.6-.4q.5 0 .4.6 0 .5.2.9 2.3 2.55 3.2 4.4 1.35 2.85 4.8 8.1 2.75 5.2 6 10 1.35 1.9 3.3 4.3 4.3 5.85 5.6 7.8.3-1.2-.3-2.4l-1.3-1.6q-.8-.9-1.1-1.7-1.15-3.05-3.9-7.3-2.45-3.7-3-4.9-.35-.85-.2-1.1 0-.4.7-.6 1-.35 2.9-1.5 1.95-1.15 3-1.4 2-.65 4.2-2.6.85-.7 2.6-1.5l2.7-1.4q2-1.1 4.2-2.5 3-2 4.2-2.6l8.45-4.6q.95-.3 2.35-1.3 1.55-.95 2.5-1.2 2.35-.95 2.8-2.1 0-.1.4-.3.2-.1.4.1.35.65.6.4l.4-.4q0-.9.8-1.7l8-4.6q.8-.45 5.8-3.7 4.1-2.55 14.6-8.7 3.8-2.2 6.1-3.8.4-.3 3-1.7 2.1-.95 2.9-1.9.7-.5 2.2-1.2 1.35-.55 2.2-1.4.65-.8 3.2-1.9l.9.1q.6 0 .9-.6 1.25-2.5 3.7-2.2.5 0 .5-.4 0-.65.4-.9l.9-.4 2.7-1.7q1.3-.8 2.75-1.6 2.6-1.3 5.1-3.2 1.45-.85 1.6-1.9.15-.95 1.4-.8l.6.2q.35 0 .6-.4l-.8-.8.1-.6v-.05q-.45.2-1.05-.05.15.95-.7 1.4-1.05.6-1.2 1.1 0 .35-.6.5-1.7.15-3.9 1.7-2.45 1.75-3.5 2.4-.55.25-2.7 1.6-2.9 1.9-3 1.9.15-1.8.3-2.4.3-1.45 1.3-2 .3-.15.6-.9.3-.85.4-1.2.15-.45 1.7-3.35 1.05-2.05 1.2-3.5l-.3-.4q-1 1.15-2.6 4.8-.95 2.6-2.2 4.5l-1 2.3q-.55 1.2-1.2 2.2-1.55 2.15-3.1 3-6.1 3.9-8.2 5-2.8 1.8-6.3 3.8-4 2.6-7.8 4.7-2.15 1.05-4.8 2.8-4.4 2.6-4.8 2.8-1.2.6-4.2 2.6l-4.2 2.6q-14.2 7.5-20.2 10.9l-3.3 2q-1.95 1.2-3.3 1.8-3.15 1.35-12.1 6l-11.9 6.3q-.9.3-1.4.3-.65-.35-1-1l-7.2-12.7q-1.1-1.85-.8-2.9.15-.95 2.1-2l75.5-44.6q1.25-.7 3.5-1.7 2.55-1.1 3.5-1.8l7.7-4.8.5-.2q.3-.15.1-.5-.2-.4-.4-.2l-.4.4q-.75.45-1.9-.1l3.75-2.5q2-1.5 3.7-2.1 4.65-2.1 6-3 .25-.15 1.5-.7 1-.5 1-1.4l.2-.1q2.7 0 4.2-1.2.75-.45 2.1-.6 1.65-.15 2.1-.4.5-.65 1.7-.35l3.15.5q.7.2 1.2-.35.25-.25.4 0 2.9 1.75 4 3 1.65 1.35 3.25 4l.6 1.65q.15 1.05-.6 1.9-.75.9-.9 3-.15 2.05-2.75 3.8-.6.8-1.2 1.3-.15.2-.3.3h.05q.2 0 .2.2.4.65.9.5.4-.2.8-.6.6-.45 1.3-1.7.65-1.4 1.2-1.8.6-.6 1.2-.9-.45-.55-.1-.9.15-.15.9-.3.15 0 0-.8-.3-1.4.9-2.1l.2-.4.1-1.6q0-1.1-.2-1.4-2.25-4.3-5-6.8-.35-.35-1.4-.5-1-.15-1.3-.6-.3-.6-1.5-1.2-1.25-.6-1.6-1.1-.2-.2-.6-.2-.3 0-.3.4.3 1.3-.4 1.1-1 .25-1 .3-.6-.9-2.5-.4-2.1.25-7.4 1.9-1.35.5-4.6 2.2-.9.3-1.2 0-.65-.65-1.15-.1-.95.95-2.5 1.9l-2.7 1.4q-9.15 5.7-13.8 8.4l-29.35 17.5q-1.15.45-1.4 1.65-.95-.3-1.6.15-.85.85-1.3 1l-8.6 4.9q-18.6 11.05-31 18.6-3.15 1.8-10.5 6.2-6.55 4-10.1 7-.5.4-1.75.9l-38.7 23.8q-12.85 7.8-13.5 8.25-7.55 4.8-13.1 8.25-1.5 1-6.8 4.1-5.45 3.2-6.8 4.15l-9.1 5.75q-5.7 3.45-9 6-2.95 2.3-6.3 4.3l-17.7 11.7q-6.1 3.85-10.7 7-4.25 3.1-9.6 6.5l-3.6 2.4q-2.7 1.8-3.7 2.3-2.4 1.35-8.1 5.1l-12.2 8.2q-1.65 1.05-3.5 2.5l-2.2 1.5q-1.15.8-2.1 1.9 1 .3 1.7-.4.75-.9 1.2-1.2l64-40.5q3.85-2.45 7.5-3.8.9-.3 1.8-1.2 1.1-1.25 1.4-1.5.45-.2 1.2-.1.6.15.6-.5 0-.7.4-.9.15-.15.9 0 .3.15.6 0 .3 0 .3-.3.15-.75.8-.9.45 0 1.2-.3.9-.3 1.2-.6.65-.3.9-.7l.5-.9q.25-.4 1.2-.1.9.3.9-.6.15-.9.5-1.1h.1q.85.45 1.4-.1.3-.9.6-1.2.25-.25.4.6.15.65.8-.3.85-1.4 2.2-1.7 1.2-.3 3-1.5 1.65-1.25 2.9-1.6l2.6-2q1.5-1.15 2.2-1.4 1.5-.5 2.7-1.3l2.4-1.5q11.2-7.1 13.8-8.6 20.3-12.6 26.1-16.1m125.95-77.75q.6-.85 1.35-1.6.85-.5 1.75-.2-.4.95-1.25 1.2-1.4.35-1.85.6z" fill="#332B22"/></g></svg>