<svg id="dal__garlic" xmlns="http://www.w3.org/2000/svg" data-name="dal__garlic" viewBox="0.005 0 101.005 75.412"><g data-name="Layer1 9 FILL"><path d="M78.58 64c.5-.6 1-1.3 1.5-2a1.6 1.6 0 0 0-.9.7c-.1.2-.3.6-.6 1.3m2.8-5.1a3.08 3.08 0 0 1 0 1.9 9.91 9.91 0 0 0 2.9-.6 6.58 6.58 0 0 0 3.7-2.5 1.63 1.63 0 0 0 .3-.6 17.47 17.47 0 0 1-7 1.3.51.51 0 0 0 .1.5m-16.7 12.8h.3a1.42 1.42 0 0 1-.2-.6c-1.8.5-4.1.3-7-.4a31.6 31.6 0 0 1-8-3.3 19 19 0 0 1-3.9-3.3 22 22 0 0 0 2.2 2.8 28.23 28.23 0 0 0 4.7 4.4 11.34 11.34 0 0 0 4.4 1 32.5 32.5 0 0 0 7.5-.6m-24.4-14.1c1.1 3.5 1.8 5.4 2.2 5.7 0 0 .6.2 1.5.6a2.2 2.2 0 0 0 1.4-.2 42 42 0 0 1-3.3-4.4 40.79 40.79 0 0 1-2.8-4.9c.3.8.6 2 1 3.2m-4-13.1l.3.9v-.2a4.88 4.88 0 0 0-.3-.7m-14.1-25.9c-.4-.4-.7-.8-1.2-1.3.2 1.7 1.6 3.6 4.2 5.8 3.5 2.9 7 9.5 10.6 19.8-.5-1.7-1.2-4.1-2-7.3a47 47 0 0 0-2.7-8.3c-1.2-2.5-2.6-4-4.3-4.4a50.74 50.74 0 0 1-4.6-4.3m41.4 34.6c-.3-.2-.7-.4-1-.6a11.41 11.41 0 0 1 1.1 1.1c.7.7 1.3 1.4 1.8 2a.1.1 0 0 1 .1.1c2.4 1.6 3.1 3.3 2.3 5 1.1-.5 2.7-1.1 4.6-1.9 1.2-.5 2.3-.9 3.2-1.2a40 40 0 0 1-7.7-2.4 20.13 20.13 0 0 1-4.4-2.1m-14.4-13.8a13.76 13.76 0 0 0 1.7 2.8c.7.9 1.6 1.8 2.6 2.9-1.2-1.8-1.5-3.2-.9-4.3-.8-.8-1.8-1.9-3-3a16.6 16.6 0 0 1-1.3-1.4q.75 2.55.9 3M22.68 7.3c-3.3-1.4-4.9-1.1-4.8 1a10.5 10.5 0 0 0 .7 3l16.8 10.6a123.85 123.85 0 0 1 12 12.1 58.45 58.45 0 0 0 11.6 10.4s.8.5 2.4 1.6a51.17 51.17 0 0 0 5.5 3c1.1.5 2.2.9 3.1 1.3a21.58 21.58 0 0 0 8.5 2.4h.5a7.47 7.47 0 0 0 2 .3c3.8.1 7.3-2.1 10.6-6.6a5.34 5.34 0 0 1 1.4-.6c.3-1 .6-2 .8-3a7.8 7.8 0 0 0 1.2-3.3 1.33 1.33 0 0 0-.3-.8 40.87 40.87 0 0 0 .5-4.1 9.12 9.12 0 0 0-1.3-5.2 1.79 1.79 0 0 0 .5-.7c1.3-2.1.6-4.9-2.3-8.3a25.12 25.12 0 0 0-5.5-5.1 17.64 17.64 0 0 0-9-2.4c-2.2 0-4 0-5.4-.1-2.4-.1-4.7-.3-7-.6a25.25 25.25 0 0 0-13.9 1.9c-1.1-.1-2.9-.2-5.4-.4a53.28 53.28 0 0 1-12.7-2.1 17 17 0 0 0-3.1.1 56.62 56.62 0 0 0-7.4-4.4m56.1 11.5a2.14 2.14 0 0 1 1.4.1 4.87 4.87 0 0 0 .7.3q-.75-.15-1.8-.3c0-.1-.2-.1-.3-.1m-3.7 11.5a18.14 18.14 0 0 0-2.3-.9c-.3-.1-.5-.2-.8-.3a11 11 0 0 0 2.8-.9 3.1 3.1 0 0 1 .3 2.1z" class="cls-1" fill="#e0d2cf"/><path d="M18.58 11.2a7.94 7.94 0 0 1-.7-3c-3-.2-3.1 1.3-.5 4.7 1.4 1.8 2.6 3.2 3.6 4.4a15.37 15.37 0 0 0 1.2 1.3 39.7 39.7 0 0 0 4.6 4.2c1.7.4 3.1 1.8 4.3 4.4a53.63 53.63 0 0 1 2.7 8.3c.8 3.2 1.5 5.6 2 7.3a7.49 7.49 0 0 1 .5 1.6c.1.2.2.5.3.7v.2a17.16 17.16 0 0 0 .7 3.4 46.1 46.1 0 0 0 2 5.5 40.79 40.79 0 0 0 2.8 4.9 42 42 0 0 0 3.3 4.4 2.36 2.36 0 0 0 .5.5 28.51 28.51 0 0 0 3.9 3.3 31.6 31.6 0 0 0 8 3.3 13.3 13.3 0 0 0 7 .4 1.42 1.42 0 0 1 .2.6 2.36 2.36 0 0 0 .8.9q1.5.9 4.5.3a11.87 11.87 0 0 0 6.9-5.4 19.07 19.07 0 0 0 1-2.4 10.37 10.37 0 0 1 .4-1c.3-.7.5-1.1.6-1.3a2.18 2.18 0 0 1 .9-.7 1.6 1.6 0 0 0 .9-.7 2.19 2.19 0 0 1 .3-.5 3.08 3.08 0 0 0 0-1.9 2.57 2.57 0 0 0-.2-.5 19.39 19.39 0 0 0 7-1.3 17.29 17.29 0 0 0 8-7 2.6 2.6 0 0 0 .3-2.4 2.86 2.86 0 0 0-1.2-1.6 3 3 0 0 0-2.3-.4 4.23 4.23 0 0 0-1.4.6c-3.3 4.5-6.8 6.7-10.6 6.6a6.45 6.45 0 0 1-2-.3h-.5a21.58 21.58 0 0 1-8.5-2.4c-.9-.3-2-.8-3.1-1.3a51.17 51.17 0 0 1-5.5-3c-1.6-1-2.4-1.6-2.4-1.6a55.45 55.45 0 0 1-11.6-10.4 123.85 123.85 0 0 0-12-12.1l-16.7-10.6m32.3 31a10.28 10.28 0 0 1-1.7-2.8c-.1-.3-.4-1.3-.8-3 .4.4.8.9 1.3 1.4a42.21 42.21 0 0 0 3 3c-.6 1-.3 2.5.9 4.3a33.27 33.27 0 0 1-2.7-2.9m11.7 10.5c.3.2.7.4 1 .6a31.61 31.61 0 0 0 4.5 2.2 40 40 0 0 0 7.7 2.4c-.9.3-2 .7-3.2 1.2-2 .7-3.5 1.4-4.6 1.9.9-1.8.1-3.5-2.3-5l-.1-.1c-.5-.6-1.1-1.3-1.8-2a6.79 6.79 0 0 0-1.2-1.2z" class="cls-2" fill="#ceb9bc"/></g><path d="M54.98 72.9a1.77 1.77 0 0 0-.7.7 2 2 0 0 0 .9 1.2.67.67 0 0 0 .7-.6 2.22 2.22 0 0 0-.9-1.3m-12.1-14.6c-.2.2-.2.3 0 .6a1.13 1.13 0 0 1 .4.6.43.43 0 0 0 .3.3 45.32 45.32 0 0 1 3 3.5 19.22 19.22 0 0 0 8.6 6.1 6.89 6.89 0 0 0 .8.3 1.41 1.41 0 0 0 .9.1c.4.1.7 0 .7-.3a.48.48 0 0 0-.1-.4l-.3-.3a1 1 0 0 0-.8-.3 1.51 1.51 0 0 1-.8-.1c-.3-.2-.9-.5-1.8-1.1a8.84 8.84 0 0 0-1.9-1 5.1 5.1 0 0 1-1.6-1.2 19.63 19.63 0 0 0-1.7-1.3 8.08 8.08 0 0 1-2.3-2.3 6.18 6.18 0 0 0-2.3-2.3V59c-.5-.6-.8-.9-1.1-.7M.08 4a6.58 6.58 0 0 1 1.2 1.2 5.2 5.2 0 0 0 1.1 1.3.92.92 0 0 0 .6.1.48.48 0 0 1 .5.2 12.27 12.27 0 0 0 1.9 2 8.94 8.94 0 0 0 1.2.9 3.53 3.53 0 0 1 1.1.9 2.23 2.23 0 0 0 1.2.7 3.26 3.26 0 0 1 1.2.6 20.58 20.58 0 0 0 2.1 2.1 20 20 0 0 0 2.2 1.8 4.77 4.77 0 0 0 1.4.9 3.09 3.09 0 0 1 1.2.9 6.34 6.34 0 0 0 2.1 1.6 10.31 10.31 0 0 1 2.1 1.4 21.16 21.16 0 0 0 2.1 1.5 11.18 11.18 0 0 1 1.9 1.7 2.48 2.48 0 0 0 .4.6c.2.2.4.1.7-.2.1-.1.2-.1.2 0a.28.28 0 0 1 .1.3.62.62 0 0 0 .2.7 1.54 1.54 0 0 0 .6.4l1.3 1.3a2.72 2.72 0 0 1 .6 1.7v.6c.1.2.3.2.7 0a.37.37 0 0 1 .3.1.3.3 0 0 1 0 .4 2.5 2.5 0 0 0 .3 2.2 13.56 13.56 0 0 0 1.2 1.8 1.53 1.53 0 0 1 .1 1.3c-.4.9-.1 1.4.8 1.4.3 0 .4.1.4.3s0 .2-.1.2-.2.1-.3.1h-.5c-.2.1-.2.2 0 .4a1.8 1.8 0 0 1 .4.9c0 .2.1.5.1 1l1.3 6.3c.1.5.2 1.2.4 2.1a3.77 3.77 0 0 0 .8 1.8 4.77 4.77 0 0 1 .8 1.6 8.09 8.09 0 0 0 .5 1.5 21.79 21.79 0 0 1 .8 2.4 3.81 3.81 0 0 0 1.4 2 .48.48 0 0 1 .2.5 2.4 2.4 0 0 1-.2 1 .76.76 0 0 0 .5.9l-.1.3c-.3.9.1 1.6 1.3 2.2a7.87 7.87 0 0 1 2.8 3.3 4.65 4.65 0 0 1 .3.9.75.75 0 0 0 .8.5 1.06 1.06 0 0 0 .5-.2c.1 0 .1.2 0 .5a6.34 6.34 0 0 0 2.3 2.3c.7-.1 1.1.2 1 .9 0 .2 0 .3.2.3a2.77 2.77 0 0 1 1.2.5 2 2 0 0 0 1.3.5 3.09 3.09 0 0 1 .8.2.74.74 0 0 1 .6.6.45.45 0 0 0 .3.4 2 2 0 0 0 .5.1c.1 0 .2.1.2.4s.2.3.4.3a.42.42 0 0 0 .3-.4 1.76 1.76 0 0 1-.1-.6l.1-.1a1.25 1.25 0 0 1 1.2-.3 1.78 1.78 0 0 1 1.1.8 1.87 1.87 0 0 0 .3.4.3.3 0 0 0 .4 0 2.09 2.09 0 0 1 1.8-.2 3.91 3.91 0 0 0 1.7.2l.6.3c.3.1.5 0 .6-.5 0-.1 0-.1.1 0s.2 0 .2.1a.68.68 0 0 0 .4.3.34.34 0 0 1 .2.4.89.89 0 0 1-1.2.6c-.9 0-2.4 0-4.6-.1a5 5 0 0 0 2.2 1 2.63 2.63 0 0 0 2-.2.76.76 0 0 1 .4-.1 1.32 1.32 0 0 0 1.2.2 2.18 2.18 0 0 0 1-.4 33.36 33.36 0 0 1 3.6-1.1 1.79 1.79 0 0 0 .6-.5c.2-.2.4-.3.6-.1a.8.8 0 0 0 .8.1c.1-.1.2-.3.5-.7a5.93 5.93 0 0 1 .8-.8.53.53 0 0 1 .3-.2c.1-.1 0-.2-.1-.3s-.3-.1-.5.1a3.33 3.33 0 0 1-2.5.9 11.85 11.85 0 0 0-2.7 0 8.37 8.37 0 0 1-2.6-.2c-1.4-.3-2.3-.4-2.6-.5-1.9-.2-3-.2-3.1-.3a6.76 6.76 0 0 1-2.9-1.1c-.3-.2-.9-.5-1.7-.9a6.5 6.5 0 0 1-1.7-.9 25.61 25.61 0 0 1-6-5.8l-1.5-1.5a2.71 2.71 0 0 1-1.1-1.9 4.8 4.8 0 0 0-.7-2 20.34 20.34 0 0 1-1.1-1.9 32.41 32.41 0 0 0-2.1-4.7 1.51 1.51 0 0 1-.1-.8 1.06 1.06 0 0 0-.1-.8 8.54 8.54 0 0 1-1.3-4.9 5.29 5.29 0 0 0-.2-1.6c-.1-.8-.2-1.3-.2-1.6 0-.8-.3-2.6-.7-5.5a5.63 5.63 0 0 0-.2-1 1.15 1.15 0 0 0-.9-.6.43.43 0 0 1-.3-.3.48.48 0 0 1 .1-.4c.5 0 .6-.2.5-.4a1.1 1.1 0 0 1-.3-.6.53.53 0 0 0-.2-.3 1.42 1.42 0 0 1-.2-.4 8.34 8.34 0 0 0-.4-1.2 1.42 1.42 0 0 0-.9-.8c-.3-.1-.3-.3-.2-.6a1.54 1.54 0 0 0-.9-2 2.23 2.23 0 0 1-.7-.7 2.78 2.78 0 0 0-.8-1.5 10 10 0 0 1-1.1-1.2 5.88 5.88 0 0 1-1.8-1.9 4.06 4.06 0 0 0-1-1.4l-1.2-1.2a27.77 27.77 0 0 0-6.6-5c-.3-.2-1.1-.8-2.5-2a6.25 6.25 0 0 0-2.8-1.6 5.2 5.2 0 0 0-.3-.5 2.45 2.45 0 0 0-2.1-1.3 5.6 5.6 0 0 1-2.7-.8 11.92 11.92 0 0 1-2.2-1.7l-.4-.4a.45.45 0 0 0-.5 0 .88.88 0 0 1-.7.1 1.79 1.79 0 0 1-.6-.5 1.88 1.88 0 0 0-1.1-.8 1.14 1.14 0 0 1-1.5-.6c-.1-.2-.2-.3-.4-.2a.22.22 0 0 0-.2.2q-.15.3 0 .3m18.3 12.1a2.57 2.57 0 0 1 1.1.4 21.22 21.22 0 0 0 3.8 2.4 3.4 3.4 0 0 1 1.2 1.2 7.34 7.34 0 0 0 1 1.4v.2c0 .1 0 .2-.1.2s-.2.1-.4-.1a17.16 17.16 0 0 0-1.9-1.7c-1-.6-1.7-1.1-2.2-1.4a16.91 16.91 0 0 0-2.6-2.1l-.1-.4.2-.1m35.6 12.6a.7.7 0 0 0 .5.8l16.2 7.8c1.5.7 2.4 1.1 2.7 1.3a7.92 7.92 0 0 0 2.9.6 2.31 2.31 0 0 1-1.1-.8 3.61 3.61 0 0 0-.9-.9q-3.45-1.65-3.9-1.8s-.6-.4-1.6-1.1a3.39 3.39 0 0 0-1.8-.7 1 1 0 0 0-.9-.7 5.34 5.34 0 0 1-1.1-.4 2.21 2.21 0 0 0-2.1-.8c-.2.1-.3-.1-.4-.4-.2-1-.8-1.2-1.7-.7a.55.55 0 0 1-.7-.3.85.85 0 0 0-.8-.5 1 1 0 0 1-.8-.7 5.37 5.37 0 0 1-1.9-.4c-.8-.3-1.4-.5-1.7-.6q-.75-.3-.9.3m-7.1-10.6a1.55 1.55 0 0 0-1 .1 1.93 1.93 0 0 0-.5.9c.6-.7 1.1-.6 1.7.2a.86.86 0 0 0 .8.3 11.56 11.56 0 0 0 1.7-.1 3.29 3.29 0 0 1 1.7.4c.4.2.6.2.7-.1s0-.4-.4-.5a14.79 14.79 0 0 0-4.7-1.2M18.18 7a30.28 30.28 0 0 1-3-2.8 4.13 4.13 0 0 0-2.5-1c.4.5 1.8 1.9 4 4.2l4.3 4.5c.4.4.7.6.9.4a1.27 1.27 0 0 0 .7-.9.57.57 0 0 0-.2-.7l-.5-.5a13.59 13.59 0 0 0-1.7-1.6 18.51 18.51 0 0 1-2-1.6m-7.4-2.6c-.3 0-.4.1-.2.4a9.3 9.3 0 0 1 .6 1.8 3.81 3.81 0 0 0 1.1 1.6 16.28 16.28 0 0 0 2.4 1.6 10.39 10.39 0 0 1 2.3 1.7l2.8 2.2c.3.3.6.3.7.1s0-.2-.2-.5c-.7-.6-1.2-1.1-1.6-1.4-.6-.6-1-1.1-1.4-1.5a10 10 0 0 0-1.5-1.3 10.89 10.89 0 0 1-1.7-1 6.93 6.93 0 0 1-2.8-3.2l-.5-.5m8.9-4.4a2.44 2.44 0 0 0-.7 1.4c-.3.9-.3 1.4-.1 1.5a18.25 18.25 0 0 1 2 1.7 19.78 19.78 0 0 0 1.9 1.7 59.73 59.73 0 0 0 12.5 5.9q5.85 1.8 9.3 1.5a6.36 6.36 0 0 0 1.5-.3 4.94 4.94 0 0 1 1.5-.3h10.2a.25.25 0 0 0 .3-.2.27.27 0 0 0-.3-.3h-.5a12.64 12.64 0 0 1-2.1-.3 7.24 7.24 0 0 0-2.1 0 1.09 1.09 0 0 1-.5-.1.48.48 0 0 1-.2-.5.63.63 0 0 1 .7-.4 7.93 7.93 0 0 0 1.7-.4 6.76 6.76 0 0 1 1.7-.5 23.67 23.67 0 0 0 5.5-2 9.92 9.92 0 0 1 3.1-.6 9 9 0 0 0 1.6-.5c.7-.2 1.2-.3 1.7-.4.7 0 1.7-.1 3-.2a16 16 0 0 1 3-.1h2.5a8.5 8.5 0 0 1 2.5.5 24.68 24.68 0 0 0 3.9 1.3.6.6 0 0 0 .6 0c.3-.1.4-.1.5.1a5.06 5.06 0 0 0 2.5 1.8 12.27 12.27 0 0 1 4.1 3.3c1.3 1.5 1.9 2.3 2 2.3a22.34 22.34 0 0 1 1.7 2.5c.7 1.4 1.1 2.3 1.2 2.6a6 6 0 0 1 .5 2.9 21.59 21.59 0 0 0 .3 2.9 3.39 3.39 0 0 1-.4 3 .72.72 0 0 1-.6.4.22.22 0 0 1-.2-.2l-.1-.3c-.2-.5-.3-.9-.4-1.2s-.6-.5-1.3-.1c-.2.1-.3 0-.5-.2a3.64 3.64 0 0 0-1.1-1.2 3 3 0 0 1-.9-1.5.27.27 0 0 0-.3-.3 1.06 1.06 0 0 0-.5.2.45.45 0 0 1-.5 0 .3.3 0 0 1-.1-.4.48.48 0 0 0 0-.7c-.2-.2-.4-.3-.5-.4s-.4-.3-1-.8a1.89 1.89 0 0 1-.8-1c-.1-.3-.2-.4-.3-.2-.3.3-.5.3-.7.1a2.18 2.18 0 0 0-.4-.5 1.89 1.89 0 0 0-.8-.5 1 1 0 0 0-.9-.2.85.85 0 0 1-.6-.2 10 10 0 0 0-3.7-2.1c-.9-.4-1.6-.4-2 .1a1 1 0 0 1-.5.5.69.69 0 0 1-.3-.5.72.72 0 0 0-.6-.4.41.41 0 0 0-.4.6.6.6 0 0 1-.3.6 1.42 1.42 0 0 0-.9-.8 4.91 4.91 0 0 0-1.3-.3c-.6-.2-1-.3-1.3-.4a1.09 1.09 0 0 0-1.2.7l-.3.2a6.54 6.54 0 0 1-2.2-.2 3 3 0 0 0-2.2.2 4.16 4.16 0 0 0-2.6-.2 5.17 5.17 0 0 1-2.6-.1.35.35 0 0 0-.6.2.68.68 0 0 0 .4.3.51.51 0 0 1 .4.5 2.63 2.63 0 0 0-1.3 0 .9.9 0 0 1-1.1-.8c-.1-.3-.3-.2-.8.1a4.77 4.77 0 0 1-3.1.8.3.3 0 0 0-.4 0 1.11 1.11 0 0 1-1 .5 3 3 0 0 1-1.1-.3c-.2-.1-.4 0-.4.3a.53.53 0 0 0 .2.3 15.19 15.19 0 0 0 5.7 1.1.54.54 0 0 0 .4-.4.25.25 0 0 1 .2-.3 5.4 5.4 0 0 0 1.8 0 8.79 8.79 0 0 1 1.8-.2c.3 0 1.8 0 4.5.1a20.59 20.59 0 0 0 4.5-.2 7.24 7.24 0 0 1 2.5.1c.5.1 1.3.3 2.4.5q.75.15 2.1.3a3.86 3.86 0 0 1 1.9 1c.2.2.3.1.4-.1.2-.4.6-.4 1.2-.1.4.3 1.1.7 1.9 1.2a6.56 6.56 0 0 1 1.7 1.6 1.07 1.07 0 0 0 1.1.5 1.18 1.18 0 0 1 1 .1 9.22 9.22 0 0 1 .8.5 8.74 8.74 0 0 1 2 1.8 22.09 22.09 0 0 1 3.5 5.4c.3.6.4.9.1.9-.5 0-.7.2-.6.4a1.4 1.4 0 0 0 .4.5 4.71 4.71 0 0 1 .2 2.1 14.26 14.26 0 0 1-.5 2s-.1.5-.4 1.5a4.94 4.94 0 0 0-.3 1.5.52.52 0 0 0 .3.6c.3 0 .4-.2.4-.6l-.1-.5a.53.53 0 0 1 .5-.7.27.27 0 0 1 .3.3v.4a2.42 2.42 0 0 1-.4 1.3 5.84 5.84 0 0 0-.5 1.3 17.21 17.21 0 0 1-2.4 5.4l-.5 1a5.66 5.66 0 0 1-1.2 2.1c-.1.1-.5.7-1.5 2a1.37 1.37 0 0 0-1.4.1 9.78 9.78 0 0 1-.8 1.1 3 3 0 0 1-3 1.5.48.48 0 0 0-.4.1 1.22 1.22 0 0 1-1 .6 8.91 8.91 0 0 1-1.1-.2 3.34 3.34 0 0 0-1.7-.1 3.78 3.78 0 0 1-1.8-.1c-.8-.2-1.4-.3-1.8-.4a3.48 3.48 0 0 1-1.8-.5 5.53 5.53 0 0 0-2.2-1.3 17.74 17.74 0 0 1-2.8-1.2c-1.3-.7-2.2-1.2-2.7-1.4a7.37 7.37 0 0 1-2.8-1.8 35.09 35.09 0 0 1-2.6-2.4c-.1-.1-.6-.4-1.4-1a3.4 3.4 0 0 1-1.2-1.2c-.6-.9-1.6-2.4-3.1-4.5a43 43 0 0 1-3-4.5 16.61 16.61 0 0 0-1.7-2.2c-.8-.9-1.3-1.7-1.7-2.2a4.85 4.85 0 0 0-1.7-1.8 5.28 5.28 0 0 1-2.4-1.7 10.16 10.16 0 0 0-1.5-1.6c-.8-.7-1.3-1.3-1.6-1.6a1 1 0 0 0-1-.6l-.4.2c-.1.1 0 .2.1.4 1.1 1.4 1.8 2.2 2 2.4.4.5 1.2 1.4 2.3 2.6a30.78 30.78 0 0 1 2.2 2.6 26.05 26.05 0 0 1 1.8 2.9c.8 1.6 1.4 2.5 1.5 2.9a120.38 120.38 0 0 0 7.5 11.1 14.59 14.59 0 0 0 2.8 2.7c1.5 1.3 2.5 2.2 2.9 2.5a6 6 0 0 1 .6.7.74.74 0 0 0 .9 0c.1-.1.2 0 .3.2s.2.3.1.4c-.3.4-.3.6-.1.8a3.22 3.22 0 0 0 .7.4 1.7 1.7 0 0 1 .6.6c.2.3.3.4.5.3a.85.85 0 0 1 .7 0 1.51 1.51 0 0 1 .4.4 5.14 5.14 0 0 0 1.4.8 5.63 5.63 0 0 0 1 .2.75.75 0 0 1 .7.7.22.22 0 0 0 .2.2h.3a1.87 1.87 0 0 1 1.6.2 1.81 1.81 0 0 0 1.3.2 6.15 6.15 0 0 1 1.4-.1 11.48 11.48 0 0 1 1.4.2c.1 0 .3.1.7.2a.6.6 0 0 0 .6 0c.4-.2.7-.2.8 0v.7a1.27 1.27 0 0 1-.8 1.1 2.1 2.1 0 0 0-1.1.9c.1-.9-.1-1.4-.7-1.5s-.9.2-.9 1a1.4 1.4 0 0 0 .5-.4.35.35 0 0 1 .5.1 1.48 1.48 0 0 1 0 1.3 6.4 6.4 0 0 1-.6 1.1c-.1.2-.1.4-.3.4a1.54 1.54 0 0 0-1.1.6 3.81 3.81 0 0 1-.9.8c-.2.1-.2.2-.1.3a.7.7 0 0 0 .4.2 3 3 0 0 0 1.9-.7 3.36 3.36 0 0 0 1.4-1.6 2.28 2.28 0 0 1 1.1-1.6 2.77 2.77 0 0 0 2.3-2.5.74.74 0 0 1 .6-.6c.4 0 .6-.1.6-.2a.37.37 0 0 1 .3-.1.53.53 0 0 1 .3.2 1.24 1.24 0 0 1 .1 1.3 1.07 1.07 0 0 1-.3.5.68.68 0 0 0 .3.5c.3.2.2.3-.1.5a.44.44 0 0 0-.2.7c.1.2.2.2.4.1a.9.9 0 0 0 .6-.6 4.33 4.33 0 0 1 .1-.5.42.42 0 0 1 .3-.4 1.76 1.76 0 0 0 1.2-1.3.602.602 0 0 1 1.2.1 2 2 0 0 1 .1.8.93.93 0 0 0 1 1.1.63.63 0 0 0 .5-.5 1.69 1.69 0 0 0 .2-.5c0-.4.1-1.2.2-2.3a9.68 9.68 0 0 0 .1-2.3.85.85 0 0 1 .2-.6c.2-.1.3 0 .4.3a8.49 8.49 0 0 1 .7 2.8v.3a.16.16 0 0 0 .2.2 2.27 2.27 0 0 0 .4.1.6.6 0 0 0 .4-.1c.2-.1.1-.3 0-.6a1.07 1.07 0 0 1 .3-1.6 1.2 1.2 0 0 0 .4-.8v-1.8a3.81 3.81 0 0 0-.4-1.9 3 3 0 0 0 1.6-.1.92.92 0 0 1 1.1.1c.1.1.4.3.9.7a.78.78 0 0 0 .8.2 7.35 7.35 0 0 1 .8-.2.53.53 0 0 0 .3-.2.3.3 0 0 0 0-.4c-.4-.4-.4-.7-.2-.9a3.68 3.68 0 0 1 1-.4 4.88 4.88 0 0 1-1.2-.8 3.78 3.78 0 0 0-1.1-.7 1.78 1.78 0 0 1-.8-.7 3.37 3.37 0 0 1-.4-1.2 1.5 1.5 0 0 1 .4-1.1.65.65 0 0 1 .8-.2 2.35 2.35 0 0 0 1.6.5 9 9 0 0 0 1.6-.4 4.21 4.21 0 0 0 .5-.2 1.55 1.55 0 0 0-.3-.6l-.1-.3a1.06 1.06 0 0 0 .1-1.3 5.18 5.18 0 0 0-1.1-.7.44.44 0 0 1-.3-.1c-.2 0-.2-.1-.2-.3a.51.51 0 0 1 .6-.5 2.92 2.92 0 0 0 .9-.2c.2-.1.5-.2.9-.4a.44.44 0 0 0 .3-.1.53.53 0 0 0 .2-.3.68.68 0 0 0-.4-.3c-.7-.3-.8-.7-.1-1.1a7.36 7.36 0 0 0 1.2-.8 1.06 1.06 0 0 0-1.3.2c-.2.2-.3.3-.5.2s-.2-.2-.3-.5v-.9a.79.79 0 0 1 1.1-1.1 3.46 3.46 0 0 0 2-.2 1.7 1.7 0 0 0-1.7-.3c-.7.2-1.1 0-1.2-.5q-.15-1.5.6-1.5a3 3 0 0 0 2.4-1.5.43.43 0 0 0 .3-.3.33.33 0 0 0 .1-.4q-.15-.45-.9 0a5.8 5.8 0 0 1-1.9.8.75.75 0 0 1-.5-.1.92.92 0 0 1-.1-.6 2.61 2.61 0 0 1 .3-1.1 3.63 3.63 0 0 0 .3-1.1c.2-1.1.5-2.8 1-5a10.9 10.9 0 0 0 .3-3.3c-.2-1.4-.4-2.4-.5-3.1a18 18 0 0 0-.7-3.1 11.07 11.07 0 0 0-3.3-4.9 17.9 17.9 0 0 1-3.4-3.3 11 11 0 0 0-1.5-1.4 6.2 6.2 0 0 1-1.4-1.5.78.78 0 0 0-.7 0c-.4.1-.6.2-.7.2s-.3-.3-.2-.7l-.1-.3a.45.45 0 0 1-.5 0c-.1-.2-.1-.3-.2-.3a7.45 7.45 0 0 0-2.9-1 3.45 3.45 0 0 1-2.1-.7 2.31 2.31 0 0 0-2.2-.7 2 2 0 0 1-1.1 0 2.66 2.66 0 0 1-1-.6c-.1 1-.3 1.2-.9.5a1.25 1.25 0 0 0-1.1-.4c-.1 0-.9 0-2.2.1a5 5 0 0 1-2.2-.2 2 2 0 0 0-1.3.1c-1 .3-1.7.6-2.1.7a10.33 10.33 0 0 1-2.2.3 1.08 1.08 0 0 0-.7.2 32 32 0 0 1-4.2 1.3 42.3 42.3 0 0 0-4.3 1.1c-2.2.8-5.2 1.7-9 2.8a9.34 9.34 0 0 1-2.1.3 4 4 0 0 0-2 .7.47.47 0 0 1-.6.1.49.49 0 0 1-.3-.7.4.4 0 0 0-.2-.4c-.1-.1-.2-.1-.3.1s-.3.5-.4.4a1.51 1.51 0 0 1-.4-.4 11.58 11.58 0 0 0-3-1c-.3-.1-.7-.3-1.4-.6a3 3 0 0 0-1.4-.5 3.34 3.34 0 0 1-1.2-.5 3.39 3.39 0 0 0-1.4-.5 1.13 1.13 0 0 1-.6-.4.61.61 0 0 0-.8 0l-.3-.4a2.68 2.68 0 0 0-2.2-1 9.59 9.59 0 0 1-1.5-.3 3.53 3.53 0 0 1-1.3-.8c-1-.9-1.8-1.6-2.3-2.1a5.5 5.5 0 0 0-1.6-1.1 7.52 7.52 0 0 1-1.7-1c.2-.4 0-.4-.1-.4z" class="cls-3" data-name="Layer0 24 FILL" fill="#231f20"/></svg>