<svg id="dal__pieces" xmlns="http://www.w3.org/2000/svg" data-name="dal__pieces" viewBox="0 0 291.801 283.8"><path d="M92.7.1a.1.1 0 0 1-.1-.1.38.38 0 0 1-.2.2.37.37 0 0 0 .3-.1z" class="cls-1" data-name="Layer1 0 FILL" fill="#795d4d"/><g data-name="Layer1 25 FILL"><path d="M118.9 168.8a5.71 5.71 0 0 0-5.2-1.4c-5 .9-7.6 5.2-7.6 12.8a21.82 21.82 0 0 0 .5 5.3c1 2.9 3.2 4.4 6.7 4.4s6-2.1 7.2-6.3a33.64 33.64 0 0 0 .7-8.4 7.91 7.91 0 0 0-2.3-6.4M36 119.1a8.22 8.22 0 0 0-1.6-4.2 24.22 24.22 0 0 1-1.6-2.8 9.1 9.1 0 0 1 1.2-2.6 5.2 5.2 0 0 0-.2-6.9 6.15 6.15 0 0 1-1.4-2.8 18.54 18.54 0 0 1 1.1-2.2 9.4 9.4 0 0 0 1.1-4.2c0-3.6-1.5-6.1-4.5-7.4-2.8-1.2-6.1-1.2-10 0a21.22 21.22 0 0 0-10 6.6 19.35 19.35 0 0 0-4.5 12.7 8.79 8.79 0 0 0 1.2 5c1.3 1.8 3.7 2.9 7.3 3.3a84.28 84.28 0 0 1-1.7 10c0 4.9 2.8 7.4 8.5 7.4 5 0 9-1.6 11.9-4.8a10.65 10.65 0 0 0 3.2-7.1m44.1-26.5a7.51 7.51 0 0 0-.9-3.9c-1-1.5-2.7-2.6-5.2-3.5a18.27 18.27 0 0 1-6.6-1.6 9.21 9.21 0 0 0-3-.7 45.33 45.33 0 0 1-5.5 8.1 33.57 33.57 0 0 1-6.1 6.3 9 9 0 0 0-.4 1.6c0 5 3.3 7.6 10 7.6 6 0 10.6-1.8 13.9-5.4 2.5-2.7 3.8-5.5 3.8-8.5z" class="cls-2" fill="#ebc294"/><path d="M64.4 83a3.46 3.46 0 0 0 .3-1.2c0-3.8-1.2-6.1-3.5-6.8-2-.6-4.5 0-7.6 1.7a25 25 0 0 0-7.6 6.6c-2.3 2.9-3.5 5.6-3.5 7.9a7.87 7.87 0 0 0 1.2 4.2 6.29 6.29 0 0 0 6 3.3 5.62 5.62 0 0 0 3-1.4 33.57 33.57 0 0 0 6.1-6.3 39.52 39.52 0 0 0 5.6-8z" class="cls-3" fill="#f2dcc3"/></g><g data-name="Layer1 26 FILL"><path d="M241.1 164.1c0 1.5 1.8 3.6 5.5 6.2 4 2.8 7.9 4.2 11.5 4.2a4.92 4.92 0 0 0 4-1.5 2.51 2.51 0 0 0 .4-.7 4.65 4.65 0 0 0 .5-2.1c0-.5-1.2-1.6-3.5-3.3a44 44 0 0 0-7.6-4.8c-3.6-1.8-6.4-2.6-8.2-2.3s-2.6 1.7-2.6 4.3m45.7-32a3.94 3.94 0 0 0 .6-2.1 4 4 0 0 0-.8-2.3 4.72 4.72 0 0 0-3.5-1.9h-18.7a4.15 4.15 0 0 0-4.2 4.1v.1c0 2.6 1.4 4.1 4.2 4.4h18.7a4.16 4.16 0 0 0 3.3-1.7 1.06 1.06 0 0 0 .4-.6m-56.1-96.6c0-5.6-3.1-6.1-9.3-1.4a50.74 50.74 0 0 0-6.4 6 9 9 0 0 1-.9 1c-1.3 1.6-2 2.7-2 3.2 0 .1.2.8.5 2.2a3.16 3.16 0 0 0 1.4 1.4 4.75 4.75 0 0 0 2.4.6 4.33 4.33 0 0 0 1.9-.4c2-.7 4.4-2.6 7.2-5.5 3.5-3.7 5.2-6 5.2-7.1m6 82.7q-3.45 2.55-8.4 6c-6.8 4.7-12.1 8.1-15.8 10.1a.1.1 0 0 0 .1.1 3.9 3.9 0 0 0 3.8 2.1c3.6-1.9 7.2-4 10.7-6.3 7.1-4.5 10.6-7.5 10.6-9a4.5 4.5 0 0 0-1-3z" class="cls-4" fill="#e0d2cf"/><path d="M234 166.2c0 2.2 1.8 5 5.3 8.4a23 23 0 0 0 16.6 6.7 7.76 7.76 0 0 0 5.8-2.2 6.86 6.86 0 0 0 2-5 3.5 3.5 0 0 0-1.2-1.9 4.34 4.34 0 0 1-.4.7 5.06 5.06 0 0 1-4 1.5c-3.6 0-7.5-1.4-11.5-4.2-3.7-2.6-5.5-4.7-5.5-6.2 0-2.5.9-3.9 2.8-4.2-6.6-2.2-9.9-.1-9.9 6.4m38.3-26.2q7.95 0 11.7-3a6.79 6.79 0 0 0 2.8-5 2.09 2.09 0 0 1-.4.6 4.47 4.47 0 0 1-3.3 1.7h-18.7c-2.8-.3-4.2-1.8-4.2-4.4v-.1a5.33 5.33 0 0 0-1.1 3.1 5.63 5.63 0 0 0 1.1 3.7c2 2.3 6 3.4 12.1 3.4m-58.2-91.5a6.86 6.86 0 0 0 3.5 3 10.3 10.3 0 0 1-.1-1.3 5 5 0 0 1 .9-2 4.64 4.64 0 0 1-1.9.4 4.27 4.27 0 0 1-2.4-.6.83.83 0 0 0 0 .5m7.3-14.5c6.2-4.7 9.3-4.2 9.3 1.3 3.5-2.1 5.4-1.1 5.6 3.1a2.92 2.92 0 0 0 .2-.9c0-3.8-1.2-6.2-3.7-7.1-2.1-.8-4.8-.5-8 .9a23.22 23.22 0 0 0-8.1 5.8 16.8 16.8 0 0 0-2.7 3.8c.3-.3.5-.6.9-1a69.39 69.39 0 0 1 6.5-5.9m-10.9 101.3a8.65 8.65 0 0 0-1 4.7 7.52 7.52 0 0 0 1.1 3.7c1.3 2.2 3.5 3.3 6.5 3.3 8.2 0 14.4-2.8 18.7-8.3a22.27 22.27 0 0 0 4.8-13.8 10.81 10.81 0 0 0-2.3-6.6c-.2-.3-.5-.6-.7-.9a5.5 5.5 0 0 1-.9.7 4 4 0 0 1 1 3c0 1.5-3.5 4.5-10.6 9-3.5 2.3-7.1 4.3-10.7 6.3a3.9 3.9 0 0 1-3.8-2.1.1.1 0 0 0-.1-.1 9.93 9.93 0 0 1-2 1.1z" class="cls-5" fill="#d0bac0"/><path d="M230.7 35.3q0 1.8-5.1 7.2c-2.8 2.9-5.2 4.8-7.2 5.5a5.66 5.66 0 0 0-.9 2 10.3 10.3 0 0 0 .1 1.3 3 3 0 0 1 .2 1c.6 1.3 2 2 4.2 2 .9 0 3.6-2.4 7.9-7.2s6.4-7.4 6.4-8.1v-.8c-.2-4-2.1-5-5.6-2.9z" class="cls-6" fill="#ceb9bc"/></g><path d="M101.2 267.3a10.25 10.25 0 0 0-2.1-2 14.44 14.44 0 0 1-2.1-1.9 1.39 1.39 0 0 0-2.1-.6c-.6.4-.6 1.2-.1 2.2a9 9 0 0 0 .5.9 4.88 4.88 0 0 1 .4 1.1 24.89 24.89 0 0 0 3.2 9.8 15.38 15.38 0 0 0 1.6 2.6 6.14 6.14 0 0 0 2.4 1.9 1.67 1.67 0 0 1 1.4 1.8c0 .4.1.7.4.7s.5 0 .6-.4a1.21 1.21 0 0 0 .6-1.1l-1.7-8.3a19.2 19.2 0 0 0-3-6.7m-3.1 2c-.3-.9-.5-1.5-.6-1.9l.5-.3a26.45 26.45 0 0 1 3.2 6.3c.2.7 1 3 2.2 7a4.77 4.77 0 0 1-1.6-.8 3.75 3.75 0 0 1-.5-1.4 17.17 17.17 0 0 0-2.4-7 6.78 6.78 0 0 1-.8-1.9m133.2-114.9a15.3 15.3 0 0 1 .1 5.2 14.8 14.8 0 0 0 1.3 7.8c1.4 3.5 4.2 7 8.3 10.7a2.63 2.63 0 0 0 1.5.7 31.55 31.55 0 0 1 6 1.9 25 25 0 0 0 5.1 1.4 9.11 9.11 0 0 0 5.2-.8c1-.4 1.9-.8 2.9-1.1a1.77 1.77 0 0 0 1.4-2 37.43 37.43 0 0 1 .4-4.8 6.64 6.64 0 0 0 .1-1.3 5.08 5.08 0 0 0-.3-1.7c-.7 3.1-1.1 4.7-1.1 4.8a6.56 6.56 0 0 1-1.2 2.8 2.08 2.08 0 0 1-2.5 1 1.39 1.39 0 0 1-1-1.9 2.14 2.14 0 0 0-.1-.6c-.8-2.4-.1-4 2.2-5q.75-.3 2.1-.9a5.75 5.75 0 0 0 1.9-1.5l-26.6-12q-1.95-.6-3-.9a5.38 5.38 0 0 1-2.7-1.8m5.1 6.1c-.5-.6-.6-1-.3-1.4s.6-.3 1.2 0a43.16 43.16 0 0 0 4.7 2.2c1.1.4 2.7 1 4.8 1.7 1 .4 2.4 1 4.2 1.9a23.64 23.64 0 0 0 4.3 1.6 23.73 23.73 0 0 1 2.8 1.2 9.45 9.45 0 0 0 3.3 1 8.5 8.5 0 0 1-3.5 1.2 26.71 26.71 0 0 0-3.2.5 7.94 7.94 0 0 1-5.8-.4 31.11 31.11 0 0 0-5.3-2.1 5.27 5.27 0 0 1-1.7-1c-.6-.7-1.1-1.2-1.4-1.5-.8-1.1-2.2-2.7-4.1-4.9m-2.2 4.6a10.53 10.53 0 0 1-.9-2.7 2.61 2.61 0 0 1 1.7.7 12 12 0 0 1 1.2 1.4 31 31 0 0 0 8.6 6.8c2.1 1.1 5 1.6 8.8 1.5 1.1 0 1.7.4 1.8 1.3.2 1.2.3 2.4.4 3.6.1 1.4-.5 2-1.9 1.8a33.41 33.41 0 0 1-12.7-4.2 11.34 11.34 0 0 1-5.9-7.6 26.54 26.54 0 0 0-1.1-2.6m55.7-39.8a10.26 10.26 0 0 1-3.2.8l-4.1.9a10.31 10.31 0 0 1-4.3 0 20.66 20.66 0 0 0-4.5-.7q-3.15-.15-4.8-.3a19.94 19.94 0 0 1-4.8-.8 3.68 3.68 0 0 0-2.9-.1 3.63 3.63 0 0 0-1.9 2.1l-1.4 3.1a9.34 9.34 0 0 0-1.2 3.9 4.69 4.69 0 0 0 1.9 3.7c.4.4 1 1 1.7 1.8a4.83 4.83 0 0 0 2.1 1.3c.3.1.9.2 1.6.4a1.66 1.66 0 0 1 .9 1.5.74.74 0 0 0 .6.4 1.39 1.39 0 0 0 .9 0 19.94 19.94 0 0 1 3-.4 10.45 10.45 0 0 0 2.2-.1 24.08 24.08 0 0 0 4.4-.8c.8-.2 2-.5 3.5-1 2.9-.8 5.4-2.8 7.5-5.9a23.79 23.79 0 0 1 2.8-3.5 6.19 6.19 0 0 0 1.9-4.3 2 2 0 0 0-.6-1.5 1 1 0 0 0-1.3-.5m-11.6 8.5a11.94 11.94 0 0 0 5-1.1 45.64 45.64 0 0 0 4.2-2.2.8.8 0 0 1 .8.1 46.14 46.14 0 0 1-3.5 4.3 9.81 9.81 0 0 1-4.9 2.8 35.49 35.49 0 0 0-7.8 2.9 3.07 3.07 0 0 1-2.1.2 68.31 68.31 0 0 1-7.9-2.7 1.55 1.55 0 0 0 1.2-1 4.78 4.78 0 0 1 4.7-3.3c4.5-.1 8-.1 10.3 0m3.1-1.8a8.62 8.62 0 0 1-3.5.9 15.91 15.91 0 0 1-6-1 4.83 4.83 0 0 0-2.7-.4 9.24 9.24 0 0 1-2.3-.1c-1-.2-1.8-.4-2.2-.5a1.51 1.51 0 0 1-1.1-.7c-.3-.5-.5-.8-.7-1.1s0-.2.4-.1a.68.68 0 0 0 .5-.7l-.8-.1a30.09 30.09 0 0 0 4-.5 15.85 15.85 0 0 1 3.9-.4c.6 0 3 .3 7.2.8a1 1 0 0 1-.6.7 1 1 0 0 0-.5.8 14.62 14.62 0 0 0 3.5-.3c.2 0 1.3-.3 3.5-.9 1.8-.5 2.8-.4 3 .2a1.2 1.2 0 0 1-.6 1.2 9.26 9.26 0 0 1-1.7.8c-1.5.6-2.6 1.1-3.3 1.4m-21.1 2.1a1.6 1.6 0 0 1-1.1.4.85.85 0 0 1-.5-.8 2.85 2.85 0 0 1 1-2.7 5.74 5.74 0 0 1-.1 1.2 1 1 0 0 0 .6.9.76.76 0 0 1 .2.5.44.44 0 0 1-.1.5M223.1 32.8a49.47 49.47 0 0 1-3.7 3.5 19.2 19.2 0 0 0-3.5 3.8c-.5.8-1.9 2.5-4 5.1a29.27 29.27 0 0 0-3.7 5.5l5.9 2.2a3.55 3.55 0 0 0 1.5.1c2.1-.4 5.3-.8 9.5-1.2a2.75 2.75 0 0 0 1.3-.2 33.68 33.68 0 0 1 3.5-3.2 12.82 12.82 0 0 0 3-3.4c.1-.1.6-.7 1.5-1.7a2.8 2.8 0 0 0 .9-1.9 6.39 6.39 0 0 1 .5-2.4 9.78 9.78 0 0 0 .3-2.6c0-1.2-.1-2-.1-2.6a.51.51 0 0 0-.6-.5 1.25 1.25 0 0 1-.9-.5.91.91 0 0 1 .8-.1.48.48 0 0 0 .7-.4c-2.2-.6-3.7-1.6-4.5-3.2-.2-.4-.8-.6-1.9-.6a2.23 2.23 0 0 0-2 .4 16.61 16.61 0 0 1-2.2 1.9 12.92 12.92 0 0 0-2.3 2m-12.9 16.7a.52.52 0 0 1 .2-.6A36.82 36.82 0 0 0 215 45c.4-.4 1.8-1.8 4.1-4.3.3-.3 1-1.2 2.2-2.7a19.63 19.63 0 0 1 2.4-2.5 18 18 0 0 0 3-3.3 1.31 1.31 0 0 1 .9-.3.68.68 0 0 0 .6-.9.51.51 0 0 0-.5.1c-.2.2-.4.3-.5.1a.75.75 0 0 1-.1-.5.42.42 0 0 1 .3-.4l.6-.6a.49.49 0 0 1 .7-.1 21.93 21.93 0 0 1 4.2 2.7.85.85 0 0 1-.1 1.5 37 37 0 0 0-7.6 7.3 31.81 31.81 0 0 1-6.3 6.1 3.36 3.36 0 0 0-1 .4c-.4.2-.4.6.1 1.2a4.6 4.6 0 0 1-1.6 1.4.55.55 0 0 0-.5.4 3.54 3.54 0 0 0-.1.6h-.4a1.76 1.76 0 0 0-1.7-.9c-.2.1-.3.2-.2.4a.92.92 0 0 0 .6.4l.8.3 1.5.1a2.12 2.12 0 0 1-1.4.4c-.6 0-1.1-.1-1.4-.1a1 1 0 0 1-.9-1.1.83.83 0 0 1 .9-.9 5.48 5.48 0 0 0 3.6-1.6 3.4 3.4 0 0 0-2.6.3 3.85 3.85 0 0 1-1.9.6 3.85 3.85 0 0 0-1.9.6c-.2.2-.4.1-.6-.2m21.6-12.6a2 2 0 0 1 1.2-.9c.4.1.5.6.4 1.4a5.92 5.92 0 0 0 .4 2.8 2.55 2.55 0 0 1-.3 2.7c-.9.8-1.5 1.4-1.9 1.8-2.6 2.2-4.5 3.9-5.7 5s-2.4 1.6-3.5 1.2a2.53 2.53 0 0 0-1.9.1 4.23 4.23 0 0 1-2 .5 19.7 19.7 0 0 1-2.1-.1l4.2-4.1a26.54 26.54 0 0 1 4.6-3.7 16.57 16.57 0 0 0 3.6-3.1 26.08 26.08 0 0 0 3-3.6M122.3 243.2l-.6 7.7a18.11 18.11 0 0 0 .4 4.9c.5 2.5.7 4.1.8 4.8a.74.74 0 0 0 1 .8c1.8-.2 2.8-1.1 3-2.6l.2-1.7a26.7 26.7 0 0 0 .6-3.5 13.13 13.13 0 0 1 .6-3.5c.2-.8-.2-2.2-1.4-4.3s-2.2-3.3-3-3.7a1.14 1.14 0 0 0-1.6 1.1m2.4 4.8c1.1.6 1.7 1.9 1.7 3.8a17.78 17.78 0 0 0-.4 3.6 8.65 8.65 0 0 1-.7 3.7 3.92 3.92 0 0 1-.4.9.62.62 0 0 1-.7.4.56.56 0 0 1-.5-.6v-.9a7.87 7.87 0 0 1 .4-2.2 5.16 5.16 0 0 0 .3-2.3c0-.1 0-1.1-.1-2.7a6.85 6.85 0 0 0-.5-2.7.62.62 0 0 1 .1-.9c0-.4.3-.3.8-.1m-16.6-23.7c-.9-.1-1.2.2-1 .9a20.59 20.59 0 0 1 .8 5.4c.1.6.2 1.4.4 2.5a4.94 4.94 0 0 1-.3 2.5 2.36 2.36 0 0 0-.1 1.7 3 3 0 0 1 .1 1.6c-.1.2.1.3.5.4a1.57 1.57 0 0 1 1 .4l.4.2a7.1 7.1 0 0 0 1.6-3c.5-1.9.8-3 .9-3.2a4.33 4.33 0 0 0-.5-4.8 11.53 11.53 0 0 1-1.6-2.8 2.38 2.38 0 0 0-2.2-1.8m3.2 7.2a1.81 1.81 0 0 1 .1 1.6c-.1.3-.3.7-.5 1.3a28.4 28.4 0 0 0-.5 3 1.09 1.09 0 0 1-.1.5.52.52 0 0 1-.4.2.34.34 0 0 1-.4-.2.75.75 0 0 0-.1-.5l-1.4-10.6a22.39 22.39 0 0 1 3.3 4.7m-15-24.7a9.5 9.5 0 0 0-1.6-1.9 14.72 14.72 0 0 0-.9 3.2 47.39 47.39 0 0 0 .7 9.1 1.26 1.26 0 0 0 .8 1.1 2 2 0 0 1 1.5.6 6 6 0 0 1 .8 1.3l2.2 3.3a.62.62 0 0 0 .6.4.74.74 0 0 0 .4-.6 19.46 19.46 0 0 0 .3-5.6 19.18 19.18 0 0 0-.6-3 6.47 6.47 0 0 0-1.4-2.6 1.65 1.65 0 0 1-.6-2 1.09 1.09 0 0 0-.5-1.6 5.45 5.45 0 0 1-1.7-1.7m-.6 3.7a9 9 0 0 1 3.7 5.5 51.63 51.63 0 0 1 .6 6.4c-3-2.8-4.4-6.8-4.3-11.9m8.6-12.9a.48.48 0 0 0 0 .7 18.15 18.15 0 0 1 1.9 4.4c.3 1 .8 2.5 1.4 4.5a22.8 22.8 0 0 0 1.3 3.2 7.14 7.14 0 0 0 2.5 2.4 2.23 2.23 0 0 1 .7.7 16.09 16.09 0 0 1 1.9 1.9 7.68 7.68 0 0 0 2.2 1.7 4.08 4.08 0 0 0 .7.2.93.93 0 0 0 .4-.7 4.29 4.29 0 0 0 0-1.6s-.2-.5-.5-1.4c-1.3-3.5-2.1-6.1-2.2-8a.8.8 0 0 0-.6-.9c-.5-.1-.7.1-.7.6a1 1 0 0 1-.3.9 1.19 1.19 0 0 1-.9-.2.67.67 0 0 0-.8.3c-.2.3-.3.6-.1.6a4.11 4.11 0 0 1 1.3 2.8 3.8 3.8 0 0 0 1.3 2.7 8.46 8.46 0 0 1-4.5-4.6 60 60 0 0 0-2.2-6.1 3.67 3.67 0 0 1 1.5 1 2.2 2.2 0 0 0 1.8.6 8 8 0 0 0-2.2-3.2c-1.3-1.1-2.3-2-2.9-2.6-.1-.4-.5-.3-1 .1m13.1-28.1a1.86 1.86 0 0 0-1.4-1.3 6.69 6.69 0 0 0-4.8.4 5.68 5.68 0 0 0-3.3 3.5l-1.9 4.7a21.22 21.22 0 0 0-1.5 4.8 6.82 6.82 0 0 0-.1 1.2.89.89 0 0 0 1.1.3.85.85 0 0 1 1.1.9 15.71 15.71 0 0 0 1.5 2.9 13.35 13.35 0 0 1 1.8 3.9c.8 2.7 2.8 4.2 5.9 4.7a10.2 10.2 0 0 1-4.3-4.8c-1.1-2.5-1.9-4.6-2.4-6a21.34 21.34 0 0 0 3.2 2.1 5.21 5.21 0 0 1 2.6 2.7c.6 1.5 1.6 3.8 3.1 6.8a4.55 4.55 0 0 1-1.4.1 2 2 0 0 0-1.4.4 6.17 6.17 0 0 0 3.7.2c1-.1 1-.5.2-1.2a3.84 3.84 0 0 1-1.5-2.4 13.53 13.53 0 0 0-2.9-6.6 5.24 5.24 0 0 1-1.7-3.4 6.32 6.32 0 0 1 1.4-3.4 3.64 3.64 0 0 1 3-1.7h1.5c1.4-.1 2.1.5 2 2v6.1a23.76 23.76 0 0 1-.9 6 .8.8 0 0 0 .3 1.1.47.47 0 0 0 .6-.1.91.91 0 0 1 .3-.5 1.7 1.7 0 0 0 .6-1 6.6 6.6 0 0 1 .4-1.1 13.94 13.94 0 0 0 .6-3.3c0-2 .1-3.1.1-3.3a17.42 17.42 0 0 0-1.8-9.5 16.49 16.49 0 0 0-1.3-2.4 4.74 4.74 0 0 0-1.8-1.9 1.59 1.59 0 0 1-.6-.9m-5.8.8a2.3 2.3 0 0 1-.3-.9 3.78 3.78 0 0 1 .8-.5c1.4-.6 2.5-.5 3.3.4s1.7 1.9 3.1 3.5a17.6 17.6 0 0 1 2.7 4 18.52 18.52 0 0 1-2.3.4c-1.2.1-1.9 0-1.9-.5a2.76 2.76 0 0 0-1.4-2.2 4.21 4.21 0 0 1-1.8-1.9 2.7 2.7 0 0 0-.9-1.1 3.85 3.85 0 0 1-1.3-1.2m-3.8 9.3a4.61 4.61 0 0 1 .7-2.1 21.06 21.06 0 0 0 2.4-6.2 3 3 0 0 0 1.3 1.7 7.3 7.3 0 0 1 1.6 3 5.63 5.63 0 0 1-1.4 3.2 5.12 5.12 0 0 0-.9 4.2 5.63 5.63 0 0 1-2.6-1.7 3.6 3.6 0 0 1-1.1-2.1m94.9-39.1a.78.78 0 0 0 .4.9 9.48 9.48 0 0 0 2.9 1.5c.8.4 2 1.1 3.7 1.9a11 11 0 0 0 4 1.1 3.72 3.72 0 0 1 2.2.5l.9.9a.45.45 0 0 0 .5 0 27.39 27.39 0 0 1 4.1-1c1-.2 2.4-.4 4.2-.7a7.4 7.4 0 0 0 3.7-1.7 41.57 41.57 0 0 1 4.6-3.4 15.22 15.22 0 0 0 4.5-4.1 14.38 14.38 0 0 0 2.4-4.8c.6-2.3 1.1-4 1.4-5.2.1-.3.4-.9.8-1.9a4.5 4.5 0 0 0 .6-1.9c.3-1.5.5-2.6.6-3.4a2.94 2.94 0 0 0-1.9-3l-.2-.4a19.09 19.09 0 0 0-4.5-4.5 2.46 2.46 0 0 0 .1 1.2 1.7 1.7 0 0 0 .6.6 28 28 0 0 0 1.9 2.8 5.8 5.8 0 0 1 1.2 3.2 7.12 7.12 0 0 1-.1 1.6 1.44 1.44 0 0 1-.9 1.1 1 1 0 0 1-1.2-.3 7.35 7.35 0 0 1-.8-1.2 29.24 29.24 0 0 0-2.7-3.3 5.42 5.42 0 0 0-2.8-1.3 7.07 7.07 0 0 0-3.1.9 12.31 12.31 0 0 0-2.8 2.3 20.12 20.12 0 0 1-2.8 2.4 35.09 35.09 0 0 0-3.5 3.2c-1.7 1.8-2.9 3.2-3.7 4.1a24.57 24.57 0 0 1-4.2 3.6c-1.9 1.2-3 2.2-3.2 3a4.75 4.75 0 0 1-.9 1.9c-.6.5-1.1.9-1.4 1.2a8.54 8.54 0 0 1-1.5 1.3 2 2 0 0 1-2.1 0c-.5-.1-.8.2-1 .9m5.2.6c-.2 0-.4.1-.6.1a.43.43 0 0 1-.4-.4 1 1 0 0 1 .6-1.1l3.7-1.2c1.2-.4 3.1-1 5.6-1.7a47.43 47.43 0 0 0 5.5-2 92.15 92.15 0 0 0 10.8-5.6c.4-.2 1.3-.8 2.9-1.7a20.86 20.86 0 0 0 2.9-1.9.47.47 0 0 1 .6-.1.91.91 0 0 1 .5.3c.3.1.4.2.3.4a.91.91 0 0 1-.3.5 20.12 20.12 0 0 0-2.1 7.4 3.66 3.66 0 0 1-1.2 2.5c-.2.2-.9 1-2.1 2.2l-1.1.9q-5.25 5.7-15 6.6a2.77 2.77 0 0 1-2.1-.4c-.9-.5-2.8-1.4-5.8-2.7l1.2-.4a2.28 2.28 0 0 0 1.2-.6 15.57 15.57 0 0 0-5.1-1.1m21.1-20.8a9.91 9.91 0 0 0 2.3-2.4q1.35-1.8 2.7 0c1.2 1.7 1.8 2.9 1.7 3.7s-.8 1.6-2.2 2.7l-3.1 2.5a6.42 6.42 0 0 0-1.6 2.3 4.23 4.23 0 0 1-1.8 2.2c-1.2.6-2 1-2.5 1.3a35.53 35.53 0 0 1-7.3 3.2c-1.5.5-4.1 1.2-7.8 2a25.66 25.66 0 0 1 6.2-5.7l5-3.4.4-.2a5.93 5.93 0 0 1 2.4-3.2 16.4 16.4 0 0 0 3.1-2.7c.5-.5 1.3-1.3 2.5-2.3m5.9 5.2c.1-.1.8-.5 2-1.3a.8.8 0 0 1 .8.1c.2.3.2.5-.1.6l-4.2 2.6a5.54 5.54 0 0 1 1.5-2M28.7 107a3.31 3.31 0 0 0-1.4-1.9 3.15 3.15 0 0 0-2.3-.5l2.7 3.9c.5.7 1 1 1.4.7a.35.35 0 0 0 .2-.6 4.57 4.57 0 0 1-.4-.6l-.2-1m-7.6 5.9a1.27 1.27 0 0 0 .9.4 2.17 2.17 0 0 1 1.9 2.6 3.34 3.34 0 0 0 .5-1.7 3.9 3.9 0 0 0-1.1-1.4 14.64 14.64 0 0 0-1.8-1.8 22.17 22.17 0 0 0-1.8-1.7 2.82 2.82 0 0 0-2.4-.9c.9 1.2 1.3 1.8 1.4 1.9a3.68 3.68 0 0 0 1.9 1.1c.3 0 .4.2.4.6a.76.76 0 0 0 .1.9M25.3 98a.75.75 0 0 0-.8.1c-.3.2-.3.5.1.6a18.51 18.51 0 0 1 2.8 3.1 15.89 15.89 0 0 0 3 3.2 7.17 7.17 0 0 0-1.7-4.2c-1.2-1.6-2.3-2.6-3.4-2.8m.3-3.9a.61.61 0 0 0-.6.1c-.3.3-.3.5 0 .7a12.39 12.39 0 0 1 2 2 8.19 8.19 0 0 0 1.9 2.1.47.47 0 0 0 .6.1.72.72 0 0 0 .4-.7c0-.7-.6-1.5-1.7-2.6a6.48 6.48 0 0 0-2.6-1.7M6.2 85.7c2.2-1.7 3.3-2.6 3.5-2.8a2.33 2.33 0 0 0 .6-2.7L.7 89.3a1.35 1.35 0 0 0-.4 1.9 2.24 2.24 0 0 1 1.2-1.4 4.9 4.9 0 0 0 1.4-1.1q1.2-1.2 3.3-3m8.1-3.4c.7-.5 1-1 .7-1.3s-.4-.3-.6-.1a6.82 6.82 0 0 0-.7.5 87.7 87.7 0 0 0-9.4 8.7l-1.4 1.4a3.82 3.82 0 0 0-.9 1.8 2.11 2.11 0 0 0 1-1.1c.3-.5.8-.5 1.4.1.1.1.2 0 .4-.1A23.54 23.54 0 0 1 8 89a23.54 23.54 0 0 0 3.2-3.2 11.26 11.26 0 0 1 3.1-3.5m20.1 13c.1-.3 0-.5-.5-.6a1.64 1.64 0 0 1-1.5-.8 5.94 5.94 0 0 1-.2-1.7 3.18 3.18 0 0 0-1.7-3 26.16 26.16 0 0 1-3.9-2.6 1.66 1.66 0 0 0-2.1 0 3.7 3.7 0 0 1-1.8.8 3.2 3.2 0 0 1-1.9-.5c-1.7-1.2-3.6-1.2-5.9.2a15.32 15.32 0 0 0-3.5 3.3c-.5.7-1.4 2-2.7 4a2.27 2.27 0 0 1-1.2 1.2 2.43 2.43 0 0 1-1.4-.6c0 .8 0 1.9-.1 3.4a31.12 31.12 0 0 0 .1 3.2q.3 1.65.6 5.1a9.53 9.53 0 0 0 1.9 4.8.52.52 0 0 1 .2.6.9.9 0 0 1-.5.6 20.5 20.5 0 0 0-2.8 2.2 11.82 11.82 0 0 1-3 2 1.07 1.07 0 0 0-.7.9 1.2 1.2 0 0 0 .4 1.2 4.33 4.33 0 0 1 .6 2.6 7.68 7.68 0 0 1-1 4.1 34.64 34.64 0 0 0-1.6 4c-.1.9-.2 1.4-.2 1.7a2.45 2.45 0 0 0 .6 1.6c1.1 1.5 1.9 2.7 2.5 3.5a3.64 3.64 0 0 0 1.2 1.1c.5.2.9-.1 1.4-.9a.55.55 0 0 1 1-.2.53.53 0 0 0 .8-.1c.5-.5 1.2-1.2 2.2-2.1.4-.4 1-1.1 1.7-1.9a6.85 6.85 0 0 1 2.1-1.5 45.12 45.12 0 0 0 5.4-2.7 1.56 1.56 0 0 1 2.1.2c.8.7 1.9 1.4 3.2 2.3a1.22 1.22 0 0 0 1.4.1.51.51 0 0 0 .4-.5 3.93 3.93 0 0 1-.2-.6 2.82 2.82 0 0 1 .9-2.7 13.87 13.87 0 0 0 2.7-3 18.22 18.22 0 0 1 2.6-3 .67.67 0 0 0 .2-.9.37.37 0 0 0-.5-.2l-.5.3c-1.3 1.1-2.1 1.6-2.2 1.7a14.57 14.57 0 0 0-4.4 3.9c-1.3 1.9-2.5 1.8-3.7-.1-.3-.6-.5-1.1-.6-1.3a3.91 3.91 0 0 0-.7-.9c.5 1.1.5 1.8-.1 2.3a22.77 22.77 0 0 1-2.1 1 1.82 1.82 0 0 0-1.1.4 23.72 23.72 0 0 1-6.7 3.8 1.5 1.5 0 0 0-.9 1.2 5.26 5.26 0 0 1-1.8 2.1c-1 .8-1.7 1.2-2.2 1.1s-1.2-.8-1.8-2.1a4.48 4.48 0 0 1-.6-2.9 14.68 14.68 0 0 1 2.5-4 2.46 2.46 0 0 1 1.4-1 2.64 2.64 0 0 1 1.5.5 7.43 7.43 0 0 0 1.6.8 7.56 7.56 0 0 0 1.7-.2 3.1 3.1 0 0 1-2.7-1.1 8.26 8.26 0 0 1-1.1-2.6 1.36 1.36 0 0 0-.7-.9 1.59 1.59 0 0 1-1.4-1.4 19.17 19.17 0 0 1 .1-2 5.71 5.71 0 0 1 1.3-2.4 15.64 15.64 0 0 0 1.9-1.8 27.38 27.38 0 0 0 4-4.6 1.69 1.69 0 0 0 .4-1.2 2.94 2.94 0 0 0-.8-.8c-.4 1.4-.7 2.2-.7 2.3a4.44 4.44 0 0 1-1.7 1.9c-.4-2-.6-3.5-.8-4.5a31.2 31.2 0 0 1-.6-4.5 14.27 14.27 0 0 1 .1-3.8 5.35 5.35 0 0 1 2.1-3.2 4.13 4.13 0 0 0 .4-.9 11 11 0 0 1 3.2-4.6 7.73 7.73 0 0 1 5.5-1.7 9.59 9.59 0 0 1 5.8 1.9 12.69 12.69 0 0 0 1.7 1.1 8.06 8.06 0 0 0-2.4-3 4.84 4.84 0 0 1 2.6.7 14.63 14.63 0 0 1 2.2 1.7l1 .5a.81.81 0 0 1 .5.9 8.63 8.63 0 0 0 1 3.4c.2.4.5.9.9 1.7a8.8 8.8 0 0 1 .6 1.7 75.65 75.65 0 0 1-.1 8.3 32 32 0 0 1-.6 4.2 8.33 8.33 0 0 0 .4 4.3c.3 1.2.2 2.1-.4 2.6-.3.3-.3.6.1.8s.9.1 1-.3a26.28 26.28 0 0 0 1.2-6.8c-.1-2.4-.2-4.1-.2-5.3a21.29 21.29 0 0 1 .3-5.3 5.74 5.74 0 0 0 .1-1.2l-.7-2.3a7.79 7.79 0 0 1-.1-3m16.9-19.7a1.17 1.17 0 0 0 .1-1.9c-.6-.6-1.2-.4-1.8.4a12.76 12.76 0 0 1-2 1.8 20 20 0 0 0-1.9 1.5 2.86 2.86 0 0 0-.4 2.4c0 .4-.1.6-.2.6a5.89 5.89 0 0 0-1.6 3.9 9.91 9.91 0 0 1-.9 4.1 1.24 1.24 0 0 0 .1 1.3 10.82 10.82 0 0 1 1.4 3.2 19.87 19.87 0 0 0 1.1 3.3 1.88 1.88 0 0 0 .8-.2l1.2-1a20.63 20.63 0 0 0-.9-2.2 3.11 3.11 0 0 1-.2-2.8 4.24 4.24 0 0 0 .1-2.5 6.89 6.89 0 0 1-.1-3.2 17.13 17.13 0 0 1 1-3 21.4 21.4 0 0 1 4.2-5.7m25.1 9.5c-.4-.7-13.1-7.7-16.4-9a19.42 19.42 0 0 0-5.7-1.4 1.22 1.22 0 0 0-1.7.5q-.3.45.6 1.2a5.91 5.91 0 0 1 1.7 1.3 19.63 19.63 0 0 0 1.7 1.3 1.15 1.15 0 0 1 .7 1.2 7.75 7.75 0 0 0-.2 1.9 4.7 4.7 0 0 1-.3 1.9q-.3 1.05-.9 3a11.81 11.81 0 0 0-.4 3 4.19 4.19 0 0 1-2.7 4.6l-2.4 1.3a8.07 8.07 0 0 1-2.6.9 1.08 1.08 0 0 0-1.1.8 3 3 0 0 0 .1 1.3 3.89 3.89 0 0 0 1.9 1.5c.8.4 2.3 1 4.4 1.8a24.63 24.63 0 0 1 4.4 1.9c.4.2.9.6 1.7 1a2.14 2.14 0 0 1 .8 1.7 4.11 4.11 0 0 0 .7 1.2c2.1 2.3 1.7-.3 1.9-.7a1.69 1.69 0 0 1 1.3-.8 7.75 7.75 0 0 1 1.9-.2c3.6-1.1 6.4-2.2 8.6-5.5.3-.4.7-1 1.4-1.9s1.9-2.4 1.9-2.9c.2-1.9.4-3.4.4-4.3a8 8 0 0 0-.7-4.6m-14.8-6.4a1.59 1.59 0 0 1 .6 2.6 1.2 1.2 0 0 0-.6 1.2.91.91 0 0 0 1 .5 1.87 1.87 0 0 1 1.6.7 2.37 2.37 0 0 1 .2 1.6 5.1 5.1 0 0 0 .5 3.1c.8-3.2 1.3-5.1 1.4-5.7a5.64 5.64 0 0 1 .1-.7.46.46 0 0 1 .5-.4.91.91 0 0 1 .8.4 7.23 7.23 0 0 1 .4.7 12.66 12.66 0 0 1 .9 5.8 8.17 8.17 0 0 0 .1 1.4 1.27 1.27 0 0 0 .6-.1 1.42 1.42 0 0 1 .2-.4 4.74 4.74 0 0 1 1.2-1.9 9.26 9.26 0 0 0 1.2-1.9c.2-.8.6-1 1.1-.8a1.11 1.11 0 0 1 .7 1.4 10.11 10.11 0 0 0-.4 1.9c0 .6.6.9 1.7.9.1 0 .1.2.1.6v2.6c0 .6 0 .8-.1.6a4.21 4.21 0 0 0-.2-.5 1 1 0 0 0-1.1.6 9.78 9.78 0 0 1-1.7 2.4 18 18 0 0 0-2 2.2 4.84 4.84 0 0 1-2.4 1.6c-1.3.4-2.4.7-3 .9a4.73 4.73 0 0 1-2.1.5 3.59 3.59 0 0 1-1.1-1.9 1 1 0 0 0-1.1-.9 2 2 0 0 1-1.2.2c-.4 0-.7.1-.7.4a3.22 3.22 0 0 0 .1.8c0 .4 0 1.3.1 2.9a26.88 26.88 0 0 0-5-3 27.66 27.66 0 0 1-5-2.9 3.84 3.84 0 0 0 3.5-1.2c.3-.3.8-.7 1.4-1.2a13 13 0 0 0 1.2-1.4c1-1.9 2-4.1 3.1-6.6.2-.6.5-1.5.9-2.9a18.64 18.64 0 0 1 .9-3c0-.4.1-.7.1-.9a.37.37 0 0 1 .5-.4 2.43 2.43 0 0 0 1 .2m3.9 22.5a6.05 6.05 0 0 1 1.9-.2 5.15 5.15 0 0 1-3 1.4 4.43 4.43 0 0 1 1.1-1.2z" class="cls-7" data-name="Layer0 14 FILL" fill="#231f20"/></svg>