<svg id="dal__chili" xmlns="http://www.w3.org/2000/svg" data-name="dal__chili" viewBox="-0.019 -0.001 187.019 202.031"><g data-name="Layer1 21 FILL"><path d="M6.5 169.93l-.9.3a6.66 6.66 0 0 0-4.5 6.8 6.56 6.56 0 0 0 2.3 5 49.8 49.8 0 0 1 6.5 6.3 42.55 42.55 0 0 1 2.5 5.8q2.85 4.8 7.8 4.8a6.6 6.6 0 0 0 5.9-3 8.23 8.23 0 0 0 1.4-4.5 6.91 6.91 0 0 0-.6-2.4 34.73 34.73 0 0 0-3.3-6 86.41 86.41 0 0 0-5.1-7.2c-4.6-4.8-8.6-6.7-12-5.9z" class="cls-1" fill="#f2dcc3"/><path d="M30 158.63c-.8-2.2-2.7-3.7-5.6-4.6a7.27 7.27 0 0 0-1.9-4.8 6.59 6.59 0 0 0-4.1-2.3c-4.1-.6-7.1 2.1-9 8a56.54 56.54 0 0 0-2.2 8.6 54.28 54.28 0 0 0-.8 6.3c3.4-.8 7.4 1.1 11.9 5.8a86.42 86.42 0 0 1 5.1 7.2 38.84 38.84 0 0 1 3.3 6 7.11 7.11 0 0 0 1.6-3.5c0-4.2.1-6.6.2-7.2a67.81 67.81 0 0 0 1.9-14.4 13.65 13.65 0 0 0-.4-5.1z" class="cls-2" fill="#ebc294"/></g><g data-name="Layer1 22 FILL"><path d="M79.8 193.73c2.5 0 4.2-2 4.9-6.1a50.08 50.08 0 0 0 .3-6.8c0-3.6-.5-6.4-1.5-8.3s-2.1-2.4-3.3-1.8c-3.3 1.5-4.9 7.8-4.9 18.6l.6 2.2c.6 1.5 2 2.2 3.9 2.2m16-56.2c-.9-2.7-1.9-4.1-3.2-4.2-1.9-.1-3.2 2.1-3.9 6.5 1.4.1 2.1 2.2 2.2 6.4a129.58 129.58 0 0 1 1 13.6v5.2a4.83 4.83 0 0 1-.9 2.3 3.26 3.26 0 0 0 1.4.4q3.45 0 4.5-8.7c.2-1.9.4-5.2.4-9.9a43.6 43.6 0 0 0-1.5-11.6m31.5-93.1a29.28 29.28 0 0 0-4.7-1.2c-4.5-.7-8.3-.5-11.4.7-3.5 1.4-5.2 3.7-5.2 6.9a9.24 9.24 0 0 0 .9 3.9 6.09 6.09 0 0 0 5.8 3.5 5.26 5.26 0 0 1 .6 1.5 28.47 28.47 0 0 1-1.2 2.7 11.31 11.31 0 0 0-1.2 3.7 9 9 0 0 0 .9 3.4l.9 2a15.7 15.7 0 0 1-.7 2.3 11.35 11.35 0 0 0-.7 3.3 12.24 12.24 0 0 0 .6 4.1 20.77 20.77 0 0 0 1.7 3.2 5.73 5.73 0 0 0-5 3.6c-.7 3.9-1.3 6.4-1.9 7.3-.7 1.2-1.3 3.9-1.7 8.1a1.27 1.27 0 0 1-.1.6 8.71 8.71 0 0 1 1.4 3.6 69.74 69.74 0 0 1 1.8 10.9c0 .5.7 4 2 10.4a20.69 20.69 0 0 1 .4 2.2 7.8 7.8 0 0 0 2.2.4q5.7 0 7.2-6c.3-4.2.4-6.4.4-6.6 5.7-.5 8.7-4.3 9.2-11.4 0-.9 1.2-2.9 3.4-5.8s3.2-5.2 3.2-6.7a10.52 10.52 0 0 1 2.7-6.8c2-2.4 3.1-4.2 3.3-5.5.8-4.4 1.2-6.9 1.3-7.3a55.67 55.67 0 0 0 .4-6.3 42.23 42.23 0 0 0-3.7-17.7 16.88 16.88 0 0 0-1.7-3 6 6 0 0 1-2.7.6h-.3c-.5-.5-1-.9-1.6-1.4a20.76 20.76 0 0 0-6.5-3.2z" class="cls-3" fill="#de1f26"/><path d="M105 104.03a2.68 2.68 0 0 0-3.8-.9c-2.3 1.2-3.5 2.9-3.5 5.1 0 .9.5 3.9 1.4 8.9 1 5.4 1.5 8.5 1.5 9.2.2 1.5.4 5.1.6 10.7.8 4.8 2.9 7.3 6.3 7.3a4.51 4.51 0 0 0 3.5-1.4 4.76 4.76 0 0 0 .9-2.9 60.71 60.71 0 0 0-1.3-8.7c-.1-.7-.3-1.4-.4-2.2-1.3-6.4-2-9.9-2-10.4a67.54 67.54 0 0 0-1.8-10.9 10.09 10.09 0 0 0-1.4-3.8z" class="cls-4" fill="#bf2026"/><path d="M133.9 12.23c-2.3-1.5-4.1-1-5.3 1.7-.4 1.1-.7 4.1-.7 8.9v2.2a4.68 4.68 0 0 0-1.6.2 4.22 4.22 0 0 0-3 2.4c-.3 1.1-1.1 2.9-2.2 5.5a15.44 15.44 0 0 0-1.4 5.8 4.93 4.93 0 0 0 .6 2.3 3.84 3.84 0 0 0 3.7 2 4.11 4.11 0 0 0 2.6-.9l.2.2a4 4 0 0 1 .4 1.8 25.48 25.48 0 0 1 6.8 3.4 10.7 10.7 0 0 1 1.6 1.4h.3a5.4 5.4 0 0 0 2.7-.6 4.86 4.86 0 0 0 2.1-3 19.26 19.26 0 0 0 .4-4.3 11.93 11.93 0 0 0-1.3-4.9 8.49 8.49 0 0 0-3-3.8v-1.9l-.2-1.6v-11.6c.5-2-.4-3.7-2.7-5.2z" class="cls-5" fill="#8fab3d"/></g><path d="M184.7 111.03c-1.9-2.4-4.3-3-7.3-1.9q-4.05 1.35-4.8 3.9a43.83 43.83 0 0 0-.6 9.1c0 .4 0 2.9.1 7.5 1 4.5 3.5 6.7 7.7 6.7a6.57 6.57 0 0 0 5.8-2.9 7.29 7.29 0 0 0 1.4-4.2c-.2-9.6-1-15.6-2.3-18.2z" class="cls-3" data-name="Layer1 23 FILL" fill="#de1f26"/><path d="M123.4 99.03a1.68 1.68 0 0 0-1.2 1.6v10.7q0 1.65.9 1.5c.6 0 .9-.5.9-1.6a22.75 22.75 0 0 0-.1-2.4c-.1-1.3-.2-2.1-.2-2.5-.1-4.4-.2-6.8-.3-7.3m2.8-7.8q-.6 0-.6 1.2s-.1 2-.2 6l-.1 2.4a1 1 0 0 0 1 1.2.55.55 0 0 0 .6-.4c0-.3-.1-.6-.1-.8v-9.2a.5.5 0 0 0-.6-.4m56 15.7a1.28 1.28 0 0 1-1.2 0 2.69 2.69 0 0 0-.9-.6 8.65 8.65 0 0 1-.7 1.9 3.24 3.24 0 0 1-1.8.6 5.9 5.9 0 0 0-3.3 2.1 6.33 6.33 0 0 0-1.5 3.2c-.1.8-.3 2.1-.4 3.7a24.41 24.41 0 0 1-.4 3.8 9.34 9.34 0 0 0 .3 3.1 14.45 14.45 0 0 1 .4 3 34.28 34.28 0 0 0 1.9 14.2 2.6 2.6 0 0 0 .9 1.4 2.75 2.75 0 0 0 1.7-.2 5 5 0 0 0 1.3-.9 2.78 2.78 0 0 1 1.3-.7 3.16 3.16 0 0 0 2.4-1.5 17.75 17.75 0 0 0 1.4-2.3 17 17 0 0 0 1.7-6.5 4.12 4.12 0 0 1 .1-1.2 1.08 1.08 0 0 1 1-.8.53.53 0 0 0 .3-.2.75.75 0 0 0-.1-.5 3.43 3.43 0 0 1-.4-2.3c.1-1 .2-1.8.3-2.3a13 13 0 0 0-.4-2.9 8.09 8.09 0 0 1-.4-2.8 13.62 13.62 0 0 0-1.3-5.8 20.56 20.56 0 0 1-1.5-2.4 2.8 2.8 0 0 1-.2-2.8.6.6 0 0 0-.1-.4.48.48 0 0 0-.4.1m-3.9 5.3a.37.37 0 0 1 0-.6 4 4 0 0 1 2-.7 1.09 1.09 0 0 1 .8 1 72.84 72.84 0 0 1 2.1 16.8 16.09 16.09 0 0 1-1.2 4.6 18.87 18.87 0 0 1-.6 2.1 8.92 8.92 0 0 0-.3 2.2 1.54 1.54 0 0 1-1 1.6 10.78 10.78 0 0 1-1.9.6l.6-.9a1.72 1.72 0 0 0 .2-1.2l.1-.4a9.43 9.43 0 0 0 2.1-6.5 14.21 14.21 0 0 1 .2-4 3.07 3.07 0 0 0 0-1.9 12.1 12.1 0 0 1-.4-2c0-3-.1-4.9-.2-5.9a7.25 7.25 0 0 0-.9-2.2 6.86 6.86 0 0 1-1.1-2l-.5-.6m.5 22.4a7.91 7.91 0 0 1-1.1 2.4c-.3.5-.9 1.3-1.6 2.4a9.33 9.33 0 0 1-.9-3.9c-.1-2.3-.2-3.7-.3-4.3a16.18 16.18 0 0 0-1-4.2 1.69 1.69 0 0 1 .2-1.5 2.42 2.42 0 0 0 .4-1.3 32.35 32.35 0 0 1 .3-3.5 28.83 28.83 0 0 0 .3-3.5 2.67 2.67 0 0 1 .4-1.7.84.84 0 0 1 .9-.6 1 1 0 0 1 .6.8c2.2 5.3 2.8 11.5 1.8 18.9m-102 30.5a13 13 0 0 1-2.1-.4c-.8-.1-1.4-.2-1.7-.2a1.41 1.41 0 0 0-1.2 1.4 6.28 6.28 0 0 1-.9 2.5 11.22 11.22 0 0 0-1.2 3.3 13.22 13.22 0 0 1-.8 4 15.88 15.88 0 0 0-1.2 6c-.1 3.4-.3 5.4-.4 6.1a11.11 11.11 0 0 0 .1 3.6 29.94 29.94 0 0 1 .6 3.6 5.39 5.39 0 0 0 .3 2.2 2.85 2.85 0 0 0 1.9 1.8l-1.1-2.9a1 1 0 0 1 .5-1c.5-.2.7-.2.7.2a3.46 3.46 0 0 0 1.1 2.2 2.35 2.35 0 0 1 .6 2.4 1.09 1.09 0 0 0 .1.5.76.76 0 0 0 .5.2c.4 0 .5-.2.4-.7a17.46 17.46 0 0 1 .2-3.6c.1-.9.4-1 1-.4a15.17 15.17 0 0 0 1.9 2.1c.3.3.5.6.6.7.1.4-.2.7-.8.9s-.7 1 .1 2.4a1.77 1.77 0 0 1 .9-1.7 1.71 1.71 0 0 0 1-.9 5.21 5.21 0 0 1 .6-2.2 9.81 9.81 0 0 0 .8-2 29 29 0 0 1 1.2-3.9c.4-1.5.8-2.7 1-3.4a17.05 17.05 0 0 0 .4-2.3 8.89 8.89 0 0 1 .5-2.3 17.37 17.37 0 0 0 .9-3 3.83 3.83 0 0 0-.8-3 5.65 5.65 0 0 1-1.1-2.5c0-.3-.1-1.2-.1-2.7a33.7 33.7 0 0 0-.1-4 3 3 0 0 0-.4-1.5c-.3-.4-.8-.4-1.7.1-.4.3-.7.1-.9-.4.1-.5-.5-.9-1.4-1.2m2.2 7.1a.6.6 0 0 1 .4.1.3.3 0 0 1 .1.4 4.89 4.89 0 0 0 .3 2.2 8 8 0 0 1 .4 2.1c.6 2.9 0 6.1-1.7 9.6a8.37 8.37 0 0 0-.1 1.2 27.45 27.45 0 0 1-1.4 8.4c-.2.8-.6.9-1 .3s-.9-1.3-1.2-1.7a4.55 4.55 0 0 1-.8-1.9.67.67 0 0 1 .3-.7 6.73 6.73 0 0 0 1.7-2.4 6 6 0 0 0 .9-2.9 5.79 5.79 0 0 0 .4-1.3 82.93 82.93 0 0 0 1.5-9.8 4 4 0 0 0-.4-2.7 1.29 1.29 0 0 1 .6-.9m-3.4-2.3a11.24 11.24 0 0 1-.4 2.4 5.37 5.37 0 0 1-1.2 2.4 25.78 25.78 0 0 0-1.2 2.4 9.22 9.22 0 0 0-.2 3 13.3 13.3 0 0 1 0 2.9c2-2.4 3-5.8 3.2-10.1a1.22 1.22 0 0 1 1 1.5c-.8 5.8-1.3 9.6-1.7 11.2a65 65 0 0 1-2.3 7.6 66.75 66.75 0 0 1-1.9-7.2c-.1-.4-.2-.7-.2-.7a.73.73 0 0 0-.6.1 1.38 1.38 0 0 0-.4.3.4.4 0 0 1-.4-.2.65.65 0 0 1 .1-.9 1.19 1.19 0 0 0 .5-.9 8.66 8.66 0 0 0-.1-1.1 12.78 12.78 0 0 1 .2-2.6c.3-1.1.5-1.9.6-2.5.4-2.1.8-4.2 1.1-6.6a3.72 3.72 0 0 1 .6-1.5 6.18 6.18 0 0 0 .4-1.6.6.6 0 0 1 .3-.6 2 2 0 0 1 .8-.4.55.55 0 0 1 .6.4l.2.6a3.41 3.41 0 0 1 1 2.1m-55.9 6.2a2.13 2.13 0 0 0-.8.5v.4l.2.2a2.57 2.57 0 0 1 1.6 1 9.88 9.88 0 0 0 1.3 1.4.82.82 0 0 0 1.2.1c.4-.4.4-.7-.1-1.1a3.53 3.53 0 0 1-.9-1.1c-.3-.5-.6-.9-.8-1.2l-.9-1.2a1.19 1.19 0 0 1-.8 1m-5.9-27.4a7.21 7.21 0 0 0-2.4 1.3 8.51 8.51 0 0 1-2.5 1.3c-.4.1-.6.3-.5.6a32.19 32.19 0 0 1-.2 3.5 5.7 5.7 0 0 0 .4 3.5 1.89 1.89 0 0 1 .1 1.1 5.8 5.8 0 0 1-1.7 2.7l-2.2 2.2-.5.3a.44.44 0 0 0-.1.5.9.9 0 0 1 0 1 2.49 2.49 0 0 1-.7.5 2.29 2.29 0 0 0-.9 2.1 9.46 9.46 0 0 1-1 4.5 3.42 3.42 0 0 0-.4 2.3.91.91 0 0 1-.1.8 1.92 1.92 0 0 0-1.1 1.5 2.76 2.76 0 0 0 .2 1.4 11.23 11.23 0 0 1 1 3.8 8.54 8.54 0 0 0 1.1 3.7 1.87 1.87 0 0 0 .4-.9.88.88 0 0 1 .6-.7 14.77 14.77 0 0 1 .9 1.8 2 2 0 0 0 .9 1.2 2.66 2.66 0 0 1 1.8 1.2 6 6 0 0 0 1.3 1.4 1.87 1.87 0 0 1 1.1 1.4.68.68 0 0 0 .3.7 1.54 1.54 0 0 0 .7.3 2.26 2.26 0 0 1 1.6 1.2 2.55 2.55 0 0 1 0 2.1 5.44 5.44 0 0 1 2 .4c.4.1 1.1.4 1.9.7a6.31 6.31 0 0 1 .9.4c.3 0 .5-.3.4-1a.4.4 0 0 1 .4-.5.55.55 0 0 1 .7.3 1.29 1.29 0 0 0 1.2.5 7.38 7.38 0 0 1 2.5.1 3.32 3.32 0 0 0 2.4-.5c.3-.2.5 0 .7.4.6 1 1.2 1 1.6-.1a1.6 1.6 0 0 1 .9-.7 1.42 1.42 0 0 0 1.1-.7 1.45 1.45 0 0 0-1.1-1.2.91.91 0 0 1-.7-.3.36.36 0 0 1-.1-.5 2 2 0 0 0 .4-2.1 2.56 2.56 0 0 1 .3-2.2.48.48 0 0 0 .1-.4.54.54 0 0 0-.4-.4.48.48 0 0 0-.4.1 1.69 1.69 0 0 1-.2.5 7.76 7.76 0 0 0-.5 1.8c0 .4-.1 1.1-.2 1.9a1.55 1.55 0 0 1-1.7 1.6c-1.2 0-1.9-.1-2-.1a3.58 3.58 0 0 0-1.9.4 6.25 6.25 0 0 1-2.5.4c-1.5 0-2.4-.1-2.6-.1a.56.56 0 0 1-.6-.2.86.86 0 0 1-.3-.6 1.91 1.91 0 0 0-.7-1.2 57.74 57.74 0 0 1-4.4-4.2 2.48 2.48 0 0 1-.7-2.2c.1-.9-.2-1.3-1-1.3-.5.2-.7.2-.6-.1a2.16 2.16 0 0 0-.5-1.7 6.42 6.42 0 0 1-1.2-1.3 6.59 6.59 0 0 1-1-4.5c.4-2 .6-3.5.7-4.5a.46.46 0 0 1 .5-.4 3.22 3.22 0 0 0 .8-.1h1.2a1.59 1.59 0 0 0 1.2-.4 4.87 4.87 0 0 0-1.5-.2 2.81 2.81 0 0 1-1.5-.3 1.94 1.94 0 0 1 1.4-.9 10.36 10.36 0 0 1 1.6.1 8.68 8.68 0 0 1 1.6.6 4.08 4.08 0 0 0 1.6.4 5 5 0 0 1 3.1.8s.8.7 2.4 1.9a3.81 3.81 0 0 1 .5.6.48.48 0 0 0 .7 0c.4-.3.4-.8-.2-1.4a2.82 2.82 0 0 1-.9-1.2 1.31 1.31 0 0 1 .4-1.5.37.37 0 0 0 0-.6 1.63 1.63 0 0 1-.6-.3 11.6 11.6 0 0 0-1.6-.3 3.51 3.51 0 0 1-1.6-.3c-1.4-.6-2.3-.9-2.6-1.1a7 7 0 0 0-2.8-.4q-1.05 0-.6-.6a1.25 1.25 0 0 0 0-.9c0-.4.1-.6.6-.5h2.6a6.13 6.13 0 0 1 2.5.6.92.92 0 0 0 1.4-.4.47.47 0 0 0-.1-.6 1.63 1.63 0 0 1-.6-.3 14.69 14.69 0 0 0-2.3-1.2 8.8 8.8 0 0 1-2.4-1.2 3.33 3.33 0 0 0 .6-.3 11.7 11.7 0 0 0 3.5.9 21.21 21.21 0 0 1 3.6.6.94.94 0 0 0 1.4-.4q.3-.6-.9-.9a20.81 20.81 0 0 0-3.2-.6 7.11 7.11 0 0 1-2.8-.7c-.8-.3-.9-.9-.3-1.7a11 11 0 0 1 2.1-1.8c.5-.2.6-.5.2-.9a.81.81 0 0 0-.8.1l-1.8 1a11 11 0 0 1 .2-2.2 19.4 19.4 0 0 1 .1-2.7 2.82 2.82 0 0 1 1.4-2.3 19.26 19.26 0 0 0 3.6-2.5.52.52 0 0 1 .8-.1 10.19 10.19 0 0 0 3.7 1.4.71.71 0 0 1 .6.8q0 1 1.2.9a3 3 0 0 1 1.4.5 17 17 0 0 1 3.3 3.3 29.93 29.93 0 0 0 3 3.5c1.1 1 1.4 1.8.9 2.6a12 12 0 0 0-1.4 4.3c-.8-1.5-1.3-2.4-1.4-2.7a1.06 1.06 0 0 0-.9-.9 4.12 4.12 0 0 1-1.2-.1c-.6-.1-.9 0-.9.4a2.45 2.45 0 0 0 .6 2.2 5.62 5.62 0 0 1 1.4 2.7q.15.6.6 2.1a5 5 0 0 0 1.1 1.9 2.84 2.84 0 0 1 .6 3.5 56.16 56.16 0 0 0-2.4 7.9l-1.2-1.2a1.27 1.27 0 0 0-.6-.1.44.44 0 0 0-.1.3v.3a1.71 1.71 0 0 1 .6.9.94.94 0 0 0 .8.6 2 2 0 0 0 1.9-1.1 13.21 13.21 0 0 0 1.7-4.5 16.28 16.28 0 0 1 1.5-4.5 2.6 2.6 0 0 0-.3-1.5 8.47 8.47 0 0 1-.4-1.7c0-.8.1-1.4.1-1.8a2.94 2.94 0 0 1 .3-.9 1.21 1.21 0 0 0 .1-1 3.27 3.27 0 0 1 .6-3.5 1.18 1.18 0 0 1 .9.9 4.08 4.08 0 0 0 .2.7.42.42 0 0 0 .6.3.55.55 0 0 0 .3-.5 4.08 4.08 0 0 1-.2-.7 2.83 2.83 0 0 0-.4-1.3 33.31 33.31 0 0 1-1.9-3.8c-1-2.2-1.5-3.5-1.7-3.9a2.28 2.28 0 0 0-.8-1.2c-1.5-1.4-2.2-2.9-2-4.3a1.29 1.29 0 0 1 .1-.7.37.37 0 0 1 .4-.4c.7 0 1-.1.9-.4a3.92 3.92 0 0 0-.4-.9 16.77 16.77 0 0 0-1.4-2.3 7.08 7.08 0 0 0-2.4-2 26.69 26.69 0 0 1-2.7-1.5c-1.3-.7-2.1-1-2.5-.8s-.8 1.2-1.2 2.7l-.1.4a27.2 27.2 0 0 1-1.4 2.9 7.89 7.89 0 0 1-3 1.6m10.1-2.2a4.64 4.64 0 0 0 1.9.9.52.52 0 0 1 .4.8 2 2 0 0 0-.1 1l-.1.4v1.3a.85.85 0 0 1-.5.9 1.1 1.1 0 0 1-1.1-.4 7.22 7.22 0 0 1-1-.8c-.6-.5-1.1-.9-1.4-1.2a1.85 1.85 0 0 0-1.9-.2c-.3.1-.6-.1-.9-.7a2.29 2.29 0 0 1-.1-1.8 1.6 1.6 0 0 0 .3-.8 5.72 5.72 0 0 1 .1-1.4.91.91 0 0 1 .6-.9 1.1 1.1 0 0 1 1.1.4c.2.2.5.6.9 1.1a12.87 12.87 0 0 1 1.8 1.4m85.5-2.8a4 4 0 0 0 .2-2.4 13.43 13.43 0 0 0-2.2 4.2.37.37 0 0 0 .1.3.25.25 0 0 0 .3.2c.4 0 .6-.1.6-.4a18.85 18.85 0 0 0 1-1.9m-15.9-7.2v-1.8a1.51 1.51 0 0 0-.9-1.4 2.61 2.61 0 0 0-3.3.4.63.63 0 0 0-.3.9.81.81 0 0 0 .8-.1 1.39 1.39 0 0 1 .9 0 6.82 6.82 0 0 0 .7.5 2.94 2.94 0 0 1 .8.8 2.39 2.39 0 0 0 1.3.7m-7.5 19.2a3.41 3.41 0 0 1 .2 2.2 9 9 0 0 0 .6 5.5 5 5 0 0 1 0 3 4.32 4.32 0 0 1-1.6 2.6c1.3-.1 1.9.5 1.7 1.7a1.35 1.35 0 0 0 .4 1.4 9.86 9.86 0 0 1 1.6 5l-.1.9a.49.49 0 0 0 .3.6 2.22 2.22 0 0 0 2.2-2.1 4.81 4.81 0 0 1 .4-2.2c1.4-2.7 2.3-4.7 2.4-6a1.26 1.26 0 0 1 .9-1.3 1 1 0 0 1 .3.9 1.05 1.05 0 0 0 .4 1 5.33 5.33 0 0 0 .9-3v-7.5a49.42 49.42 0 0 1 .6-7.5 9.89 9.89 0 0 0-.1-3.8 27.88 27.88 0 0 1-.6-3.8 25.51 25.51 0 0 0-.4-4.4c-.4-1.9-.7-3.4-.9-4.3a.7.7 0 0 0-.8-.7c-.2 0-.4.3-.4.9a25.72 25.72 0 0 1-.2 4.8 23.16 23.16 0 0 0 .1 5.2c.2 1.1.5 2.8.8 5.1.3 3 .5 4.8.5 5.5a22.58 22.58 0 0 1-.6 5.5c-.2 1-.6 2.4-1 4.2a15.25 15.25 0 0 1-1.5 4 8.09 8.09 0 0 1-.9 1.4 1.11 1.11 0 0 1-1.2.5.88.88 0 0 1-.7-1.1 12.27 12.27 0 0 0 .1-1.7.56.56 0 0 1 .2-.6.37.37 0 0 1 .6 0c.7.4 1.1.1 1.1-.9a15.22 15.22 0 0 1 .4-3.1 15.24 15.24 0 0 0 .4-3.2c-.1-5-.1-9.6.1-13.6a13.28 13.28 0 0 0-.5-3c-.5-1.6-.7-2.6-.8-3v-.7a.41.41 0 0 0-.6-.4h-1.2a1 1 0 0 0-1 .6 23.91 23.91 0 0 0-1.2 3.6 16 16 0 0 0-.8 3.7.4.4 0 0 0 .4.5.8.8 0 0 0 .4-.9c-.1-.5-.1-.8.1-.9a5 5 0 0 0 1.3-2.5c.2-1.2.3-2.1.4-2.7s.3-.8.5-.7a.62.62 0 0 1 .5.8c-.1 1.1-.1 2.6-.1 4.7a21.27 21.27 0 0 1-.3 3 5.43 5.43 0 0 0 .7 2.9 2 2 0 0 1-.2 2.2 2.27 2.27 0 0 0-.3 1.3 30.9 30.9 0 0 1-.1 6.9 7.87 7.87 0 0 1-.4 1.2 5.64 5.64 0 0 0-.4 1.2 5.38 5.38 0 0 0 .1 1.1c0 .5-.2.7-.7.6a.57.57 0 0 1-.6-.7c-.1-.8-.2-1.2-.2-1.3a2.81 2.81 0 0 0 .1-.8 29.33 29.33 0 0 0-.6-7.8.65.65 0 0 0-.5-.6c-.3-.2-.4.1-.2.6m31.8-42.5c0 .4-.1 2.1-.1 5a.8.8 0 0 0 .6.9.59.59 0 0 0 .7-.7c.2-2.2.4-3.8.5-4.8a26.54 26.54 0 0 0 .1-4.8 3.88 3.88 0 0 0-1.1-2.5l-.7 6.9m-13.2-19a3.66 3.66 0 0 0-1 1.6 8.38 8.38 0 0 1-.6 1.7c-1.4 2.7-2.2 4.3-2.4 4.7a68.69 68.69 0 0 0-2.6 9.1 19.87 19.87 0 0 0-.6 4.3v8.8a2.5 2.5 0 0 0 .3 1.3.69.69 0 0 0 .4-.8.44.44 0 0 1 .6-.5.64.64 0 0 1 .6.6 5.38 5.38 0 0 1 .1.8 13.46 13.46 0 0 0 .8 3.5 12.24 12.24 0 0 1 1.4 4.1c.5 2.2.8 3.6 1 4.1a50.81 50.81 0 0 0 3 7.7 1.6 1.6 0 0 0-.1-1.5 5.93 5.93 0 0 1-.5-1.4 31.46 31.46 0 0 0-.6-5.5c-.6-3.7-.9-5.6-.9-5.6a11.14 11.14 0 0 0-.7-2.8 10.64 10.64 0 0 1-.7-2.7 21 21 0 0 0-.7-4 40.26 40.26 0 0 1-.8-4.1c0-.4-.1-.6-.4-.6-1.2-.2-1.5-1-1-2.4s.9-2.3 1.1-2.9a10 10 0 0 0 .6-3.2 3.84 3.84 0 0 1 .6-1.7 11.9 11.9 0 0 0 1-1.7c.2-.6.5-.6.9-.1.2.3.6.8 1.1 1.4a7.93 7.93 0 0 1 .8 1.6c1 2.6 1.5 4 1.6 4.2a7.6 7.6 0 0 1 1.1 2.9 35.75 35.75 0 0 0 .5 3.8 12.45 12.45 0 0 1 .1 3.8c-.1.7 0 1.1.4 1.2 1 0 1.4.6 1.4 1.8l.1 4.3a16.59 16.59 0 0 1-.4 4.2 33.84 33.84 0 0 0-.4 5.1 2.22 2.22 0 0 0 1.4 1.7q.45.15.6-.6a9.33 9.33 0 0 0 .5-3.2 22.1 22.1 0 0 1 .1-3.2 9.38 9.38 0 0 0-.1-3.7 27.12 27.12 0 0 1-.6-3.7q-.45-4.2-.6-7.5a14 14 0 0 0-1.1-5.3q-.3-.75-.6-.6a5.9 5.9 0 0 1-.8.4 24.48 24.48 0 0 0-1.2-6c-.1-.4-.7-2.3-1.8-5.5a1.91 1.91 0 0 1-.1-1 1.44 1.44 0 0 1 .7-.6 3.09 3.09 0 0 0 1.2-.9 1.53 1.53 0 0 0 .3-1.6 19.44 19.44 0 0 1-1.3-5.4 18.88 18.88 0 0 0-1.6-5.5 1.22 1.22 0 0 1-.6 1c-.7.4-1 .7-1.1.7.7-.1 1.2 0 1.3.4a6.76 6.76 0 0 1 .1 1.2 9.91 9.91 0 0 1-.4 1.7 2.66 2.66 0 0 0 .6 2.1m25.5-8.9a7.7 7.7 0 0 0-1.7-4.6 15.17 15.17 0 0 1-.3 2.4 16.27 16.27 0 0 0 .1 2.4c.2 1 .5 1.4.9 1.4.7 0 1-.5 1-1.6m2-13.4v6.6q0 1.2.9 1.2.6 0 .6-1.2a24.49 24.49 0 0 0-.7-7.2.65.65 0 0 0-.5-.6.92.92 0 0 0-.4.6 1.76 1.76 0 0 0 .1.6m-21.9-26.6a2.06 2.06 0 0 0-2.3 1.9c-.1.4-.3 2.3-.7 5.7v1.3a4.44 4.44 0 0 1-.2 1.3c-1.2 3.3-1.6 5.9-1.3 7.8a12.76 12.76 0 0 1-.4 4.5 10.12 10.12 0 0 0-.2 4.5 10 10 0 0 1-.1 4.2 9.65 9.65 0 0 0 .3 2.4 3.1 3.1 0 0 1-.4 2.4l.4.5c.3.2.6.1.6-.3l.1-1c.2-2.2.8-6.4 1.7-12.6q.45-3.6.6-5.4c.3-2.1.6-3.9.9-5.3.5-2.7 1-4.8 1.4-6.3a3.26 3.26 0 0 0 .3-1 1.67 1.67 0 0 0-.4-1.1c-.7-.8-.6-1.4.5-1.7.3-.1.5-.2.4-.4a2.22 2.22 0 0 0-.4-.5 1 1 0 0 1-.8-.9m17.2-39.3a.58.58 0 0 0-.6.6 3.82 3.82 0 0 0 .7 3.5 3 3 0 0 1 .7 1.7 7.19 7.19 0 0 1-.6 5.5s-.2.7-.5 1.9a1.59 1.59 0 0 1-1.4 1.4 1.68 1.68 0 0 0 .8.4c.3 0 .3.2.1.4a2.44 2.44 0 0 0-.7 2 1.08 1.08 0 0 1-.7.8.86.86 0 0 0-.6.6 1.25 1.25 0 0 1-.3 1.2 2.46 2.46 0 0 1-1 .4 1.85 1.85 0 0 0-.9.7 23.59 23.59 0 0 1-3.7 3.9 12 12 0 0 1-5 2.3.39.39 0 0 0-.4.2 24 24 0 0 1-1.2 2.4 4 4 0 0 0-.5 2.5 10 10 0 0 1-1.4 7.1 2.18 2.18 0 0 0 1.5-.2 1.17 1.17 0 0 1 1.4.3 16.56 16.56 0 0 1 .5-1.6c.2-.6.6-.7 1.3-.4a3 3 0 0 0 1.6.2 5 5 0 0 0 1.4-.3 11.19 11.19 0 0 1 3.1.1c.7.1 1.7.2 3 .4a8.6 8.6 0 0 1 3.5 1.2c1.9 1.2 3 1.8 3.1 1.9a16.5 16.5 0 0 1 1.6.9 14.68 14.68 0 0 0 1.7.9 5.91 5.91 0 0 1 4.1 3.5 18.91 18.91 0 0 1 .6 4.1 30.09 30.09 0 0 0 .2 4.1 30.82 30.82 0 0 1 .1 8.6 6 6 0 0 0 0 1.9 6.67 6.67 0 0 1-.2 2.2 2.7 2.7 0 0 0 .4 2.2.78.78 0 0 1 .2.8.75.75 0 0 1-.9.6.4.4 0 0 0-.5.4 16.42 16.42 0 0 1-2.1 4.5 20.53 20.53 0 0 0-1.4 4.1 14 14 0 0 1-1.7 4 .53.53 0 0 0 .1.8 1.25 1.25 0 0 1-.4 1.3 1.94 1.94 0 0 0-.9 1.4c0 .1-.1.6-.2 1.7a24.41 24.41 0 0 1-.4 3.8 22.52 22.52 0 0 0-1 5.8 8.42 8.42 0 0 1-1.6 4.9 22.11 22.11 0 0 0-1.8 4 29.84 29.84 0 0 1-1.5 4 .61.61 0 1 0 1.1.5l.6-1.4c.4-.8.7-1.4.9-1.9a3.66 3.66 0 0 1 1.1-1.5 5.73 5.73 0 0 0 2-3.7q.3-1.5 1.2-4.5a46 46 0 0 0 1.2-4.6 53.66 53.66 0 0 0 1.7-8.1 12.69 12.69 0 0 1 1.2-5c.9-2.4 2.2-5.5 3.7-9.2a9.39 9.39 0 0 0 .9-6.8 9.3 9.3 0 0 1 0-2.4 13.34 13.34 0 0 0 .1-2.7 16.07 16.07 0 0 1 .1-3.7 16 16 0 0 0 .1-3.7 20.36 20.36 0 0 1-.1-4.9 7 7 0 0 0-.4-1.9 2.15 2.15 0 0 1-.1-1.9 4.94 4.94 0 0 0 .4-2.4 1.68 1.68 0 0 1 .4-1.4 2.27 2.27 0 0 0 .9-1.8 3.69 3.69 0 0 0-.6-2 23.81 23.81 0 0 1-2.5-5.9c0-.1-.4-1-1-2.6a5.11 5.11 0 0 1-.6-2.7 1 1 0 0 0-.6-.9 3.19 3.19 0 0 0-1.4-.3.72.72 0 0 0-.6.4.76.76 0 0 0-.1.9 32.94 32.94 0 0 0 4.1 7.4 7.62 7.62 0 0 1 .9 2.9 3.29 3.29 0 0 0 .6 1.2q.15.6-1.2.6v.1a2.9 2.9 0 0 1-.1 2.4 9.29 9.29 0 0 0-.9 2.2 1.27 1.27 0 0 1-.7.9.48.48 0 0 1-.5-.2l-.3-.6-1.5-1.5a4.45 4.45 0 0 0-2-.9 3.86 3.86 0 0 1-2-1.2 1.45 1.45 0 0 0-1.3-.7 3.81 3.81 0 0 1-1.7-.4 8.46 8.46 0 0 0-1.7-.6 4.88 4.88 0 0 1-1.2-.8 3.64 3.64 0 0 0-1.2-.9 5.21 5.21 0 0 0-2.8-.2 15.87 15.87 0 0 1-2.8.6c-1.1.2-1.6.4-1.7.4a2 2 0 0 1-1.4-.4 5.8 5.8 0 0 1-.9-1 2 2 0 0 1 .4-1.9 20.24 20.24 0 0 1 1.7-2.5 5.48 5.48 0 0 1 2.2-1.9 14.73 14.73 0 0 0 4.6-3.9 6.29 6.29 0 0 1 1.4-1.2 3.4 3.4 0 0 0 1.2-1.2 18.41 18.41 0 0 1 .9-1.9 3.44 3.44 0 0 1 1.8-1.4c.3 0 .4-.3.4-.9a13.45 13.45 0 0 1 .8-4.8 28.43 28.43 0 0 1 .6-2.9 3.63 3.63 0 0 1 1.4-2.5q.3-.15 0-.6a17.31 17.31 0 0 1-1-2.8q-.6-2.1-.9-3a4.54 4.54 0 0 1-.9.5.75.75 0 0 1-.6-.9c-.3-1-.5-1.1-.9-1m4.4-3.7c-.5.3-.9.3-1 0a2.15 2.15 0 0 0-.2-1 2.84 2.84 0 0 0-1.9-1.2c-1-.2-1.5-.2-1.6.2a1.86 1.86 0 0 1-1.2 1.6c-.4.2-1 .4-1.7.7a9.27 9.27 0 0 0-2.5 1.8l-.5.5a.47.47 0 0 0 .1.6q.45.6 1.2 0l3.6-2.4a2.66 2.66 0 0 1 3.6.5 25.86 25.86 0 0 0 2.7 3.2c1.5 1.6 2.1 3 1.7 4.2a9.73 9.73 0 0 0-.1 4.2 54.94 54.94 0 0 0 1 6.1 37.34 37.34 0 0 0 1.2 4.1 2 2 0 0 0 .5-2 11.22 11.22 0 0 1-.6-4.8 35.06 35.06 0 0 0 0-4.8 12.93 12.93 0 0 0-1.3-4.8 2.06 2.06 0 0 1-.6-1.5 2.8 2.8 0 0 0-.3-1.7 4.59 4.59 0 0 1-.6-1.6 3 3 0 0 0-.6-.9 1.28 1.28 0 0 1-.9-1z" class="cls-6" data-name="Layer0 13 FILL" fill="#231f20"/></svg>